<?xml version="1.0" encoding="UTF-8"?> <svg xmlns="http://www.w3.org/2000/svg" xmlns:xlink="http://www.w3.org/1999/xlink" xmlns:xodm="http://www.corel.com/coreldraw/odm/2003" xml:space="preserve" width="10.8964mm" height="9.2714mm" version="1.1" style="shape-rendering:geometricPrecision; text-rendering:geometricPrecision; image-rendering:optimizeQuality; fill-rule:evenodd; clip-rule:evenodd" viewBox="0 0 820.34 698"> <defs> <style type="text/css"> .fil0 {fill:orangered;fill-rule:nonzero} </style> </defs> <g id="Слой_x0020_1"> <metadata id="CorelCorpID_0Corel-Layer"></metadata> <g id="_1845425967664"> <path class="fil0" d="M216.72 425.3c0,0 -216.72,3.6 -216.72,-150.74 0,-154.41 219.42,-149.89 219.42,-149.89l303.33 0 0 532.21 -64.63 0 0 -463.04 -235.49 0c0,0 -157.71,-5.14 -157.71,80.72 0,85.81 151.8,88.9 151.8,88.9l0 -156.18 67.31 0 0 490.72 -65.42 0 -1.9 -272.7z"></path> <path class="fil0" d="M284.03 698l0 -11.01 322.91 0c7.84,-0.71 202.56,-20.95 202.56,-210.61 0,-189.83 -204.31,-209.02 -206.31,-209.18l-8.16 -0.66 3.67 -7.23c30.69,-60.91 32.3,-84.25 32.3,-117.33 0,-16.32 -31.99,-131.06 -161.36,-131.06 -124.38,0 -152.95,111.81 -154.11,116.58l-10.59 -2.57c0.29,-1.2 31.63,-124.92 164.7,-124.92 129.23,0 172.35,111.9 172.35,141.98 0,33.43 -2.13,58.45 -30.11,115.35 38.86,5.77 208.47,41.32 208.47,219.05 0,199.67 -210.82,221.39 -212.93,221.57l-323.38 0.05z"></path> <path class="fil0" d="M606.94 658.71l-325.64 0 0 -10.99 325.64 0c1.59,0 164.06,-14.33 164.06,-182.11 0,-46.84 -15.2,-84.48 -45.1,-111.84 -68.58,-62.65 -192.57,-52.38 -193.81,-52.24l-15.01 1.36 10.63 -10.6c64.37,-64.38 62.96,-114.76 62.35,-136.29 -0.13,-1.97 -0.13,-3.7 -0.13,-5.25 0,-17.29 -32.09,-102.18 -117.52,-102.18 -85.77,0 -118.44,79.64 -118.78,80.42l-10.12 -4.07c0.38,-0.84 35.83,-87.23 128.9,-87.23 95.04,0 128.41,93.13 128.41,113.06 0,1.45 0.09,3.09 0.1,4.96 0.7,21.78 1.98,71.31 -55.86,134.25 35.5,-1.04 129.33,2.01 188.21,55.75 32.27,29.58 48.67,69.87 48.67,119.91 0,178.77 -173.27,193.1 -174.99,193.1z"></path> </g> </g> </svg> 