<?xml version="1.0" encoding="UTF-8"?> <svg xmlns="http://www.w3.org/2000/svg" xmlns:xlink="http://www.w3.org/1999/xlink" xml:space="preserve" width="300px" height="300px" version="1.1" style="shape-rendering:geometricPrecision; text-rendering:geometricPrecision; image-rendering:optimizeQuality; fill-rule:evenodd; clip-rule:evenodd" viewBox="0 0 30000 30000"> <defs> <style type="text/css"> .fil0 {fill:#FEFEFE;fill-rule:nonzero} .fil3 {fill:#FDE0BC;fill-rule:nonzero} .fil2 {fill:#F39314;fill-rule:nonzero} .fil1 {fill:#5C3F24;fill-rule:nonzero} </style> </defs> <g id="Слой_x0020_1"> <metadata id="CorelCorpID_0Corel-Layer"></metadata> <g id="_2254154053152"> <path class="fil0" d="M27169 15028c0,6708 -5426,12148 -12126,12170l-83 0c-6702,-22 -12126,-5462 -12126,-12170 0,-6722 5447,-12170 12167,-12170 6719,0 12168,5448 12168,12170z"></path> <path class="fil1" d="M11776 12099c0,0 -3138,53 -3138,-2182 0,-2235 3177,-2170 3177,-2170l4391 0 0 7705 -936 0 0 -6703 -3409 0c0,0 -2283,-75 -2283,1168 0,1242 2198,1287 2198,1287l0 -2261 974 0 0 7104 -947 0 -27 -3948z"></path> <path class="fil1" d="M12750 16047l0 -159 4675 0c113,-11 2932,-304 2932,-3049 0,-2748 -2958,-3026 -2987,-3028l-118 -10 53 -105c445,-882 468,-1220 468,-1698 0,-237 -463,-1898 -2336,-1898 -1800,0 -2214,1619 -2231,1688l-153 -37c4,-18 458,-1809 2384,-1809 1871,0 2495,1620 2495,2056 0,484 -31,846 -436,1670 563,83 3018,598 3018,3171 0,2890 -3052,3204 -3083,3207l-4681 1z"></path> <path class="fil1" d="M17425 15478l-4714 0 0 -159 4714 0c23,0 2375,-207 2375,-2636 0,-678 -220,-1223 -653,-1619 -993,-907 -2788,-759 -2806,-757l-217 20 154 -153c931,-933 911,-1662 902,-1973 -1,-29 -1,-54 -1,-76 0,-251 -465,-1480 -1702,-1480 -1242,0 -1714,1153 -1719,1165l-147 -59c5,-12 519,-1263 1866,-1263 1376,0 1859,1348 1859,1637 0,21 1,44 2,71 9,316 28,1033 -809,1944 514,-15 1872,29 2724,807 468,428 705,1012 705,1736 0,2587 -2508,2795 -2533,2795z"></path> <path class="fil0" d="M9991 18088l-72 0c0,416 337,754 754,754 415,0 753,-338 753,-754 0,-417 -338,-754 -753,-754 -417,0 -754,337 -754,754l142 0c0,-169 68,-322 180,-432 110,-112 263,-180 432,-180 168,0 320,68 432,180 110,110 178,263 178,432 0,169 -68,321 -178,432 -112,111 -264,180 -432,180 -169,0 -322,-69 -432,-180 -112,-111 -180,-263 -180,-432l-70 0z"></path> <path class="fil2" d="M24737 16145c-5851,-483 -8955,1245 -13382,1245 -2462,0 -4571,-527 -6076,-1062 -1509,-534 -2408,-1074 -2448,-1097 140,6601 5531,11910 12165,11910 6226,0 11354,-4674 12080,-10704 -830,-137 -1606,-232 -2339,-292z"></path> <path class="fil0" d="M7065 16863c-210,-51 -414,-105 -612,-161 30,-150 165,-265 324,-265 180,0 328,148 328,329 0,29 -4,57 -11,84 -10,4 -19,9 -29,13z"></path> <path class="fil3" d="M6777 17094c-181,0 -330,-147 -330,-328 0,-22 2,-43 6,-64 198,56 402,110 612,161 -110,57 -207,136 -284,231 -2,0 -3,0 -4,0z"></path> <path class="fil2" d="M6777 16437c-181,0 -330,148 -330,329 0,181 149,328 330,328 180,0 328,-147 328,-328 0,-181 -148,-329 -328,-329zm0 907c-320,0 -580,-259 -580,-578 0,-320 260,-579 580,-579 318,0 578,259 578,579 0,319 -260,578 -578,578z"></path> <path class="fil0" d="M6212 16632c-217,-64 -426,-130 -625,-197 69,-161 229,-273 415,-273 153,0 288,75 370,190 -78,75 -134,172 -160,280z"></path> <path class="fil3" d="M6002 17068c-250,0 -453,-202 -453,-452 0,-65 14,-126 38,-181 199,67 408,133 625,197 -10,43 -15,88 -15,134 0,82 17,161 48,232 -70,44 -153,70 -243,70z"></path> <path class="fil3" d="M6245 16998c-31,-71 -48,-150 -48,-232 0,-46 5,-91 15,-134 26,-108 82,-205 160,-280 53,74 84,165 84,264 0,160 -84,302 -211,382z"></path> <path class="fil2" d="M6002 16287c-180,0 -328,147 -328,328 0,181 148,328 328,328 181,0 329,-147 329,-328 0,-181 -148,-328 -329,-328zm0 907c-319,0 -578,-260 -578,-579 0,-319 259,-578 578,-578 320,0 579,259 579,578 0,319 -259,579 -579,579z"></path> <path class="fil0" d="M19375 16289c-35,-49 -55,-109 -55,-173 0,-163 132,-295 296,-295 163,0 296,132 296,295 0,38 -7,75 -21,108 -174,20 -346,42 -516,65z"></path> <path class="fil3" d="M19616 16413c-100,0 -188,-49 -241,-124 170,-23 342,-45 516,-65 -43,111 -150,189 -275,189z"></path> <path class="fil2" d="M19616 15821c-164,0 -296,132 -296,295 0,164 132,297 296,297 163,0 296,-133 296,-297 0,-163 -133,-295 -296,-295zm0 827c-294,0 -531,-239 -531,-532 0,-293 237,-530 531,-530 292,0 531,237 531,530 0,293 -239,532 -531,532z"></path> <path class="fil0" d="M20374 16173c-56,-53 -90,-128 -90,-211 0,-163 132,-297 295,-297 73,0 139,26 190,70 27,67 62,131 104,189 1,12 2,25 2,38 0,64 -21,124 -56,172 -150,12 -298,25 -445,39z"></path> <path class="fil3" d="M20579 16257c-80,0 -152,-32 -205,-84 147,-14 295,-27 445,-39 -53,74 -141,123 -240,123z"></path> <path class="fil2" d="M20579 15665c-163,0 -295,134 -295,297 0,163 132,295 295,295 164,0 296,-132 296,-295 0,-163 -132,-297 -296,-297zm0 828c-292,0 -531,-239 -531,-531 0,-294 239,-531 531,-531 294,0 532,237 532,531 0,292 -238,531 -532,531z"></path> <path class="fil0" d="M22405 16062c-11,-31 -16,-64 -16,-98 0,-164 133,-296 296,-296 163,0 296,132 296,296 0,34 -6,67 -16,97 -89,-1 -177,-1 -265,-1 -99,0 -197,0 -295,2z"></path> <path class="fil3" d="M22685 16259c-129,0 -239,-82 -280,-197 98,-2 196,-2 295,-2 88,0 176,0 265,1 -41,115 -151,198 -280,198z"></path> <path class="fil2" d="M22685 15668c-163,0 -296,132 -296,296 0,163 133,295 296,295 163,0 296,-132 296,-295 0,-164 -133,-296 -296,-296zm0 827c-294,0 -531,-238 -531,-531 0,-293 237,-532 531,-532 292,0 531,239 531,532 0,293 -239,531 -531,531z"></path> <path class="fil0" d="M23905 16090c-237,-12 -470,-20 -699,-25 6,-33 10,-66 10,-101 0,-80 -18,-157 -50,-225 73,-114 201,-189 346,-189 228,0 413,186 413,414 0,44 -7,86 -20,126z"></path> <path class="fil3" d="M23512 16377c-145,0 -273,-75 -346,-188 18,-39 32,-81 40,-124 229,5 462,13 699,25 -53,167 -209,287 -393,287z"></path> <path class="fil3" d="M23166 16189c-42,-65 -67,-142 -67,-225 0,-83 25,-160 67,-225 32,68 50,145 50,225 0,35 -4,68 -10,101 -8,43 -22,85 -40,124z"></path> <path class="fil2" d="M23512 15668c-163,0 -296,133 -296,296 0,163 133,295 296,295 163,0 296,-132 296,-295 0,-163 -133,-296 -296,-296zm0 827c-293,0 -531,-238 -531,-531 0,-293 238,-532 531,-532 293,0 531,239 531,532 0,293 -238,531 -531,531z"></path> <path class="fil3" d="M7467 18288c-351,0 -635,-285 -635,-635 0,-120 33,-232 91,-328 154,-40 284,-143 359,-279 59,-18 120,-28 185,-28 350,0 636,285 636,635 0,350 -286,635 -636,635z"></path> <path class="fil3" d="M6923 17325c80,-133 208,-233 359,-279 -75,136 -205,239 -359,279z"></path> <path class="fil2" d="M7467 17018c-351,0 -635,285 -635,635 0,350 284,635 635,635 350,0 636,-285 636,-635 0,-350 -286,-635 -636,-635zm0 1521c-488,0 -885,-397 -885,-886 0,-488 397,-886 885,-886 488,0 886,398 886,886 0,489 -398,886 -886,886z"></path> <path class="fil0" d="M21592 16045c-209,0 -395,-102 -511,-259 -19,-55 -47,-106 -82,-150 -27,-71 -42,-147 -42,-227 0,-350 285,-635 635,-635 352,0 636,285 636,635 0,258 -155,482 -377,581 -3,0 -6,0 -9,0 -73,0 -142,19 -201,53 -16,1 -33,2 -49,2z"></path> <path class="fil3" d="M21081 15786c-34,-46 -61,-96 -82,-150 35,44 63,95 82,150z"></path> <path class="fil2" d="M21592 14774c-350,0 -635,285 -635,635 0,350 285,636 635,636 352,0 636,-286 636,-636 0,-350 -284,-635 -636,-635zm0 1521c-487,0 -885,-397 -885,-886 0,-489 398,-886 885,-886 489,0 886,397 886,886 0,489 -397,886 -886,886z"></path> <path class="fil3" d="M21191 16861c-182,0 -330,-149 -330,-331 0,-50 11,-97 31,-139 55,-41 103,-91 139,-150 47,-26 102,-41 160,-41 1,0 2,0 3,0 64,33 133,57 204,73 16,13 30,28 44,43 -6,27 -9,55 -9,83 0,85 27,165 72,231 -42,133 -167,231 -314,231z"></path> <path class="fil3" d="M20892 16391c29,-63 78,-116 139,-150 -36,59 -84,109 -139,150z"></path> <path class="fil3" d="M21398 16273c-71,-16 -140,-40 -204,-73 77,1 148,28 204,73z"></path> <path class="fil2" d="M21191 16200c-182,0 -330,148 -330,330 0,182 148,331 330,331 182,0 329,-149 329,-331 0,-182 -147,-330 -329,-330zm0 790c-254,0 -461,-206 -461,-460 0,-254 207,-461 461,-461 254,0 460,207 460,461 0,254 -206,460 -460,460z"></path> <path class="fil3" d="M21842 16693c-76,0 -146,-30 -199,-79 5,-27 8,-55 8,-84 0,-86 -24,-166 -64,-235 1,0 3,0 5,0 161,0 312,-43 442,-118 62,54 102,133 102,222 0,161 -132,294 -294,294z"></path> <path class="fil3" d="M21592 16295c-2,0 -4,0 -5,0 -4,-6 -8,-12 -12,-18 47,-101 149,-172 267,-172 73,0 140,27 192,72 -130,75 -281,118 -442,118z"></path> <path class="fil3" d="M21643 16614c-58,-53 -95,-130 -95,-215 0,-43 10,-85 27,-122 4,6 8,12 12,18 40,69 64,149 64,235 0,29 -3,57 -8,84z"></path> <path class="fil2" d="M21842 16105c-161,0 -294,132 -294,294 0,161 133,294 294,294 162,0 294,-133 294,-294 0,-162 -132,-294 -294,-294zm0 703c-226,0 -409,-185 -409,-409 0,-226 183,-409 409,-409 226,0 409,183 409,409 0,224 -183,409 -409,409z"></path> <path class="fil3" d="M22478 17063c-198,0 -361,-156 -371,-353 88,-75 144,-187 144,-311 0,-1 0,-2 0,-3 22,-17 46,-32 72,-44 94,89 222,143 362,143 36,0 71,-3 105,-10 39,59 62,129 62,205 0,207 -167,373 -374,373z"></path> <path class="fil3" d="M22685 16495c-140,0 -268,-54 -362,-143 47,-22 100,-34 155,-34 130,0 245,66 312,167 -34,7 -69,10 -105,10z"></path> <path class="fil3" d="M22107 16710c0,-6 -1,-13 -1,-20 0,-120 57,-226 145,-294 0,1 0,2 0,3 0,124 -56,236 -144,311z"></path> <path class="fil2" d="M22478 16379c-171,0 -311,140 -311,312 0,171 140,310 311,310 172,0 312,-139 312,-310 0,-172 -140,-312 -312,-312zm0 745c-238,0 -433,-194 -433,-433 0,-240 195,-435 433,-435 240,0 434,195 434,435 0,239 -194,433 -434,433z"></path> <path class="fil0" d="M11355 17390c-137,0 -273,-1 -408,-5 -22,-8 -45,-16 -68,-22 174,-291 492,-486 855,-486 356,0 669,188 844,470 -398,28 -804,43 -1223,43z"></path> <path class="fil0" d="M10947 17385c-27,0 -53,-1 -80,-2 4,-7 8,-14 12,-20 23,6 46,14 68,22z"></path> <path class="fil3" d="M11734 18869c-549,0 -996,-448 -996,-996 0,-178 47,-345 129,-490 27,1 53,2 80,2 135,4 271,5 408,5 419,0 825,-15 1223,-43 96,153 151,333 151,526 0,548 -447,996 -995,996z"></path> <path class="fil2" d="M11734 16877c-549,0 -996,447 -996,996 0,548 447,996 996,996 548,0 995,-448 995,-996 0,-549 -447,-996 -995,-996zm0 2242c-688,0 -1247,-559 -1247,-1246 0,-688 559,-1246 1247,-1246 686,0 1245,558 1245,1246 0,687 -559,1246 -1245,1246z"></path> <path class="fil0" d="M12932 17320c-77,-95 -123,-216 -123,-348 0,-305 249,-555 555,-555 179,0 339,86 441,218 -21,58 -32,121 -32,187 0,128 42,245 114,340 -7,19 -15,37 -24,55 -307,40 -617,75 -931,103z"></path> <path class="fil3" d="M13364 17528c-175,0 -331,-82 -432,-208 314,-28 624,-63 931,-103 -91,184 -281,311 -499,311z"></path> <path class="fil2" d="M13364 16417c-306,0 -555,250 -555,555 0,307 249,556 555,556 306,0 556,-249 556,-556 0,-305 -250,-555 -556,-555zm0 1362c-444,0 -806,-362 -806,-807 0,-444 362,-805 806,-805 444,0 806,361 806,805 0,445 -362,807 -806,807z"></path> <path class="fil0" d="M14338 17136c-65,0 -125,-19 -175,-53 5,-36 7,-73 7,-111 0,-124 -28,-241 -78,-346 58,-73 147,-119 246,-119 175,0 315,141 315,315 0,173 -140,314 -315,314z"></path> <path class="fil3" d="M14163 17083c-85,-57 -140,-153 -140,-261 0,-74 26,-142 69,-196 50,105 78,222 78,346 0,38 -2,75 -7,111z"></path> <path class="fil2" d="M14338 16507c-173,0 -315,141 -315,315 0,173 142,314 315,314 175,0 315,-141 315,-314 0,-174 -140,-315 -315,-315zm0 881c-311,0 -565,-254 -565,-566 0,-311 254,-565 565,-565 312,0 566,254 566,565 0,312 -254,566 -566,566z"></path> <path class="fil0" d="M15219 16988c-133,0 -249,-70 -315,-174 -1,-84 -21,-165 -56,-237 19,-188 178,-334 371,-334 205,0 372,166 372,373 0,205 -167,372 -372,372z"></path> <path class="fil3" d="M14904 16814c-37,-57 -58,-125 -58,-198 0,-13 1,-26 2,-39 35,72 55,153 56,237z"></path> <path class="fil2" d="M15219 16368c-137,0 -248,111 -248,247 0,136 111,248 248,248 137,0 247,-112 247,-248 0,-136 -110,-247 -247,-247zm0 745c-275,0 -498,-223 -498,-498 0,-275 223,-498 498,-498 275,0 498,223 498,498 0,275 -223,498 -498,498z"></path> <path class="fil0" d="M10452 17367c-814,-42 -1583,-139 -2296,-270 -74,-91 -166,-168 -270,-224 -42,-145 -64,-299 -64,-457 0,-915 741,-1656 1654,-1656 915,0 1656,741 1656,1656 0,135 -17,267 -47,394 -206,125 -372,308 -477,527 -54,4 -106,14 -156,30z"></path> <path class="fil0" d="M10591 17373c-46,-2 -93,-4 -139,-6 50,-16 102,-26 156,-30 -6,12 -11,24 -17,36z"></path> <path class="fil3" d="M9476 18070c-434,0 -828,-167 -1124,-441 -5,-201 -78,-385 -196,-532 713,131 1482,228 2296,270 46,2 93,4 139,6 -47,108 -80,224 -95,346 -281,220 -635,351 -1020,351z"></path> <path class="fil3" d="M8352 17629c-218,-202 -382,-462 -466,-756 104,56 196,133 270,224 118,147 191,331 196,532z"></path> <path class="fil3" d="M10496 17719c15,-122 48,-238 95,-346 6,-12 11,-24 17,-36 105,-219 271,-402 477,-527 -90,365 -301,683 -589,909z"></path> <path class="fil2" d="M9477 14904c-833,0 -1511,678 -1511,1511 0,833 678,1511 1511,1511 833,0 1511,-678 1511,-1511 0,-833 -678,-1511 -1511,-1511zm0 3310c-992,0 -1799,-807 -1799,-1799 0,-992 807,-1798 1799,-1798 992,0 1799,806 1799,1798 0,992 -807,1799 -1799,1799z"></path> <path class="fil1" d="M3118 14761c8,4 782,470 2096,959 -20,-247 -31,-496 -31,-748 0,-5420 4394,-9813 9813,-9813 5420,0 9813,4393 9813,9813 0,210 -9,418 -22,625 778,64 1544,161 2341,292 24,-303 38,-608 38,-917 0,-6722 -5448,-12170 -12170,-12170 -6593,0 -11958,5243 -12161,11787l283 172z"></path> <path class="fil0" d="M12298 20875c0,-394 7,-745 21,-1061l-1715 0c14,330 21,685 21,1061 0,387 -7,781 -21,1174l481 0c-10,-337 -17,-720 -17,-1156 0,-239 -11,-482 -28,-721l843 0c-21,250 -28,496 -28,745 0,429 -7,809 -17,1132l481 0c-14,-386 -21,-777 -21,-1174zm2380 113c0,-412 7,-802 25,-1174l-376 0c0,126 -152,372 -461,731 -348,404 -545,664 -591,777l-28 0c18,-225 25,-415 25,-566 0,-338 7,-651 25,-942l-486 0c22,372 32,762 32,1174 0,404 -10,759 -32,1061l373 0c0,-123 155,-369 471,-742 345,-407 538,-664 580,-769l25 0c-14,281 -18,499 -18,654 0,383 -10,667 -24,857l485 0c-18,-302 -25,-657 -25,-1061zm2085 3c-102,-88 -225,-140 -362,-162l0 -28c260,-81 390,-249 390,-502 0,-331 -253,-496 -759,-496 -71,0 -169,3 -292,7 -123,4 -215,4 -267,4l-278 0c17,295 24,650 24,1065 0,436 -7,826 -24,1170 274,7 474,11 604,11 746,0 1118,-229 1118,-682 0,-172 -52,-299 -154,-387zm-457 668c-99,53 -253,77 -464,77 -78,0 -137,-3 -176,-14 -11,-200 -14,-421 -14,-661 56,-3 123,-7 204,-7 397,0 597,113 597,341 0,127 -49,215 -147,264zm-521 -907c-45,0 -91,0 -137,-3 0,-282 -7,-482 -17,-598 91,-14 197,-25 313,-25 256,0 386,102 386,310 0,211 -182,316 -545,316zm3277 -671c-204,-211 -457,-317 -759,-317 -317,0 -581,113 -798,345 -215,232 -320,524 -320,875 0,327 102,598 305,809 201,211 454,320 756,320 320,0 584,-116 798,-348 218,-233 324,-524 324,-876 0,-327 -102,-597 -306,-808zm-341 1427c-120,151 -260,225 -425,225 -180,0 -331,-74 -454,-225 -123,-148 -186,-341 -186,-580 0,-229 59,-418 175,-566 116,-151 261,-225 426,-225 179,0 330,74 453,221 123,148 183,345 183,584 0,225 -56,415 -172,566z"></path> <path class="fil0" d="M12758 24662c-173,0 -309,-55 -405,-169 -98,-113 -146,-246 -146,-400 0,-151 41,-279 124,-385 80,-105 203,-158 369,-158 88,0 182,18 277,48l45 -285c-90,-22 -186,-35 -284,-35 -271,0 -485,86 -641,257 -156,171 -234,370 -234,601 0,221 73,410 219,566 148,154 362,232 641,232 113,0 229,-13 345,-41l20 -284c-118,35 -229,53 -330,53zm1812 -1170c-146,-151 -327,-226 -544,-226 -226,0 -415,80 -571,246 -153,166 -229,375 -229,627 0,234 73,427 219,578 143,151 325,229 541,229 229,0 418,-83 571,-249 156,-166 231,-375 231,-626 0,-234 -73,-428 -218,-579zm-244 1021c-86,109 -187,161 -305,161 -128,0 -236,-52 -324,-161 -88,-105 -134,-244 -134,-415 0,-163 43,-299 126,-405 83,-108 186,-161 305,-161 128,0 236,53 324,159 88,106 131,246 131,417 0,161 -40,297 -123,405zm1906 -450c0,-302 5,-556 18,-762l-347 0c10,181 17,407 17,684 -67,23 -153,33 -256,33 -131,0 -222,-30 -269,-91 -48,-60 -73,-186 -73,-382 0,-75 5,-156 15,-244l-345 0c8,123 10,234 10,330 0,241 43,407 129,495 85,88 226,131 427,131 154,0 274,-10 362,-35 0,261 -7,488 -17,679l347 0c-13,-249 -18,-528 -18,-838zm1666 78c0,-294 5,-573 17,-840l-269 0c0,90 -108,267 -329,523 -249,289 -390,476 -423,556l-20 0c12,-161 18,-297 18,-405 0,-241 5,-465 17,-674l-347 0c15,267 23,546 23,840 0,289 -8,544 -23,760l267 0c0,-88 110,-264 337,-531 246,-292 385,-475 415,-551l17 0c-10,201 -12,357 -12,468 0,274 -8,478 -18,614l347 0c-12,-216 -17,-471 -17,-760z"></path> <path class="fil0" d="M5913 8893c-311,-159 -524,-276 -641,-349l-130 209c59,36 180,178 364,427 184,248 300,389 351,421l-5 8c-51,-31 -225,-80 -521,-145 -295,-65 -474,-117 -535,-155l-132 211c117,73 312,220 588,442 274,224 415,337 420,340l87 -139c-100,-62 -260,-175 -476,-338 -217,-162 -363,-267 -438,-316l5 -8c36,11 95,29 179,52 84,25 257,63 516,119 258,54 407,94 446,118l68 -109c-36,-22 -134,-141 -292,-354 -157,-212 -310,-401 -455,-568l4 -6c47,27 192,106 436,232 242,128 425,231 549,308l93 -151c-10,-6 -170,-89 -481,-249z"></path> <path class="fil0" d="M6612 8664c-119,-88 -243,-183 -373,-288 100,-124 197,-238 291,-345l-113 -92c-77,109 -168,227 -274,359 -134,-108 -240,-191 -322,-252 123,-153 243,-294 358,-424l-109 -98 -451 559c140,103 299,224 478,368 189,153 358,296 510,429l480 -595 -111 -97c-111,153 -232,313 -364,476z"></path> <path class="fil0" d="M8147 7057c-196,-102 -331,-160 -403,-174 -73,-13 -149,-3 -228,31l-6 -7c26,-76 32,-157 17,-242 -17,-85 -62,-195 -136,-331 -25,-49 -42,-82 -49,-101l-117 114c3,22 15,46 33,73 101,152 152,278 150,379 1,102 -38,190 -115,265 -6,5 -10,9 -17,13 -125,-129 -252,-264 -382,-410l-125 121c140,136 272,267 397,396 -3,5 -6,8 -12,13 -76,75 -166,111 -263,108 -99,-4 -226,-59 -374,-168 -39,-21 -64,-33 -74,-34l-123 119c36,17 70,35 99,51 141,85 251,134 331,152 79,18 158,13 238,-14l7 7c-37,77 -50,154 -37,228 9,74 63,211 158,407 22,51 40,89 53,113l134 -129c-10,-24 -22,-51 -39,-80 -108,-184 -162,-318 -164,-404 -2,-84 41,-171 131,-257 7,-7 15,-12 25,-19 145,151 277,293 395,423l124 -121c-127,-120 -263,-258 -409,-409 2,-4 6,-11 13,-18 90,-86 176,-125 261,-121 85,6 217,65 399,177 40,22 65,37 78,42l141 -137c-51,-25 -89,-45 -111,-56z"></path> <path class="fil0" d="M9082 6350c-111,-131 -221,-273 -334,-427 -112,-153 -226,-315 -342,-487l-391 286c96,451 198,844 312,1181l-74 54c23,31 72,98 148,199 76,100 134,176 174,231l87 -64c-50,-67 -116,-187 -200,-361 88,-74 203,-161 340,-261 158,-116 280,-203 367,-256 113,152 195,260 244,328l91 -67c-40,-55 -90,-139 -150,-251 -60,-112 -102,-182 -124,-213l-148 108zm-637 467c-76,-212 -173,-559 -291,-1043l188 -138c85,113 187,249 301,405 127,172 230,307 310,403l-508 373z"></path> <path class="fil0" d="M9431 4813c49,85 96,341 144,772l-7 4c-13,-22 -128,-101 -343,-235 -215,-133 -328,-208 -338,-226l-170 99c6,10 145,95 418,256 272,158 420,259 443,298 10,106 2,186 -28,243 -27,57 -90,112 -182,166l75 115c110,-64 184,-137 221,-216 37,-81 53,-201 50,-361 -5,-159 -23,-358 -56,-597 -33,-239 -60,-374 -78,-405l-149 87z"></path> <path class="fil0" d="M10918 4777c-89,-203 -167,-387 -231,-556l-166 73c97,199 173,362 231,491l-523 232c-71,-160 -141,-328 -209,-501l-166 74c83,166 169,346 257,545 84,190 168,394 258,615l165 -74c-112,-234 -195,-415 -254,-548l519 -231c72,163 152,348 237,557l165 -74c-91,-180 -185,-382 -283,-603z"></path> <path class="fil0" d="M12094 4424c-262,-322 -399,-504 -410,-540l-212 66c11,38 -3,268 -45,689 -41,422 -58,644 -51,667l184 -56c-13,-44 -17,-187 -7,-428l522 -161c145,198 224,316 236,358l192 -59c-11,-35 -147,-214 -409,-536zm-542 265c34,-414 49,-629 43,-648l10 -3c7,23 137,194 392,514l-445 137z"></path> <path class="fil0" d="M13180 3622c-81,-41 -182,-52 -300,-30 -48,9 -105,22 -171,37 -67,15 -109,23 -122,25l-134 26c43,172 84,370 126,589 49,255 87,475 111,657l180 -34c-49,-196 -85,-362 -111,-501 17,-3 36,-5 59,-9 182,-35 320,-100 413,-193 94,-91 128,-211 101,-356 -19,-98 -70,-167 -152,-211zm-366 633c-33,6 -59,11 -81,13 -42,-219 -75,-382 -100,-484 65,-23 125,-39 179,-49 218,-41 342,20 373,183 33,172 -90,283 -371,337z"></path> <path class="fil0" d="M14576 3554c-123,-107 -259,-153 -408,-143 -157,12 -291,83 -400,215 -112,132 -160,305 -145,516 14,197 84,348 204,454 121,107 257,155 409,145 157,-12 290,-83 400,-217 111,-134 159,-305 144,-516 -14,-195 -83,-346 -204,-454zm-58 882c-72,106 -162,160 -265,167 -110,8 -213,-30 -307,-116 -92,-85 -143,-211 -155,-379 -12,-163 20,-293 92,-396 75,-101 162,-158 267,-165 111,-8 213,30 305,118 94,85 146,212 158,379 11,159 -20,289 -95,392z"></path> <path class="fil0" d="M15963 4580c-3,-172 1,-352 11,-543 10,-189 24,-387 43,-593l-484 -26c-210,411 -380,779 -505,1112l-91 -5c-2,38 -6,122 -11,248 -5,125 -8,221 -11,289l106 5c5,-83 30,-218 74,-405 115,-2 259,3 428,12 197,11 346,21 447,34 -8,189 -14,325 -18,408l113 6c3,-67 18,-164 42,-289 24,-125 36,-206 38,-244l-182 -9zm-789 -42c76,-212 220,-542 434,-992l233 12c-5,142 -12,311 -22,505 -12,213 -17,382 -15,508l-630 -33z"></path> <path class="fil0" d="M17357 4253c38,-218 76,-414 118,-591l-179 -31c-30,219 -58,397 -82,536l-564 -99c31,-173 66,-351 106,-532l-178 -32c-25,184 -54,382 -91,596 -36,204 -80,421 -129,654l178 31c37,-257 70,-453 95,-597l560 99c-31,175 -68,373 -115,593l178 32c26,-200 61,-421 103,-659z"></path> <path class="fil0" d="M18120 4333c-37,-12 -77,-23 -117,-32 87,-257 142,-411 163,-465l-172 -55c-44,168 -101,360 -171,578 -74,232 -146,442 -216,630 117,42 200,71 246,86 167,53 309,61 428,22 121,-39 199,-119 239,-242 76,-238 -58,-412 -400,-522zm99 645c-69,24 -176,15 -319,-31 -30,-9 -58,-22 -86,-38 46,-157 96,-317 149,-482 31,6 61,13 92,23 258,83 359,207 306,371 -26,82 -73,133 -142,157zm703 -267c68,-212 133,-403 197,-569l-173 -55c-43,166 -101,359 -171,577 -71,223 -143,434 -216,631l172 55c55,-202 119,-414 191,-639z"></path> <path class="fil0" d="M20175 5356c101,-210 200,-408 300,-594l-121 -59c-30,63 -185,162 -466,294 -312,145 -492,242 -544,290l-10 -5c65,-121 122,-231 170,-332 94,-196 183,-372 268,-526l-161 -78c-83,195 -173,397 -275,608 -99,207 -191,386 -274,536l119 57c27,-55 184,-150 471,-289 311,-148 489,-245 536,-294l9 5c-77,151 -139,276 -188,376 -103,216 -185,376 -246,482l163 78c66,-159 149,-342 249,-549zm188 -1067c-26,56 -57,97 -92,115 -35,21 -81,17 -139,-11 -98,-47 -119,-128 -63,-245l-131 -43c-31,65 -39,132 -24,203 15,73 73,132 172,180 97,47 176,53 241,21 64,-34 112,-81 143,-146l-107 -74z"></path> <path class="fil0" d="M21970 6018c-20,-116 -102,-230 -244,-342 37,-50 68,-94 97,-127l-137 -97c-26,43 -55,88 -87,134 -156,-90 -293,-121 -417,-93 -123,26 -224,94 -301,203 -73,105 -98,214 -78,328 21,115 102,230 247,342 -38,54 -80,110 -123,165l137 96c46,-72 84,-129 113,-171 153,90 292,122 416,95 124,-28 222,-96 300,-207 72,-102 99,-211 77,-326zm-729 341c74,-112 145,-217 214,-315 65,-92 132,-184 200,-274 190,162 220,333 94,512 -124,176 -293,204 -508,77zm-121 -85c-190,-163 -222,-334 -96,-514 124,-176 295,-202 510,-75 -75,110 -147,216 -216,314 -64,91 -130,181 -198,275z"></path> <path class="fil0" d="M23096 6861c-8,-163 -68,-293 -179,-394 -116,-106 -260,-153 -431,-142 -173,11 -331,96 -474,252 -132,146 -194,300 -187,461 6,161 65,293 177,395 117,106 260,153 433,140 173,-12 331,-95 473,-252 132,-144 193,-299 188,-460zm-679 567c-126,20 -227,-8 -304,-77 -82,-75 -124,-175 -127,-302 -2,-126 54,-250 166,-374 111,-121 227,-188 351,-207 125,-16 227,9 304,79 82,75 125,176 125,303 3,126 -52,251 -165,375 -107,118 -224,185 -350,203z"></path> <path class="fil0" d="M24023 7770c-5,-91 -47,-184 -127,-274 -32,-37 -72,-79 -118,-129 -47,-50 -75,-82 -84,-92l-90 -103c-127,125 -276,261 -443,408 -195,171 -366,316 -510,430l121 137c143,-142 268,-257 375,-350 11,13 23,29 38,47 122,138 248,225 375,258 126,34 247,3 358,-95 75,-65 109,-145 105,-237zm-731 5c-22,-25 -40,-45 -52,-62 168,-148 291,-259 366,-333 53,45 97,89 133,130 146,166 156,305 32,414 -132,116 -290,66 -479,-149z"></path> <path class="fil0" d="M24758 8618c-79,57 -329,130 -753,220l-5 -6c21,-15 88,-138 199,-365 112,-227 175,-347 191,-359l-115 -159c-9,7 -80,154 -212,442 -131,286 -216,444 -253,471 -104,19 -185,20 -244,-4 -60,-22 -121,-79 -184,-165l-107 87c75,102 155,169 237,198 85,28 205,32 364,13 158,-20 354,-59 589,-115 234,-57 366,-97 395,-118l-102 -140z"></path> <path class="fil0" d="M25020 10498c290,-193 497,-323 617,-389l-118 -215c-61,34 -244,70 -551,108 -306,40 -486,73 -539,102l-4 -8c52,-29 179,-158 380,-384 201,-226 334,-357 397,-392l-120 -218c-121,66 -344,165 -672,297 -329,131 -497,199 -502,202l79 143c103,-57 280,-141 527,-251 247,-110 410,-186 489,-228l5 9c-27,26 -72,68 -133,131 -62,61 -181,193 -356,392 -172,199 -280,310 -320,332l62 112c37,-20 188,-48 451,-82 262,-34 502,-75 718,-120l4 6c-47,28 -187,117 -416,267 -230,149 -408,259 -536,330l86 155c10,-6 161,-105 452,-299z"></path> </g> </g> </svg> 