<svg width="100%" height="100%" viewBox="0 0 2240 3340" version="1.1" xmlns="http://www.w3.org/2000/svg" xmlns:xlink="http://www.w3.org/1999/xlink" xml:space="preserve" xmlns:serif="http://www.serif.com/" style="fill-rule:evenodd;clip-rule:evenodd;stroke-miterlimit:22.926;" shape-rendering="geometricPrecision" text-rendering="optimizeLegibility">
    <g transform="matrix(-0.973379,0,0,0.995414,1149.382431,9.1467)">
        <rect x="571.327" y="1249.085" width="192.151" height="243.763" style="fill:rgb(255,142,0);"/>
    </g>
    <g transform="matrix(1.253224,0,0,1.240349,-61.025085,-303.519307)">
        <rect x="128" y="1254.504" width="244.843" height="297.496" style="fill:rgb(209,123,120);"/>
    </g>
    <g transform="matrix(1,0,0,0.947895,31.387577,50.437972)">
        <rect x="1015.633" y="599.695" width="453.332" height="368.305" style="fill:rgb(177,170,157);"/>
    </g>
    <g transform="matrix(1,0,0,1,31.387577,0)">
        <rect x="1015.633" y="47.698" width="454.112" height="435.302" style="fill:rgb(177,170,157);"/>
    </g>
    <g transform="matrix(1,0,0,1,31.387577,0)">
        <rect x="1468.965" y="47.698" width="636.287" height="107.34" style="fill:rgb(177,170,157);"/>
    </g>
    <g transform="matrix(1,0,0,1,31.387577,0)">
        <path d="M1468.965,968L1468.965,1166.332L1469.88,1346.471L1351.433,1346.471L1350.652,1404.798L1242.299,1404.798L1242.299,1346.471L1113,1346.471L1112.875,1162.332L1015.633,1162.332L1015.633,968L1468.965,968Z" style="fill:rgb(136,209,233);"/>
    </g>
    <g transform="matrix(1,0,0,1,31.387577,0)">
        <rect x="68" y="758.477" width="803" height="438.428" style="fill:rgb(177,170,157);"/>
    </g>
    <g transform="matrix(1.037147,0,0,0.854268,-23.081519,318.268195)">
        <rect rx="4" ry="4" x="1259" y="2177.832" width="238.336" height="47.273" style="fill:#4A2412;"/>
    </g>
    <g transform="matrix(-2.281602,0,0,0.854268,5020.176585,318.268195)">
        <rect rx="4" ry="4" x="1259" y="2177.832" width="238.336" height="47.273" style="fill:#4A2412;"/>
    </g>
    <g id="ЛЕСТНИЦА" transform="matrix(1,0,0,1,31.387577,-8)">
        <g transform="matrix(1.333333,0,0,1.333333,48.585334,1135.663529)">
            <path d="M955.057,818.231L1058.286,818.231" style="fill:none;fill-rule:nonzero;stroke:#4A2412;stroke-width:0.75px;"/>
        </g>
        <g transform="matrix(1.333333,0,0,1.333333,48.585334,1154.332657)">
            <path d="M955.057,811.031L1058.286,811.031" style="fill:none;fill-rule:nonzero;stroke:#4A2412;stroke-width:0.75px;"/>
        </g>
        <g transform="matrix(1.333333,0,0,1.333333,50,1177.669785)">
            <path d="M953.995,800.33L1057.225,800.33" style="fill:none;fill-rule:nonzero;stroke:#4A2412;stroke-width:0.75px;"/>
        </g>
        <g transform="matrix(1.333333,0,0,1.333333,50,1196.338913)">
            <path d="M953.995,793.13L1057.225,793.13" style="fill:none;fill-rule:nonzero;stroke:#4A2412;stroke-width:0.75px;"/>
        </g>
        <g transform="matrix(1.333333,0,0,1.333333,50,1215.008042)">
            <path d="M953.995,785.93L1057.225,785.93" style="fill:none;fill-rule:nonzero;stroke:#4A2412;stroke-width:0.75px;"/>
        </g>
        <g transform="matrix(1.333333,0,0,1.333333,50,1233.677171)">
            <path d="M953.995,778.73L1057.225,778.73" style="fill:none;fill-rule:nonzero;stroke:#4A2412;stroke-width:0.75px;"/>
        </g>
        <g transform="matrix(1.333333,0,0,1.333333,50,1252.346299)">
            <path d="M953.995,771.53L1057.225,771.53" style="fill:none;fill-rule:nonzero;stroke:#4A2412;stroke-width:0.75px;"/>
        </g>
        <g transform="matrix(1.333333,0,0,1.333333,50,1271.015428)">
            <path d="M953.995,764.33L1057.225,764.33" style="fill:none;fill-rule:nonzero;stroke:#4A2412;stroke-width:0.75px;"/>
        </g>
        <g transform="matrix(1.333333,0,0,1.333333,50,1289.684557)">
            <path d="M953.995,757.13L1057.225,757.13" style="fill:none;fill-rule:nonzero;stroke:#4A2412;stroke-width:0.75px;"/>
        </g>
        <g transform="matrix(1.333333,0,0,1.333333,50,1308.353685)">
            <path d="M953.995,749.93L1057.225,749.93" style="fill:none;fill-rule:nonzero;stroke:#4A2412;stroke-width:0.75px;"/>
        </g>
        <g transform="matrix(1.333333,0,0,1.333333,50,1327.022814)">
            <path d="M953.995,742.73L1057.225,742.73" style="fill:none;fill-rule:nonzero;stroke:#4A2412;stroke-width:0.75px;"/>
        </g>
        <g transform="matrix(1.333333,0,0,1.333333,50,1345.691943)">
            <path d="M953.995,735.53L1057.225,735.53" style="fill:none;fill-rule:nonzero;stroke:#4A2412;stroke-width:0.75px;"/>
        </g>
        <g transform="matrix(1.333333,0,0,1.333333,50,1364.361071)">
            <path d="M953.995,728.33L1057.225,728.33" style="fill:none;fill-rule:nonzero;stroke:#4A2412;stroke-width:0.75px;"/>
        </g>
        <g transform="matrix(1.333333,0,0,1.333333,50,1383.0302)">
            <path d="M953.995,721.13L1057.225,721.13" style="fill:none;fill-rule:nonzero;stroke:#4A2412;stroke-width:0.75px;"/>
        </g>
        <g transform="matrix(1.333333,0,0,1.333333,50,1401.699329)">
            <path d="M953.995,713.93L1057.225,713.93" style="fill:none;fill-rule:nonzero;stroke:#4A2412;stroke-width:0.75px;"/>
        </g>
        <g transform="matrix(1.333333,0,0,1.333333,50,1420.368457)">
            <path d="M953.995,706.73L1057.225,706.73" style="fill:none;fill-rule:nonzero;stroke:#4A2412;stroke-width:0.75px;"/>
        </g>
        <g transform="matrix(1.333333,0,0,1.333333,50,1439.037586)">
            <path d="M953.995,699.53L1057.225,699.53" style="fill:none;fill-rule:nonzero;stroke:#4A2412;stroke-width:0.75px;"/>
        </g>
        <g transform="matrix(1.333333,0,0,1.333333,50,1457.706715)">
            <path d="M953.995,692.33L1057.225,692.33" style="fill:none;fill-rule:nonzero;stroke:#4A2412;stroke-width:0.75px;"/>
        </g>
        <g transform="matrix(1.333333,0,0,1.333333,50,1476.375843)">
            <path d="M953.995,685.13L1057.225,685.13" style="fill:none;fill-rule:nonzero;stroke:#4A2412;stroke-width:0.75px;"/>
        </g>
        <g transform="matrix(1.333333,0,0,1.333333,50,1495.044972)">
            <path d="M953.995,677.93L1057.225,677.93" style="fill:none;fill-rule:nonzero;stroke:#4A2412;stroke-width:0.75px;"/>
        </g>
        <g transform="matrix(1.333333,0,0,1.333333,50,1513.714101)">
            <path d="M953.995,670.73L1057.225,670.73" style="fill:none;fill-rule:nonzero;stroke:#4A2412;stroke-width:0.75px;"/>
        </g>
        <g transform="matrix(1.333333,0,0,1.333333,50,1532.383229)">
            <path d="M953.995,663.53L1057.225,663.53" style="fill:none;fill-rule:nonzero;stroke:#4A2412;stroke-width:0.75px;"/>
        </g>
        <g transform="matrix(1.333333,0,0,1.333333,50,1551.052358)">
            <path d="M953.995,656.33L1057.225,656.33" style="fill:none;fill-rule:nonzero;stroke:#4A2412;stroke-width:0.75px;"/>
        </g>
        <g transform="matrix(1.333333,0,0,1.333333,50,1569.721487)">
            <path d="M953.995,649.13L1057.225,649.13" style="fill:none;fill-rule:nonzero;stroke:#4A2412;stroke-width:0.75px;"/>
        </g>
        <g transform="matrix(1.333333,0,0,1.333333,50,1588.390615)">
            <path d="M953.995,641.93L1057.225,641.93" style="fill:none;fill-rule:nonzero;stroke:#4A2412;stroke-width:0.75px;"/>
        </g>
        <g transform="matrix(1.333333,0,0,1.333333,50,1607.059744)">
            <path d="M953.995,634.73L1057.225,634.73" style="fill:none;fill-rule:nonzero;stroke:#4A2412;stroke-width:0.75px;"/>
        </g>
        <g transform="matrix(1.333333,0,0,1.333333,50,1625.728873)">
            <path d="M953.995,627.53L1057.225,627.53" style="fill:none;fill-rule:nonzero;stroke:#4A2412;stroke-width:0.75px;"/>
        </g>
        <g transform="matrix(1.333333,0,0,1.333333,50,1644.398001)">
            <path d="M953.995,620.33L1057.225,620.33" style="fill:none;fill-rule:nonzero;stroke:#4A2412;stroke-width:0.75px;"/>
        </g>
        <g transform="matrix(1.333333,0,0,1.333333,50,1663.06713)">
            <path d="M953.995,613.13L1057.225,613.13" style="fill:none;fill-rule:nonzero;stroke:#4A2412;stroke-width:0.75px;"/>
        </g>
        <g transform="matrix(1.333333,0,0,1.333333,50,1681.736259)">
            <path d="M953.995,605.93L1057.225,605.93" style="fill:none;fill-rule:nonzero;stroke:#4A2412;stroke-width:0.75px;"/>
        </g>
        <g transform="matrix(1.333333,0,0,1.333333,50,1700.405387)">
            <path d="M953.995,598.73L1057.225,598.73" style="fill:none;fill-rule:nonzero;stroke:#4A2412;stroke-width:0.75px;"/>
        </g>
        <g transform="matrix(1.333333,0,0,1.333333,50,1719.074516)">
            <path d="M953.995,591.53L1057.225,591.53" style="fill:none;fill-rule:nonzero;stroke:#4A2412;stroke-width:0.75px;"/>
        </g>
        <g transform="matrix(1.333333,0,0,1.333333,50,1737.743645)">
            <path d="M953.995,584.33L1057.225,584.33" style="fill:none;fill-rule:nonzero;stroke:#4A2412;stroke-width:0.75px;"/>
        </g>
        <g transform="matrix(1.333333,0,0,1.333333,50,1756.412773)">
            <path d="M953.995,577.13L1057.225,577.13" style="fill:none;fill-rule:nonzero;stroke:#4A2412;stroke-width:0.75px;"/>
        </g>
        <g transform="matrix(1.333333,0,0,1.333333,50,1775.081902)">
            <path d="M953.995,569.93L1057.225,569.93" style="fill:none;fill-rule:nonzero;stroke:#4A2412;stroke-width:0.75px;"/>
        </g>
        <g transform="matrix(1.333333,0,0,1.333333,50,1793.751031)">
            <path d="M953.995,562.73L1057.225,562.73" style="fill:none;fill-rule:nonzero;stroke:#4A2412;stroke-width:0.75px;"/>
        </g>
        <g transform="matrix(1.333333,0,0,1.333333,50,1812.420159)">
            <path d="M953.995,555.53L1057.225,555.53" style="fill:none;fill-rule:nonzero;stroke:#4A2412;stroke-width:0.75px;"/>
        </g>
        <g transform="matrix(1.333333,0,0,1.333333,50,1831.089288)">
            <path d="M953.995,548.33L1057.225,548.33" style="fill:none;fill-rule:nonzero;stroke:#4A2412;stroke-width:0.75px;"/>
        </g>
        <g transform="matrix(1.333333,0,0,1.333333,50,1849.758417)">
            <path d="M953.995,541.13L1057.225,541.13" style="fill:none;fill-rule:nonzero;stroke:#4A2412;stroke-width:0.75px;"/>
        </g>
        <g transform="matrix(1.333333,0,0,1.333333,50,1868.427545)">
            <path d="M953.995,533.93L1057.225,533.93" style="fill:none;fill-rule:nonzero;stroke:#4A2412;stroke-width:0.75px;"/>
        </g>
        <g transform="matrix(1.333333,0,0,1.333333,50,1887.096674)">
            <path d="M953.995,526.73L1057.225,526.73" style="fill:none;fill-rule:nonzero;stroke:#4A2412;stroke-width:0.75px;"/>
        </g>
        <g transform="matrix(1.333333,0,0,1.333333,50,1905.765803)">
            <path d="M953.995,519.53L1057.225,519.53" style="fill:none;fill-rule:nonzero;stroke:#4A2412;stroke-width:0.75px;"/>
        </g>
        <g transform="matrix(1.333333,0,0,1.333333,50,1924.434931)">
            <path d="M953.995,512.33L1057.225,512.33" style="fill:none;fill-rule:nonzero;stroke:#4A2412;stroke-width:0.75px;"/>
        </g>
        <g transform="matrix(1.333333,0,0,1.333333,50,1943.10406)">
            <path d="M953.995,505.13L1057.225,505.13" style="fill:none;fill-rule:nonzero;stroke:#4A2412;stroke-width:0.75px;"/>
        </g>
        <g transform="matrix(1.333333,0,0,1.333333,50,1961.773189)">
            <path d="M953.995,497.93L1057.225,497.93" style="fill:none;fill-rule:nonzero;stroke:#4A2412;stroke-width:0.75px;"/>
        </g>
        <g transform="matrix(1,0,0,1.773969,0,-2028.647865)">
            <rect x="1321.993" y="2399" width="137.64" height="224.68" style="fill:none;stroke:#4A2412;stroke-width:2.78px;stroke-linecap:round;stroke-linejoin:round;stroke-miterlimit:1.5;"/>
        </g>
    </g>
    <g id="Стенды" transform="matrix(1,0,0,1,31.387577,0)">
        <g transform="matrix(1.049173,0,0,0.977771,-37.542629,33.184106)">
            <rect x="571.327" y="1249.085" width="192.151" height="243.763" style="fill:rgb(255,245,233);stroke:#7A3F1D;stroke-width:4.93px;stroke-linecap:round;stroke-linejoin:round;stroke-miterlimit:1.5;"/>
        </g>
        <path d="M788.57,239.905L788.57,311.145C788.57,316.06 784.579,320.05 779.665,320.05L706.905,320.05C701.99,320.05 698,316.06 698,311.145L698,239.905C698,234.99 701.99,231 706.905,231L779.665,231C784.579,231 788.57,234.99 788.57,239.905Z" style="fill:rgb(255,245,233);stroke:#7A3F1D;stroke-width:2.4px;stroke-linecap:round;stroke-linejoin:round;stroke-miterlimit:1.5;"/>
        <g transform="matrix(1,0,0,4.99096,0,-6707.199148)">
            <path d="M612.152,1682.316L612.152,1769.513C612.152,1770.461 608.31,1771.231 603.578,1771.231L531.57,1771.231C526.838,1771.231 522.996,1770.461 522.996,1769.513L522.996,1682.316C522.996,1681.368 526.838,1680.598 531.57,1680.598L603.578,1680.598C608.31,1680.598 612.152,1681.368 612.152,1682.316Z" style="fill:rgb(255,245,233);stroke:#7A3F1D;stroke-width:1.11px;stroke-linecap:round;stroke-linejoin:round;stroke-miterlimit:1.5;"/>
        </g>
        <g transform="matrix(1,0,0,1,-31.387577,10)">
            <path d="M554.383,1938L643.539,1938" style="fill:none;stroke:rgb(93,63,36);stroke-width:2.4px;stroke-linecap:round;stroke-linejoin:round;stroke-miterlimit:1.5;"/>
        </g>
        <g transform="matrix(1,0,0,1,-31.387577,0)">
            <path d="M554.383,1771.952L643.539,1771.952" style="fill:none;stroke:rgb(93,63,36);stroke-width:2.4px;stroke-linecap:round;stroke-linejoin:round;stroke-miterlimit:1.5;"/>
        </g>
        <g transform="matrix(2.048229,0,0,1,-811.098223,0)">
            <path d="M999,2100.881L999,2200.624C999,2207.178 996.402,2212.5 993.202,2212.5L779.578,2212.5C776.378,2212.5 773.78,2207.178 773.78,2200.624L773.78,2100.881C773.78,2094.326 776.378,2089.005 779.578,2089.005L993.202,2089.005C996.402,2089.005 999,2094.326 999,2100.881Z" style="fill:rgb(255,245,233);stroke:#7A3F1D;stroke-width:2.48px;stroke-linecap:round;stroke-linejoin:round;stroke-miterlimit:1.5;"/>
        </g>
        <g transform="matrix(-1.333308,-0.008217,-0.008217,1.333308,550.614799,-1861.999962)">
            <path d="M129.892,1966.698L234.762,1966.698L235.187,1897.759L128.799,1897.104L129.892,1966.698Z" style="fill:rgb(255,195,119);fill-rule:nonzero;"/>
        </g>
        <g transform="matrix(1.333333,0,0,1.333333,47.197334,303.781937)">
            <path d="M1168.434,1036.814L1168.434,1202.141C1168.434,1212.97 1159.641,1221.763 1148.812,1221.763L984.014,1221.763C973.185,1221.763 964.392,1212.97 964.392,1202.141L964.392,1036.814C964.392,1025.985 973.185,1017.192 984.014,1017.192L1148.812,1017.192C1159.641,1017.192 1168.434,1025.985 1168.434,1036.814Z" style="fill:rgb(255,245,233);stroke:#7A3F1D;stroke-width:2.4px;"/>
        </g>
        <g transform="matrix(1.333333,0,0,1.333333,50,-381.451892)">
            <path d="M928.34,1348.989L928.34,1403.891C928.34,1407.499 925.411,1410.428 921.803,1410.428L730.762,1410.428C727.154,1410.428 724.225,1407.499 724.225,1403.891L724.225,1348.989C724.225,1345.381 727.154,1342.452 730.762,1342.452L921.803,1342.452C925.411,1342.452 928.34,1345.381 928.34,1348.989Z" style="fill:rgb(255,245,233);stroke:#7A3F1D;stroke-width:2.4px;"/>
        </g>
        <g transform="matrix(1.333333,0,0,1.333333,50,-563.152247)">
            <path d="M639.368,1352.61L639.368,1536.546C639.368,1542.041 634.906,1546.503 629.411,1546.503L545.787,1546.503C540.292,1546.503 535.83,1542.041 535.83,1536.546L535.83,1352.61C535.83,1347.115 540.292,1342.653 545.787,1342.653L629.411,1342.653C634.906,1342.653 639.368,1347.115 639.368,1352.61Z" style="fill:rgb(255,245,233);stroke:#7A3F1D;stroke-width:2.4px;"/>
        </g>
        <g transform="matrix(1.333333,0,0,1.333333,50,-775.309527)">
            <path d="M794.467,1462.647L794.467,1585.626C794.467,1589.236 791.535,1592.168 787.925,1592.168L732.978,1592.168C729.368,1592.168 726.436,1589.236 726.436,1585.626L726.436,1462.647C726.436,1459.037 729.368,1456.105 732.978,1456.105L787.925,1456.105C791.535,1456.105 794.467,1459.037 794.467,1462.647Z" style="fill:rgb(255,245,233);stroke:#7A3F1D;stroke-width:2.4px;"/>
        </g>
        <g transform="matrix(1.333333,0,0,1.333333,50,933.23058)">
            <path d="M1085.502,843.181L1085.502,925.187C1085.502,930.576 1081.127,934.951 1075.738,934.951L959.203,934.951C953.814,934.951 949.439,930.576 949.439,925.187L949.439,843.181C949.439,837.792 953.814,833.417 959.203,833.417L1075.738,833.417C1081.127,833.417 1085.502,837.792 1085.502,843.181Z" style="fill:rgb(255,245,233);stroke:#7A3F1D;stroke-width:2.4px;"/>
        </g>
        <g transform="matrix(1.472018,0,0,1.333333,-97.864508,-2576.104677)">
            <path d="M1156.897,2057.014L1156.897,2341.855C1156.897,2347.171 1152.988,2351.486 1148.174,2351.486L1074.911,2351.486C1070.097,2351.486 1066.188,2347.171 1066.188,2341.855L1066.188,2057.014C1066.188,2051.698 1070.097,2047.383 1074.911,2047.383L1148.174,2047.383C1152.988,2047.383 1156.897,2051.698 1156.897,2057.014Z" style="fill:rgb(255,245,233);stroke:#7A3F1D;stroke-width:2.4px;"/>
        </g>
        <g transform="matrix(1.333333,0,0,1.333333,50,-1198.013421)">
            <path d="M1439.104,1600.3L1439.104,1765.002C1439.104,1775.826 1430.317,1784.613 1419.493,1784.613L1253.61,1784.613C1242.786,1784.613 1233.999,1775.826 1233.999,1765.002L1233.999,1600.3C1233.999,1589.476 1242.786,1580.689 1253.61,1580.689L1419.493,1580.689C1430.317,1580.689 1439.104,1589.476 1439.104,1600.3Z" style="fill:rgb(255,245,233);stroke:#7A3F1D;stroke-width:2.4px;"/>
        </g>
        <g transform="matrix(1.333333,0,0,1.333333,50,-472.492403)">
            <path d="M1439.036,1328.221L1439.036,1492.94C1439.036,1503.765 1430.248,1512.553 1419.423,1512.553L1254.104,1512.553C1243.279,1512.553 1234.491,1503.765 1234.491,1492.94L1234.491,1328.221C1234.491,1317.396 1243.279,1308.608 1254.104,1308.608L1419.423,1308.608C1430.248,1308.608 1439.036,1317.396 1439.036,1328.221Z" style="fill:rgb(255,245,233);stroke:#7A3F1D;stroke-width:2.4px;"/>
        </g>
        <g transform="matrix(1.333333,0,0,1.333333,50,342.793127)">
            <path d="M1438.583,988.22L1438.583,1221.476C1438.583,1232.32 1429.779,1241.124 1418.935,1241.124L1253.928,1241.124C1243.084,1241.124 1234.28,1232.32 1234.28,1221.476L1234.28,988.22C1234.28,977.376 1243.084,968.572 1253.928,968.572L1418.935,968.572C1429.779,968.572 1438.583,977.376 1438.583,988.22Z" style="fill:rgb(255,245,233);stroke:#7A3F1D;stroke-width:2.4px;"/>
        </g>
        <g transform="matrix(1.333333,0,0,1.333333,50,251.73555)">
            <path d="M1540.416,1073.765L1540.416,1204.225C1540.416,1206.042 1538.94,1207.518 1537.123,1207.518L1509.466,1207.518C1507.649,1207.518 1506.173,1206.042 1506.173,1204.225L1506.173,1073.765C1506.173,1071.948 1507.649,1070.472 1509.466,1070.472L1537.123,1070.472C1538.94,1070.472 1540.416,1071.948 1540.416,1073.765Z" style="fill:rgb(255,245,233);stroke:#7A3F1D;stroke-width:2.4px;"/>
        </g>
        <g transform="matrix(1.333333,0,0,1.333333,50,-168.528879)">
            <path d="M1541.099,1231.969L1541.099,1361.219C1541.099,1363.036 1539.623,1364.512 1537.806,1364.512L1510.149,1364.512C1508.332,1364.512 1506.856,1363.036 1506.856,1361.219L1506.856,1231.969C1506.856,1230.152 1508.332,1228.676 1510.149,1228.676L1537.806,1228.676C1539.623,1228.676 1541.099,1230.152 1541.099,1231.969Z" style="fill:rgb(255,245,233);stroke:#7A3F1D;stroke-width:2.4px;"/>
        </g>
        <g transform="matrix(1.333333,0,0,1.333333,50,-1139.715969)">
            <path d="M1541.099,1596.164L1541.099,1725.414C1541.099,1727.231 1539.623,1728.707 1537.806,1728.707L1510.149,1728.707C1508.332,1728.707 1506.856,1727.231 1506.856,1725.414L1506.856,1596.164C1506.856,1594.347 1508.332,1592.871 1510.149,1592.871L1537.806,1592.871C1539.623,1592.871 1541.099,1594.347 1541.099,1596.164Z" style="fill:rgb(255,245,233);stroke:#7A3F1D;stroke-width:2.4px;"/>
        </g>
        <g transform="matrix(1.333333,0,0,1.333333,50,-1690.600632)">
            <path d="M1540.807,1802.635L1540.807,1932.106C1540.807,1933.923 1539.331,1935.399 1537.514,1935.399L1509.857,1935.399C1508.04,1935.399 1506.564,1933.923 1506.564,1932.106L1506.564,1802.635C1506.564,1800.818 1508.04,1799.342 1509.857,1799.342L1537.514,1799.342C1539.331,1799.342 1540.807,1800.818 1540.807,1802.635Z" style="fill:rgb(255,245,233);stroke:#7A3F1D;stroke-width:2.4px;"/>
        </g>
        <g transform="matrix(1.333333,0,0,1.333333,50,-718.132475)">
            <path d="M1541.099,1438.07L1541.099,1567.32C1541.099,1569.137 1539.623,1570.613 1537.806,1570.613L1510.149,1570.613C1508.332,1570.613 1506.856,1569.137 1506.856,1567.32L1506.856,1438.07C1506.856,1436.253 1508.332,1434.777 1510.149,1434.777L1537.806,1434.777C1539.623,1434.777 1541.099,1436.253 1541.099,1438.07Z" style="fill:rgb(255,245,233);stroke:#7A3F1D;stroke-width:2.4px;"/>
        </g>
        <g transform="matrix(1.333333,0,0,1.333333,50,978.673101)">
            <path d="M1404.735,839.22L1404.735,893.565C1404.735,897.136 1401.835,900.036 1398.264,900.036L1172.931,900.036C1169.36,900.036 1166.46,897.136 1166.46,893.565L1166.46,839.22C1166.46,835.649 1169.36,832.749 1172.931,832.749L1398.264,832.749C1401.835,832.749 1404.735,835.649 1404.735,839.22Z" style="fill:rgb(255,245,233);stroke:#7A3F1D;stroke-width:2.4px;"/>
        </g>
        <g transform="matrix(1.333333,0,0,1.333333,50,-2150.407983)">
            <path d="M1438.584,1872.391L1438.584,2207.207C1438.584,2218.048 1429.783,2226.849 1418.942,2226.849L1253.985,2226.849C1243.144,2226.849 1234.343,2218.048 1234.343,2207.207L1234.343,1872.391C1234.343,1861.55 1243.144,1852.749 1253.985,1852.749L1418.942,1852.749C1429.783,1852.749 1438.584,1861.55 1438.584,1872.391Z" style="fill:rgb(255,245,233);stroke:#7A3F1D;stroke-width:2.4px;"/>
        </g>
        <g transform="matrix(1.333333,0,0,1.333333,50,344.34646)">
            <path d="M699.637,981.929L699.637,1226.602C699.637,1233.836 693.764,1239.709 686.53,1239.709L576.456,1239.709C569.222,1239.709 563.349,1233.836 563.349,1226.602L563.349,981.929C563.349,974.695 569.222,968.822 576.456,968.822L686.53,968.822C693.764,968.822 699.637,974.695 699.637,981.929Z" style="fill:rgb(255,245,233);stroke:#7A3F1D;stroke-width:2.4px;"/>
        </g>
        <g transform="matrix(1.333333,0,0,1.333333,25.641229,343.85886)">
            <path d="M907.081,981.575L907.081,1227.321C907.081,1234.548 901.214,1240.415 893.987,1240.415L784.014,1240.415C776.787,1240.415 770.92,1234.548 770.92,1227.321L770.92,981.575C770.92,974.348 776.787,968.481 784.014,968.481L893.987,968.481C901.214,968.481 907.081,974.348 907.081,981.575Z" style="fill:rgb(255,245,233);stroke:#7A3F1D;stroke-width:2.4px;"/>
        </g>
        <path d="M724.954,1642.311L724.954,1896.801C724.954,1901.707 720.972,1905.69 716.066,1905.69L641.42,1905.69C636.515,1905.69 632.532,1901.707 632.532,1896.801L632.532,1642.311C632.532,1637.406 636.515,1633.423 641.42,1633.423L716.066,1633.423C720.972,1633.423 724.954,1637.406 724.954,1642.311Z" style="fill:rgb(255,245,233);stroke:#7A3F1D;stroke-width:2.4px;stroke-linecap:round;stroke-linejoin:round;stroke-miterlimit:1.5;"/>
        <g transform="matrix(1.333333,0,0,1.333333,54,2557.669373)">
            <path d="M979.564,77.29L979.564,471.248C979.564,475.123 976.418,478.269 972.543,478.269L913.58,478.269C909.705,478.269 906.559,475.123 906.559,471.248L906.559,77.29C906.559,73.415 909.705,70.269 913.58,70.269L972.543,70.269C976.418,70.269 979.564,73.415 979.564,77.29Z" style="fill:rgb(255,245,233);stroke:#7A3F1D;stroke-width:2.4px;"/>
        </g>
        <g transform="matrix(1.333333,0,0,1.333333,65.459999,1251.646366)">
            <path d="M1163.737,733.134L1163.737,794.922C1163.737,796.6 1162.375,797.962 1160.697,797.962L1135.166,797.962C1133.488,797.962 1132.126,796.6 1132.126,794.922L1132.126,733.134C1132.126,731.456 1133.488,730.094 1135.166,730.094L1160.697,730.094C1162.375,730.094 1163.737,731.456 1163.737,733.134Z" style="fill:rgb(255,245,233);stroke:#7A3F1D;stroke-width:2.4px;"/>
        </g>
        <g transform="matrix(1.333333,0,0,1.333333,50,-2887.769132)">
            <path d="M1506.683,2288.748L1506.683,2343.871C1506.683,2347.493 1503.742,2350.434 1500.12,2350.434L1240.906,2350.434C1237.284,2350.434 1234.343,2347.493 1234.343,2343.871L1234.343,2288.748C1234.343,2285.126 1237.284,2282.185 1240.906,2282.185L1500.12,2282.185C1503.742,2282.185 1506.683,2285.126 1506.683,2288.748Z" style="fill:rgb(255,245,233);stroke:#7A3F1D;stroke-width:2.4px;"/>
        </g>
        <g transform="matrix(1.333333,0,0,0.798215,50,1119.283393)">
            <path d="M80.565,817.8L80.565,1133.442C80.565,1139.356 77.69,1144.158 74.149,1144.158L20.27,1144.158C16.729,1144.158 13.854,1139.356 13.854,1133.442L13.854,817.8C13.854,811.886 16.729,807.084 20.27,807.084L74.149,807.084C77.69,807.084 80.565,811.886 80.565,817.8Z" style="fill:rgb(255,245,233);stroke:#7A3F1D;stroke-width:2.4px;"/>
        </g>
        <g transform="matrix(1.333333,0,0,1.333333,50,147.387842)">
            <path d="M284.613,1150.691L284.613,1205.559C284.613,1209.165 281.686,1212.092 278.08,1212.092L20.142,1212.092C16.536,1212.092 13.609,1209.165 13.609,1205.559L13.609,1150.691C13.609,1147.085 16.536,1144.158 20.142,1144.158L278.08,1144.158C281.686,1144.158 284.613,1147.085 284.613,1150.691Z" style="fill:rgb(255,245,233);stroke:#7A3F1D;stroke-width:2.4px;"/>
        </g>
        <path d="M522.996,2140.557L522.996,2204.496C522.996,2208.698 519.584,2212.109 515.383,2212.109L346.961,2212.109C342.759,2212.109 339.348,2208.698 339.348,2204.496L339.348,2140.557C339.348,2136.355 342.759,2132.943 346.961,2132.943L515.383,2132.943C519.584,2132.943 522.996,2136.355 522.996,2140.557Z" style="fill:rgb(255,245,233);stroke:#7A3F1D;stroke-width:2.4px;stroke-linecap:round;stroke-linejoin:round;stroke-miterlimit:1.5;"/>
        <g transform="matrix(1.333333,0,0,1.333333,50,-2105.971194)">
            <path d="M1540.807,1958.399L1540.807,2087.87C1540.807,2089.687 1539.331,2091.163 1537.514,2091.163L1509.857,2091.163C1508.04,2091.163 1506.564,2089.687 1506.564,2087.87L1506.564,1958.399C1506.564,1956.582 1508.04,1955.106 1509.857,1955.106L1537.514,1955.106C1539.331,1955.106 1540.807,1956.582 1540.807,1958.399Z" style="fill:rgb(255,245,233);stroke:#7A3F1D;stroke-width:2.4px;"/>
        </g>
        <g transform="matrix(1.333333,0,0,1.333333,60,-1972.023889)">
            <path d="M714.411,1947.656L714.411,2013.903C714.411,2015.623 713.014,2017.02 711.294,2017.02L685.111,2017.02C683.391,2017.02 681.994,2015.623 681.994,2013.903L681.994,1947.656C681.994,1945.936 683.391,1944.539 685.111,1944.539L711.294,1944.539C713.014,1944.539 714.411,1945.936 714.411,1947.656Z" style="fill:rgb(255,245,233);stroke:#7A3F1D;stroke-width:2.4px;"/>
        </g>
        <g transform="matrix(1.333333,0,0,1.333333,58,-2712.347048)">
            <path d="M715.595,2097.438L715.595,2388.615C715.595,2392.215 712.673,2395.137 709.073,2395.137L654.302,2395.137C650.702,2395.137 647.78,2392.215 647.78,2388.615L647.78,2097.438C647.78,2093.838 650.702,2090.916 654.302,2090.916L709.073,2090.916C712.673,2090.916 715.595,2093.838 715.595,2097.438Z" style="fill:rgb(255,245,233);stroke:#7A3F1D;stroke-width:2.4px;"/>
        </g>
        <g transform="matrix(1.333333,0,0,1.333333,50,-1865.587788)">
            <path d="M403.494,1905.534L403.494,1960.448C403.494,1964.057 400.564,1966.987 396.955,1966.987L241.286,1966.987C237.677,1966.987 234.747,1964.057 234.747,1960.448L234.747,1905.534C234.747,1901.925 237.677,1898.995 241.286,1898.995L396.955,1898.995C400.564,1898.995 403.494,1901.925 403.494,1905.534Z" style="fill:rgb(255,245,233);stroke:#7A3F1D;stroke-width:2.4px;"/>
        </g>
        <g transform="matrix(1.333333,0,0,1.37711,50,-195.339445)">
            <path d="M278.721,1256.491L278.721,1315.658C278.721,1317.475 277.198,1318.95 275.321,1318.95L246.77,1318.95C244.893,1318.95 243.37,1317.475 243.37,1315.658L243.37,1256.491C243.37,1254.674 244.893,1253.199 246.77,1253.199L275.321,1253.199C277.198,1253.199 278.721,1254.674 278.721,1256.491Z" style="fill:rgb(255,245,233);stroke:#7A3F1D;stroke-width:2.4px;"/>
        </g>
        <g transform="matrix(1.333333,0,0,1.333333,13,-3097.442412)">
            <path d="M588.317,2369.863L588.317,2424.511C588.317,2428.102 585.401,2431.018 581.81,2431.018L118.379,2431.018C114.788,2431.018 111.872,2428.102 111.872,2424.511L111.872,2369.863C111.872,2366.272 114.788,2363.356 118.379,2363.356L581.81,2363.356C585.401,2363.356 588.317,2366.272 588.317,2369.863Z" style="fill:rgb(255,245,233);stroke:#7A3F1D;stroke-width:2.4px;"/>
        </g>
        <g transform="matrix(1.333333,0,0,1.333333,46.693334,-2716.363708)">
            <path d="M1542.896,2156.845L1542.896,2347.97C1542.896,2349.787 1541.42,2351.263 1539.603,2351.263L1511.946,2351.263C1510.129,2351.263 1508.653,2349.787 1508.653,2347.97L1508.653,2156.845C1508.653,2155.028 1510.129,2153.552 1511.946,2153.552L1539.603,2153.552C1541.42,2153.552 1542.896,2155.028 1542.896,2156.845Z" style="fill:rgb(255,245,233);stroke:#7A3F1D;stroke-width:2.4px;"/>
        </g>
        <g transform="matrix(1.333333,0,0,1.333333,50,706.043436)">
            <path d="M1541.162,903.545L1541.162,1033.714C1541.162,1035.531 1539.686,1037.007 1537.869,1037.007L1510.212,1037.007C1508.395,1037.007 1506.919,1035.531 1506.919,1033.714L1506.919,903.545C1506.919,901.728 1508.395,900.252 1510.212,900.252L1537.869,900.252C1539.686,900.252 1541.162,901.728 1541.162,903.545Z" style="fill:rgb(255,245,233);stroke:#7A3F1D;stroke-width:2.4px;"/>
        </g>
        <g transform="matrix(1.333333,0,0,1.333333,50,978.628435)">
            <path d="M1541.439,839.151L1541.439,893.669C1541.439,897.251 1538.53,900.16 1534.948,900.16L1411.226,900.16C1407.644,900.16 1404.735,897.251 1404.735,893.669L1404.735,839.151C1404.735,835.569 1407.644,832.66 1411.226,832.66L1534.948,832.66C1538.53,832.66 1541.439,835.569 1541.439,839.151Z" style="fill:rgb(255,245,233);stroke:#7A3F1D;stroke-width:2.4px;"/>
        </g>
        <g transform="matrix(1.333333,0,0,1.333333,14,-2736.227169)">
            <path d="M111.872,2165.39L111.872,2356.572C111.872,2360.19 108.935,2363.127 105.317,2363.127L50.266,2363.127C46.648,2363.127 43.711,2360.19 43.711,2356.572L43.711,2165.39C43.711,2161.772 46.648,2158.835 50.266,2158.835L105.317,2158.835C108.935,2158.835 111.872,2161.772 111.872,2165.39Z" style="fill:rgb(255,245,233);stroke:#7A3F1D;stroke-width:2.4px;"/>
        </g>
        <g transform="matrix(1.333333,0,0,1.333333,50,-291.453115)">
            <path d="M1166.037,1259.204L1166.037,1426.178C1166.037,1436.157 1157.936,1444.258 1147.957,1444.258L996.115,1444.258C986.136,1444.258 978.035,1436.157 978.035,1426.178L978.035,1259.204C978.035,1249.225 986.136,1241.124 996.115,1241.124L1147.957,1241.124C1157.936,1241.124 1166.037,1249.225 1166.037,1259.204Z" style="fill:rgb(255,245,233);stroke:#7A3F1D;stroke-width:2.4px;"/>
        </g>
        <g transform="matrix(1.333333,0,0,1.333333,50,-1325.697923)">
            <path d="M1166.332,1468.192L1166.332,1992.873C1166.332,1998.257 1161.962,2002.627 1156.578,2002.627L1074.664,2002.627C1069.28,2002.627 1064.91,1998.257 1064.91,1992.873L1064.91,1468.192C1064.91,1462.808 1069.28,1458.438 1074.664,1458.438L1156.578,1458.438C1161.962,1458.438 1166.332,1462.808 1166.332,1468.192Z" style="fill:rgb(255,245,233);stroke:#7A3F1D;stroke-width:2.4px;"/>
        </g>
        <g transform="matrix(1.333333,0,0,1.333333,50,-563.152247)">
            <path d="M639.368,1352.61L639.368,1536.546C639.368,1542.041 634.906,1546.503 629.411,1546.503L545.787,1546.503C540.292,1546.503 535.83,1542.041 535.83,1536.546L535.83,1352.61C535.83,1347.115 540.292,1342.653 545.787,1342.653L629.411,1342.653C634.906,1342.653 639.368,1347.115 639.368,1352.61Z" style="fill:rgb(255,245,233);stroke:#7A3F1D;stroke-width:2.4px;"/>
        </g>
        <g transform="matrix(1.333333,0,0,1.333333,43,1607.012944)">
            <path d="M1180.115,568.395L1180.115,693.136C1180.115,694.829 1178.741,696.203 1177.048,696.203L1151.289,696.203C1149.596,696.203 1148.222,694.829 1148.222,693.136L1148.222,568.395C1148.222,566.702 1149.596,565.328 1151.289,565.328L1177.048,565.328C1178.741,565.328 1180.115,566.702 1180.115,568.395Z" style="fill:rgb(255,245,233);stroke:#7A3F1D;stroke-width:2.4px;"/>
        </g>
        <g transform="matrix(1.244226,0,0,1.382052,-149.576519,-194.073246)">
            <path d="M754,388.4L754,519.6C754,528.651 745.837,536 735.783,536L589.217,536C579.163,536 571,528.651 571,519.6L571,388.4C571,379.349 579.163,372 589.217,372L735.783,372C745.837,372 754,379.349 754,388.4Z" style="fill:rgb(255,245,233);stroke:#7A3F1D;stroke-width:3.04px;stroke-linecap:round;stroke-linejoin:round;stroke-miterlimit:1.5;"/>
        </g>
        <g transform="matrix(1.333333,0,0,1.333333,50,-2657.18959)">
            <path d="M315.92,2216.156L315.92,2243.529C315.92,2245.328 314.46,2246.788 312.661,2246.788L183.065,2246.788C181.266,2246.788 179.806,2245.328 179.806,2243.529L179.806,2216.156C179.806,2214.357 181.266,2212.897 183.065,2212.897L312.661,2212.897C314.46,2212.897 315.92,2214.357 315.92,2216.156Z" style="fill:rgb(255,245,233);stroke:#7A3F1D;stroke-width:2.4px;"/>
        </g>
        <g transform="matrix(1.333333,0,0,1.333333,50,-1862.755255)">
            <path d="M599.29,1904.472L599.29,1959.386C599.29,1962.995 596.36,1965.925 592.751,1965.925L430.9,1965.925C427.291,1965.925 424.361,1962.995 424.361,1959.386L424.361,1904.472C424.361,1900.863 427.291,1897.933 430.9,1897.933L592.751,1897.933C596.36,1897.933 599.29,1900.863 599.29,1904.472Z" style="fill:rgb(255,245,233);stroke:#7A3F1D;stroke-width:2.4px;"/>
        </g>
        <g transform="matrix(1.333333,0,0,1.333333,50,978.637901)">
            <path d="M1541.439,835.995L1541.439,896.818C1541.439,898.662 1539.941,900.16 1538.097,900.16L1510.025,900.16C1508.181,900.16 1506.683,898.662 1506.683,896.818L1506.683,835.995C1506.683,834.151 1508.181,832.653 1510.025,832.653L1538.097,832.653C1539.941,832.653 1541.439,834.151 1541.439,835.995Z" style="fill:rgb(255,245,233);stroke:#7A3F1D;stroke-width:2.4px;"/>
        </g>
        <g transform="matrix(1.333333,0,0,1.333333,42,2368.46582)">
            <path d="M1181.564,219.193L1181.564,471.248C1181.564,475.123 1178.418,478.269 1174.543,478.269L1115.58,478.269C1111.705,478.269 1108.559,475.123 1108.559,471.248L1108.559,219.193C1108.559,215.318 1111.705,212.172 1115.58,212.172L1174.543,212.172C1178.418,212.172 1181.564,215.318 1181.564,219.193Z" style="fill:rgb(255,245,233);stroke:#7A3F1D;stroke-width:2.4px;"/>
        </g>
        <g transform="matrix(1,0,0,1.007507,0,-14.317963)">
            <path d="M632.532,2201.403L632.532,1916.003C632.532,1911.135 636.515,1907.182 641.42,1907.182L716.066,1907.182C720.972,1907.182 724.954,1911.135 724.954,1916.003L724.954,2087.65L761.903,2087.65C768.458,2087.65 773.78,2092.932 773.78,2099.438L773.78,2198.437C773.78,2204.943 768.458,2210.225 761.903,2210.225L641.42,2210.225C636.515,2210.225 632.532,2206.272 632.532,2201.403Z" style="fill:rgb(255,245,233);stroke:#7A3F1D;stroke-width:3.99px;stroke-linecap:round;stroke-linejoin:round;stroke-miterlimit:1.5;"/>
        </g>
        <g transform="matrix(1.333333,0,0,1.333333,50,436.59497)">
            <path d="M562.874,1069.672L700.961,1069.672" style="fill:none;fill-rule:nonzero;stroke:#7A3F1D;stroke-width:2.4px;"/>
        </g>
        <g transform="matrix(1.333333,0,0,1.333333,50,-563.15278)">
            <path d="M535.734,1444.578L639.367,1444.578" style="fill:none;fill-rule:nonzero;stroke:#7A3F1D;stroke-width:2.4px;"/>
        </g>
        <g transform="matrix(1.333333,0,0,1.333333,50,-2014.096951)">
            <path d="M1234.371,1988.682L1438.597,1988.682" style="fill:none;fill-rule:nonzero;stroke:#7A3F1D;stroke-width:2.4px;"/>
        </g>
        <g transform="matrix(1.333333,0,0,1.333333,50,525.308548)">
            <path d="M1234.71,1036.405L1372.028,1036.405" style="fill:none;fill-rule:nonzero;stroke:#7A3F1D;stroke-width:2.4px;"/>
        </g>
        <g transform="matrix(0,1.333333,1.333333,0,-1166.186763,-1672.669169)">
            <path d="M1369.145,2316.717L1440.008,2316.717" style="fill:none;fill-rule:nonzero;stroke:#7A3F1D;stroke-width:2.4px;"/>
        </g>
        <g transform="matrix(0,1.333333,1.333333,0,-93.742764,310.186335)">
            <path d="M1013.301,1169.928L1115.146,1169.928" style="fill:none;fill-rule:nonzero;stroke:#7A3F1D;stroke-width:2.4px;"/>
        </g>
        <g transform="matrix(1.333333,0,0,1.333333,47.197334,308.002469)">
            <path d="M963.882,1117.895L1167.793,1117.895" style="fill:none;fill-rule:nonzero;stroke:#7A3F1D;stroke-width:2.4px;"/>
        </g>
        <g transform="matrix(0,1.333333,1.333333,0,-890.113965,-1210.194552)">
            <path d="M1147.65,2039.762L1521.702,2039.762" style="fill:none;fill-rule:nonzero;stroke:#7A3F1D;stroke-width:2.4px;"/>
        </g>
        <g transform="matrix(0,1.333333,1.333333,0,313.900334,-10.911451)">
            <path d="M1234.385,1138.525L1438.516,1138.525" style="fill:none;fill-rule:nonzero;stroke:#7A3F1D;stroke-width:2.4px;"/>
        </g>
        <g transform="matrix(0,1.333333,1.333333,0,540.137877,124.473848)">
            <path d="M1336.176,1002.916L1404.864,1002.916" style="fill:none;fill-rule:nonzero;stroke:#7A3F1D;stroke-width:2.4px;"/>
        </g>
        <g transform="matrix(1.333333,0,0,1.333333,50,253.243283)">
            <path d="M1234.343,1138.429L1336.463,1138.429" style="fill:none;fill-rule:nonzero;stroke:#7A3F1D;stroke-width:2.4px;"/>
        </g>
        <g transform="matrix(1.333333,0,0,1.333333,50,-1288.646465)">
            <path d="M1234.343,1716.638L1439.104,1716.638" style="fill:none;fill-rule:nonzero;stroke:#7A3F1D;stroke-width:2.4px;"/>
        </g>
        <g transform="matrix(0,1.333333,1.333333,0,-221.967109,818.161408)">
            <path d="M782.698,1019.438L884.765,1019.438" style="fill:none;fill-rule:nonzero;stroke:#7A3F1D;stroke-width:2.4px;"/>
        </g>
        <g transform="matrix(1.333333,0,0,1.333333,50,-2286.649949)">
            <path d="M1333.827,2090.89L1438.584,2090.89" style="fill:none;fill-rule:nonzero;stroke:#7A3F1D;stroke-width:2.4px;"/>
        </g>
        <g transform="matrix(1.333333,0,0,1.333333,50,254.848082)">
            <path d="M563.499,1137.828L631.568,1137.828" style="fill:none;fill-rule:nonzero;stroke:#7A3F1D;stroke-width:2.4px;"/>
        </g>
        <g transform="matrix(1.333333,0,0,1.333333,25.641229,434.464037)">
            <path d="M770.944,1070.472L833.732,1070.472" style="fill:none;fill-rule:nonzero;stroke:#7A3F1D;stroke-width:2.4px;"/>
        </g>
        <g transform="matrix(1.333333,0,0,1.333333,50,344.051526)">
            <path d="M1336.452,1104.376L1438.572,1104.376" style="fill:none;fill-rule:nonzero;stroke:#7A3F1D;stroke-width:2.4px;"/>
        </g>
        <g transform="matrix(0,1.333333,1.333333,0,-2625.764207,-458.049671)">
            <path d="M383.771,2396.951L451.984,2396.951" style="fill:none;fill-rule:nonzero;stroke:#7A3F1D;stroke-width:2.4px;"/>
        </g>
        <g transform="matrix(0,1.333333,1.333333,0,-2214.729967,398.331913)">
            <path d="M200.736,1933.295L268.758,1933.295" style="fill:none;fill-rule:nonzero;stroke:#7A3F1D;stroke-width:2px;"/>
        </g>
        <g transform="matrix(1.333333,0,0,1.333333,50,-722.654607)">
            <path d="M1506.856,1504.391L1540.584,1504.391" style="fill:none;fill-rule:nonzero;stroke:#7A3F1D;stroke-width:2.4px;"/>
        </g>
        <g transform="matrix(1.338576,0,0,1.333333,16.17087,-2735.903703)">
            <path d="M41.918,2260.86L109.812,2260.86" style="fill:none;fill-rule:nonzero;stroke:#7A3F1D;stroke-width:2.4px;"/>
        </g>
        <g transform="matrix(0,1.333333,1.333333,0,-1278.469135,1475.856977)">
            <path d="M147.806,1178.125L215.74,1178.125" style="fill:none;fill-rule:nonzero;stroke:#7A3F1D;stroke-width:2.4px;"/>
        </g>
        <g transform="matrix(0,1.333333,1.333333,0,-321.687974,79.435526)">
            <path d="M962.957,1342.99L1165.491,1342.99" style="fill:none;fill-rule:nonzero;stroke:#7A3F1D;stroke-width:2.4px;"/>
        </g>
        <g transform="matrix(1.333333,0,0,1.333333,50,-290.820315)">
            <path d="M1064.402,1342.453L1166.331,1342.453" style="fill:none;fill-rule:nonzero;stroke:#7A3F1D;stroke-width:2.4px;"/>
        </g>
        <g transform="matrix(0,1.333333,1.333333,0,-2807.191628,-276.516384)">
            <path d="M247.661,2396.911L315.874,2396.911" style="fill:none;fill-rule:nonzero;stroke:#7A3F1D;stroke-width:2.4px;"/>
        </g>
        <g transform="matrix(0,1.333333,1.333333,0,-683.609883,352.157991)">
            <path d="M792.245,1376.44L860.221,1376.44" style="fill:none;fill-rule:nonzero;stroke:#7A3F1D;stroke-width:2.4px;"/>
        </g>
        <g transform="matrix(1.333333,0,0,1.333333,58,-2578.667748)">
            <path d="M647.78,2192.896L714.385,2192.896" style="fill:none;fill-rule:nonzero;stroke:#7A3F1D;stroke-width:2.4px;"/>
        </g>
        <g transform="matrix(1.357173,0,0,1.333333,31.070943,2552.673908)">
            <path d="M907.529,276.143L979.564,276.143" style="fill:none;fill-rule:nonzero;stroke:#7A3F1D;stroke-width:2.4px;"/>
        </g>
        <g transform="matrix(1.333333,0,0,1.333333,54,2740.101327)">
            <path d="M907.847,205.857L979.882,205.857" style="fill:none;fill-rule:nonzero;stroke:#7A3F1D;stroke-width:2.4px;"/>
        </g>
        <g transform="matrix(1.333333,0,0,1.333333,50,1131.395863)">
            <path d="M436.497,809.122L542.835,809.122" style="fill:none;fill-rule:nonzero;stroke:#7A3F1D;stroke-width:2.4px;"/>
        </g>
        <g transform="matrix(1.333333,0,0,1.333333,42,2467.968062)">
            <path d="M1109.326,307.907L1181.361,307.907" style="fill:none;fill-rule:nonzero;stroke:#7A3F1D;stroke-width:2.4px;"/>
        </g>
        <g transform="matrix(1.351287,0,0,1.333333,33.900639,2208.520927)">
            <path d="M909.388,405.2L981.423,405.2" style="fill:none;fill-rule:nonzero;stroke:#7A3F1D;stroke-width:2.4px;"/>
        </g>
        <g transform="matrix(0,1.333333,1.333333,0,-25.666514,-532.572121)">
            <path d="M1353.749,1461.485L1455.722,1461.485" style="fill:none;fill-rule:nonzero;stroke:#7A3F1D;stroke-width:2.4px;"/>
        </g>
        <g transform="matrix(1.333333,0.000012,0.000012,-1.333333,49.987129,3289.053696)">
            <path d="M13.48,1075.109L80.308,1075.109" style="fill:none;fill-rule:nonzero;stroke:#7A3F1D;stroke-width:2.4px;"/>
        </g>
        <g transform="matrix(0,1.333333,1.333333,0,-1860.861789,49.453067)">
            <path d="M464.171,1931.424L532.384,1931.424" style="fill:none;fill-rule:nonzero;stroke:#7A3F1D;stroke-width:2.4px;"/>
        </g>
        <g transform="matrix(0,1.333333,1.333333,0,-2592.919339,-14.557451)">
            <path d="M230.707,2229.95L264.813,2229.95" style="fill:none;fill-rule:nonzero;stroke:#7A3F1D;stroke-width:2.4px;"/>
        </g>
        <g transform="matrix(0,1.333333,1.333333,0,-647.816626,907.695919)">
            <path d="M546.31,1154.691L716.347,1154.691" style="fill:none;fill-rule:nonzero;stroke:#7A3F1D;stroke-width:2.4px;"/>
        </g>
        <g transform="matrix(0,1.333333,1.333333,0,-366.742362,-781.675459)">
            <path d="M1268.435,1682.802L1472.056,1682.802" style="fill:none;fill-rule:nonzero;stroke:#7A3F1D;stroke-width:2.4px;"/>
        </g>
        <g transform="matrix(1.333333,0,0,1.333333,50,-472.250403)">
            <path d="M1234.491,1410.49L1438.584,1410.49" style="fill:none;fill-rule:nonzero;stroke:#7A3F1D;stroke-width:2.4px;"/>
        </g>
        <g transform="matrix(1.333333,0,0,1.333333,25.641229,434.628037)">
            <path d="M831.215,1070.41L905.973,1070.41" style="fill:none;fill-rule:nonzero;stroke:#7A3F1D;stroke-width:2.4px;"/>
        </g>
        <g transform="matrix(1.333333,0,0,1.333333,50,-1319.345924)">
            <path d="M1065.194,1728.15L1166.331,1728.15" style="fill:none;fill-rule:nonzero;stroke:#7A3F1D;stroke-width:2.4px;"/>
        </g>
        <g transform="matrix(1.333333,0,0,1.333333,50,-953.872682)">
            <path d="M1064.938,1591.098L1166.331,1591.098" style="fill:none;fill-rule:nonzero;stroke:#7A3F1D;stroke-width:2.4px;"/>
        </g>
        <g transform="matrix(1.333333,0,0,1.333333,50,-1673.774102)">
            <path d="M1065.852,1861.061L1166.303,1861.061" style="fill:none;fill-rule:nonzero;stroke:#7A3F1D;stroke-width:2.4px;"/>
        </g>
        <g transform="matrix(1.47203,0,0,1.333333,-97.87866,-2540.768819)">
            <path d="M1066.196,2186.184L1156.897,2186.184" style="fill:none;fill-rule:nonzero;stroke:rgb(93,63,36);stroke-width:2.4px;"/>
        </g>
        <path d="M1015.633,2089.005L1015.633,2212.5" style="fill:none;stroke:rgb(93,63,36);stroke-width:2.4px;stroke-linecap:round;stroke-linejoin:round;stroke-miterlimit:1.5;"/>
    </g>
    <g id="номера-стендов" serif:id="номера стендов" transform="matrix(1,0,0,1,31.387577,0)">
        <g transform="matrix(1.333333,0,0,1.333333,2064.104827,2006.240824)">
            <text x="0px" y="0px" style="font-family:'ArialMT', 'Arial', sans-serif;font-size:22.5px;fill:#4A2412;">13</text>
        </g>
        <g transform="matrix(1.333333,0,0,1.333333,1908.64925,1092.521739)">
            <text x="0px" y="0px" style="font-family:'ArialMT', 'Arial', sans-serif;font-size:22.5px;fill:#4A2412;">27</text>
        </g>
        <g transform="matrix(1.333333,0,0,1.333333,2062.687494,1771.951703)">
            <text x="0px" y="0px" style="font-family:'ArialMT', 'Arial', sans-serif;font-size:22.5px;fill:#4A2412;">19</text>
        </g>
        <g transform="matrix(1.345466,0,0,1.333333,2063.64749,1568.450267)">
            <text x="0px" y="0px" style="font-family:'ArialMT', 'Arial', sans-serif;font-size:22.5px;fill:#4A2412;">20</text>
        </g>
        <g transform="matrix(1.333333,0,0,1.333333,2063.94616,1091.967722)">
            <text x="0px" y="0px" style="font-family:'ArialMT', 'Arial', sans-serif;font-size:22.5px;fill:#4A2412;">26</text>
        </g>
        <g transform="matrix(1.333333,0,0,1.333333,1883.031672,734.838475)">
            <text x="0px" y="0px" style="font-family:'ArialMT', 'Arial', sans-serif;font-size:22.5px;fill:#4A2412;">32</text>
        </g>
        <g transform="matrix(1.333333,0,0,1.333333,1753.109975,498.494521)">
            <text x="0px" y="0px" style="font-family:'ArialMT', 'Arial', sans-serif;font-size:22.5px;fill:#4A2412;">36</text>
        </g>
        <g transform="matrix(1.333333,0,0,1.333333,1794.930205,211.997285)">
            <text x="0px" y="0px" style="font-family:'ArialMT', 'Arial', sans-serif;font-size:22.5px;fill:#4A2412;">40</text>
        </g>
        <g transform="matrix(1.3548,0,0,1.333333,1518.908944,913.745097)">
            <text x="0px" y="0px" style="font-family:'ArialMT', 'Arial', sans-serif;font-size:22.5px;fill:#4A2412;">63</text>
        </g>
        <g transform="matrix(1.333333,0,0,1.333333,1518.830288,280.95992)">
            <text x="0px" y="0px" style="font-family:'ArialMT', 'Arial', sans-serif;font-size:22.5px;fill:#4A2412;">60</text>
        </g>
        <g transform="matrix(1.333333,0,0,1.333333,1517.262288,465.351874)">
            <text x="0px" y="0px" style="font-family:'ArialMT', 'Arial', sans-serif;font-size:22.5px;fill:#4A2412;">61</text>
        </g>
        <g transform="matrix(1.333333,0,0,1.333333,1519.032955,734.838475)">
            <text x="0px" y="0px" style="font-family:'ArialMT', 'Arial', sans-serif;font-size:22.5px;fill:#4A2412;">62</text>
        </g>
        <g transform="matrix(1.333333,0,0,1.333333,1520.254288,1091.967722)">
            <text x="0px" y="0px" style="font-family:'ArialMT', 'Arial', sans-serif;font-size:22.5px;fill:#4A2412;">64</text>
        </g>
        <g transform="matrix(1.333333,0,0,1.333333,1815.451874,1343.881476)">
            <text x="0px" y="0px" style="font-family:'ArialMT', 'Arial', sans-serif;font-size:22.5px;fill:#4A2412;">23</text>
        </g>
        <g transform="matrix(1.333333,0,0,1.333333,1518.830288,1250.883692)">
            <text x="0px" y="0px" style="font-family:'ArialMT', 'Arial', sans-serif;font-size:22.5px;fill:#4A2412;">65</text>
        </g>
        <g transform="matrix(1.333333,0,0,1.333333,1890.468191,1907.181536)">
            <text x="0px" y="0px" style="font-family:'ArialMT', 'Arial', sans-serif;font-size:22.5px;fill:#4A2412;">14</text>
        </g>
        <g transform="matrix(1.333333,0,0,1.333333,665.49999,1771.951703)">
            <text x="0px" y="0px" style="font-family:'ArialMT', 'Arial', sans-serif;font-size:22.5px;fill:#4A2412;">84</text>
        </g>
        <g transform="matrix(1.333333,0,0,1.333333,1120.752856,2175.305461)">
            <text x="0px" y="0px" style="font-family:'ArialMT', 'Arial', sans-serif;font-size:22.5px;fill:#4A2412;">80</text>
        </g>
        <g transform="matrix(1.333333,0,0,1.333333,1454.323799,1872.54093)">
            <text x="0px" y="0px" style="font-family:'ArialMT', 'Arial', sans-serif;font-size:22.5px;fill:#4A2412;">71</text>
        </g>
        <g transform="matrix(1.333333,0,0,1.333333,1120.547778,1771.951703)">
            <text x="0px" y="0px" style="font-family:'ArialMT', 'Arial', sans-serif;font-size:22.5px;fill:#4A2412;">78</text>
        </g>
        <g transform="matrix(1.333333,0,0,1.333333,1169.179739,1955.23997)">
            <text x="0px" y="0px" style="font-family:'ArialMT', 'Arial', sans-serif;font-size:22.5px;fill:#4A2412;">77</text>
        </g>
        <g transform="matrix(1.333333,0,0,1.333333,817.749029,1308.945006)">
            <text x="0px" y="0px" style="font-family:'ArialMT', 'Arial', sans-serif;font-size:22.5px;fill:#4A2412;">96</text>
        </g>
        <g transform="matrix(1.333333,0,0,1.333333,1048.127542,1264.40101)">
            <text x="0px" y="0px" style="font-family:'ArialMT', 'Arial', sans-serif;font-size:22.5px;fill:#4A2412;">95</text>
        </g>
        <g transform="matrix(1.333333,0,0,1.333333,1207.220932,1465.067193)">
            <text x="0px" y="0px" style="font-family:'ArialMT', 'Arial', sans-serif;font-size:22.5px;fill:#4A2412;">91</text>
        </g>
        <g transform="matrix(1.333333,0,0,1.333333,817.749029,1465.044527)">
            <text x="0px" y="0px" style="font-family:'ArialMT', 'Arial', sans-serif;font-size:22.5px;fill:#4A2412;">97</text>
        </g>
        <g transform="matrix(1.333333,0,0,1.333333,1881.347097,578.720542)">
            <text x="0px" y="0px" style="font-family:'ArialMT', 'Arial', sans-serif;font-size:22.5px;fill:#4A2412;">35</text>
        </g>
        <g transform="matrix(1.333333,0,0,1.333333,1974.483505,213.453285)">
            <text x="0px" y="0px" style="font-family:'ArialMT', 'Arial', sans-serif;font-size:22.5px;fill:#4A2412;">39</text>
        </g>
        <g transform="matrix(1.2832,0,0,1.333333,1387.263281,2124.221425)">
            <text x="0px" y="0px" style="font-family:'ArialMT', 'Arial', sans-serif;font-size:22.5px;fill:#4A2412;">75</text>
        </g>
        <g transform="matrix(1.333333,0,0,1.333333,1519.615685,1724.865219)">
            <text x="0px" y="0px" style="font-family:'ArialMT', 'Arial', sans-serif;font-size:22.5px;fill:#4A2412;">70</text>
        </g>
        <g transform="matrix(1.333333,0,0,1.333333,1744.678228,1848.182198)">
            <text x="0px" y="0px" style="font-family:'ArialMT', 'Arial', sans-serif;font-size:22.5px;fill:#4A2412;">16</text>
        </g>
        <g transform="matrix(1.333333,0,0,1.333333,1773.403814,1955.606181)">
            <text x="0px" y="0px" style="font-family:'ArialMT', 'Arial', sans-serif;font-size:22.5px;fill:#4A2412;">15</text>
        </g>
        <g transform="matrix(1.333333,0,0,1.333333,1386.214898,1724.865219)">
            <text x="0px" y="0px" style="font-family:'ArialMT', 'Arial', sans-serif;font-size:22.5px;fill:#4A2412;">73</text>
        </g>
        <g transform="matrix(1.333333,0,0,1.333333,1890.402273,1726.848247)">
            <text x="0px" y="0px" style="font-family:'ArialMT', 'Arial', sans-serif;font-size:22.5px;fill:#4A2412;">18</text>
        </g>
        <g transform="matrix(1.345466,0,0,1.333333,2065.636827,1343.881476)">
            <text x="0px" y="0px" style="font-family:'ArialMT', 'Arial', sans-serif;font-size:22.5px;fill:#4A2412;">24</text>
        </g>
        <g transform="matrix(1.333333,0,0,1.333333,1071.959763,1955.606181)">
            <text x="0px" y="0px" style="font-family:'ArialMT', 'Arial', sans-serif;font-size:22.5px;fill:#4A2412;">79</text>
        </g>
        <g transform="matrix(1.1068,0,0,1.333333,1565.008449,2783.332628)">
            <text x="0px" y="0px" style="font-family:'ArialMT', 'Arial', sans-serif;font-size:22.5px;fill:#4A2412;">7</text>
        </g>
        <g transform="matrix(1.194533,0,0,1.333333,1564.655005,2955.263264)">
            <text x="0px" y="0px" style="font-family:'ArialMT', 'Arial', sans-serif;font-size:22.5px;fill:#4A2412;">6</text>
        </g>
        <g transform="matrix(1.1992,0,0,1.333333,1301.376962,3121.891215)">
            <text x="0px" y="0px" style="font-family:'ArialMT', 'Arial', sans-serif;font-size:22.5px;fill:#4A2412;">1</text>
        </g>
        <g transform="matrix(1.333333,0,0,1.333333,828.257167,1724.865219)">
            <text x="0px" y="0px" style="font-family:'ArialMT', 'Arial', sans-serif;font-size:22.5px;fill:#4A2412;">88</text>
        </g>
        <g transform="matrix(1.345466,0,0,1.333333,1744.539564,1725.246079)">
            <text x="0px" y="0px" style="font-family:'ArialMT', 'Arial', sans-serif;font-size:22.5px;fill:#4A2412;">17</text>
        </g>
        <g transform="matrix(1.333333,0,0,1.333333,829.161167,1824.178948)">
            <text x="0px" y="0px" style="font-family:'ArialMT', 'Arial', sans-serif;font-size:22.5px;fill:#4A2412;">86</text>
        </g>
        <g transform="matrix(1.333333,0,0,1.333333,653.68917,1383.003644)">
            <text x="0px" y="0px" style="font-family:'ArialMT', 'Arial', sans-serif;font-size:22.5px;fill:#4A2412;">98</text>
        </g>
        <g transform="matrix(1.333333,0,0,1.333333,540.53987,2049.452813)">
            <text x="0px" y="0px" style="font-family:'ArialMT', 'Arial', sans-serif;font-size:22.5px;fill:#4A2412;">105</text>
        </g>
        <g transform="matrix(1.333333,0,0,1.333333,399.150559,2175.305461)">
            <text x="0px" y="0px" style="font-family:'ArialMT', 'Arial', sans-serif;font-size:22.5px;fill:#4A2412;">106</text>
        </g>
        <g transform="matrix(1.333333,0,0,1.333333,337.641248,1735.724907)">
            <g transform="matrix(22.500006,0,0,22.500006,35.87037,0)">
            </g>
            <text x="0px" y="0px" style="font-family:'ArialMT', 'Arial', sans-serif;font-size:22.5px;fill:#4A2412;">1<tspan x="10.844px 23.357px " y="0px 0px ">18</tspan></text>
        </g>
        <g transform="matrix(1.333333,0,0,1.333333,1774.306952,1093.895718)">
            <text x="0px" y="0px" style="font-family:'ArialMT', 'Arial', sans-serif;font-size:22.5px;fill:#4A2412;">28</text>
        </g>
        <g transform="matrix(1.333333,0,0,1.333333,2063.08216,609.334509)">
            <text x="0px" y="0px" style="font-family:'ArialMT', 'Arial', sans-serif;font-size:22.5px;fill:#4A2412;">34</text>
        </g>
        <g transform="matrix(1.333333,0,0,1.333333,922.457144,1771.585492)">
            <text x="0px" y="0px" style="font-family:'ArialMT', 'Arial', sans-serif;font-size:22.5px;fill:#4A2412;">89</text>
        </g>
        <g transform="matrix(1.150266,0,0,1.333333,969.935844,679.502506)">
            <text x="0px" y="0px" style="font-family:'ArialMT', 'Arial', sans-serif;font-size:22.5px;fill:#4A2412;">131</text>
        </g>
        <g transform="matrix(1.404133,0,0,1.333333,651.618473,429.858555)">
            <text x="0px" y="0px" style="font-family:'ArialMT', 'Arial', sans-serif;font-size:22.5px;fill:#4A2412;">145</text>
        </g>
        <g transform="matrix(1.266933,0,0,1.333333,761.151172,722.089477)">
            <text x="0px" y="0px" style="font-family:'ArialMT', 'Arial', sans-serif;font-size:22.5px;fill:#4A2412;">133</text>
        </g>
        <g transform="matrix(1.333333,0,0,1.333333,542.69319,1735.724907)">
            <text x="0px" y="0px" style="font-family:'ArialMT', 'Arial', sans-serif;font-size:22.5px;fill:#4A2412;">101</text>
        </g>
        <g transform="matrix(1.1992,0,0,1.333333,375.212056,1587.667608)">
            <text x="0px" y="0px" style="font-family:'ArialMT', 'Arial', sans-serif;font-size:22.5px;fill:#4A2412;">100</text>
        </g>
        <g transform="matrix(1.333333,0,0,1.333333,658.79848,105.099981)">
            <text x="0px" y="0px" style="font-family:'ArialMT', 'Arial', sans-serif;font-size:22.5px;fill:#4A2412;">151</text>
        </g>
        <g transform="matrix(1.333333,0,0,1.333333,1881.427664,421.228576)">
            <text x="0px" y="0px" style="font-family:'ArialMT', 'Arial', sans-serif;font-size:22.5px;fill:#4A2412;">37</text>
        </g>
        <g transform="matrix(1.333333,0,0,1.333333,456.061205,105.099981)">
            <text x="0px" y="0px" style="font-family:'ArialMT', 'Arial', sans-serif;font-size:22.5px;fill:#4A2412;">153</text>
        </g>
        <g transform="matrix(1.333333,0,0,1.333333,92.482639,225.827945)">
            <g transform="matrix(22.500006,0,0,22.500006,37.540293,0)">
            </g>
            <text x="0px" y="0px" style="font-family:'ArialMT', 'Arial', sans-serif;font-size:22.5px;fill:#4A2412;">141</text>
        </g>
        <g transform="matrix(1.345466,0,0,1.333333,2063.691491,1250.883692)">
            <text x="0px" y="0px" style="font-family:'ArialMT', 'Arial', sans-serif;font-size:22.5px;fill:#4A2412;">25</text>
        </g>
        <g transform="matrix(1.333333,0,0,1.333333,875.298562,1955.606181)">
            <text x="0px" y="0px" style="font-family:'ArialMT', 'Arial', sans-serif;font-size:22.5px;fill:#4A2412;">85</text>
        </g>
        <g transform="matrix(1.333333,0,0,1.333333,155.974616,1735.724907)">
            <g transform="matrix(22.500006,0,0,22.500006,35.87037,0)">
            </g>
            <text x="0px" y="0px" style="font-family:'ArialMT', 'Arial', sans-serif;font-size:22.5px;fill:#4A2412;">1<tspan x="10.844px 23.357px " y="0px 0px ">16</tspan></text>
        </g>
        <g transform="matrix(1.248666,0,0,1.333333,943.609743,235.058591)">
            <text x="0px" y="0px" style="font-family:'ArialMT', 'Arial', sans-serif;font-size:22.5px;fill:#4A2412;">149</text>
        </g>
        <g transform="matrix(1.1992,0,0,1.333333,1300.84997,2712.06466)">
            <text x="0px" y="0px" style="font-family:'ArialMT', 'Arial', sans-serif;font-size:22.5px;fill:#4A2412;">4</text>
        </g>
        <g transform="matrix(1.333333,0,0,1.333333,1908.295343,969.69443)">
            <text x="0px" y="0px" style="font-family:'ArialMT', 'Arial', sans-serif;font-size:22.5px;fill:#4A2412;">30</text>
        </g>
        <g transform="matrix(1.333333,0,0,1.333333,1774.306952,969.69443)">
            <text x="0px" y="0px" style="font-family:'ArialMT', 'Arial', sans-serif;font-size:22.5px;fill:#4A2412;">29</text>
        </g>
        <g transform="matrix(1.333333,0,0,1.333333,252.001251,105.099981)">
            <text x="0px" y="0px" style="font-family:'ArialMT', 'Arial', sans-serif;font-size:22.5px;fill:#4A2412;">155</text>
        </g>
        <g transform="matrix(1.150266,0,0,1.333333,402.613163,327.098595)">
            <text x="0px" y="0px" style="font-family:'ArialMT', 'Arial', sans-serif;font-size:22.5px;fill:#4A2412;">130</text>
        </g>
        <g transform="matrix(1.333333,0,0,1.333333,1522.638351,1577.590272)">
            <text x="0px" y="0px" style="font-family:'ArialMT', 'Arial', sans-serif;font-size:22.5px;fill:#4A2412;">67</text>
        </g>
        <g transform="matrix(1.333333,0,0,1.333333,1396.507867,1525.191605)">
            <text x="0px" y="0px" style="font-family:'ArialMT', 'Arial', sans-serif;font-size:22.5px;fill:#4A2412;">68</text>
        </g>
        <g transform="matrix(1.333333,0,0,1.333333,1523.426351,1444.790305)">
            <text x="0px" y="0px" style="font-family:'ArialMT', 'Arial', sans-serif;font-size:22.5px;fill:#4A2412;">66</text>
        </g>
        <g transform="matrix(1.333333,0,0,1.333333,1063.588968,1463.732527)">
            <text x="0px" y="0px" style="font-family:'ArialMT', 'Arial', sans-serif;font-size:22.5px;fill:#4A2412;">90</text>
        </g>
        <g transform="matrix(1.333333,0,0,1.333333,2065.767493,814.590458)">
            <text x="0px" y="0px" style="font-family:'ArialMT', 'Arial', sans-serif;font-size:22.5px;fill:#4A2412;">31</text>
        </g>
        <g transform="matrix(1.248666,0,0,1.333333,945.208443,429.858555)">
            <text x="0px" y="0px" style="font-family:'ArialMT', 'Arial', sans-serif;font-size:22.5px;fill:#4A2412;">148</text>
        </g>
        <g transform="matrix(1.1992,0,0,1.333333,1300.415202,2847.54595)">
            <text x="0px" y="0px" style="font-family:'ArialMT', 'Arial', sans-serif;font-size:22.5px;fill:#4A2412;">3</text>
        </g>
        <g transform="matrix(1.333333,0,0,1.333333,1929.323078,1343.881476)">
            <text x="0px" y="0px" style="font-family:'ArialMT', 'Arial', sans-serif;font-size:22.5px;fill:#4A2412;">22</text>
        </g>
        <g transform="matrix(1.333333,0,0,1.333333,1744.678228,2146.150136)">
            <g transform="matrix(22.500006,0,0,22.500006,23.356939,0)">
            </g>
            <text x="0px" y="0px" style="font-family:'ArialMT', 'Arial', sans-serif;font-size:22.5px;fill:#4A2412;">1<tspan x="10.844px " y="0px ">1</tspan></text>
        </g>
        <g transform="matrix(1.333333,0,0,1.333333,91.257316,1949.850019)">
            <g transform="matrix(22.500006,0,0,22.500006,35.87037,0)">
            </g>
            <text x="0px" y="0px" style="font-family:'ArialMT', 'Arial', sans-serif;font-size:22.5px;fill:#4A2412;">1<tspan x="10.844px 23.357px " y="0px 0px ">10</tspan></text>
        </g>
        <g transform="matrix(1.333333,0,0,1.333333,1753.205975,734.838475)">
            <text x="0px" y="0px" style="font-family:'ArialMT', 'Arial', sans-serif;font-size:22.5px;fill:#4A2412;">33</text>
        </g>
        <g transform="matrix(1.333333,0,0,1.333333,2063.883493,336.774577)">
            <text x="0px" y="0px" style="font-family:'ArialMT', 'Arial', sans-serif;font-size:22.5px;fill:#4A2412;">38</text>
        </g>
        <g transform="matrix(1.1992,0,0,1.333333,1300.673164,2981.89126)">
            <text x="0px" y="0px" style="font-family:'ArialMT', 'Arial', sans-serif;font-size:22.5px;fill:#4A2412;">2</text>
        </g>
        <g transform="matrix(1.333333,0,0,1.333333,665.631826,2175.305461)">
            <text x="0px" y="0px" style="font-family:'ArialMT', 'Arial', sans-serif;font-size:22.5px;fill:#4A2412;">82</text>
        </g>
        <g transform="matrix(1.404133,0,0,1.333333,715.993603,285.058601)">
            <text x="0px" y="0px" style="font-family:'ArialMT', 'Arial', sans-serif;font-size:22.5px;fill:#4A2412;">146</text>
        </g>
        <g transform="matrix(1.248666,0,0,1.333333,308.057286,326.575928)">
            <text x="0px" y="0px" style="font-family:'ArialMT', 'Arial', sans-serif;font-size:22.5px;fill:#4A2412;">147</text>
        </g>
        <g transform="matrix(1.333333,0,0,1.333333,540.620436,1868.119525)">
            <text x="0px" y="0px" style="font-family:'ArialMT', 'Arial', sans-serif;font-size:22.5px;fill:#4A2412;">103</text>
        </g>
        <g transform="matrix(1.333333,0,0,1.333333,1974.88884,2149.751469)">
            <text x="0px" y="0px" style="font-family:'ArialMT', 'Arial', sans-serif;font-size:22.5px;fill:#4A2412;">12</text>
        </g>
        <g transform="matrix(1.333333,0,0,1.333333,1587.620378,2457.224714)">
            <text x="0px" y="0px" style="font-family:'ArialMT', 'Arial', sans-serif;font-size:22.5px;fill:#4A2412;">8</text>
        </g>
        <g transform="matrix(1.333333,0,0,1.333333,1578.543622,2282.102105)">
            <text x="0px" y="0px" style="font-family:'ArialMT', 'Arial', sans-serif;font-size:22.5px;fill:#4A2412;">10</text>
        </g>
        <g transform="matrix(1.333333,0,0,1.333333,875.298562,2175.305461)">
            <text x="0px" y="0px" style="font-family:'ArialMT', 'Arial', sans-serif;font-size:22.5px;fill:#4A2412;">81</text>
        </g>
        <g transform="matrix(1.333333,0,0,1.333333,1815.451874,1480.486628)">
            <text x="0px" y="0px" style="font-family:'ArialMT', 'Arial', sans-serif;font-size:22.5px;fill:#4A2412;">21</text>
        </g>
        <g transform="matrix(1.333333,0,0,1.333333,91.257316,1821.98073)">
            <g transform="matrix(22.500006,0,0,22.500006,35.87037,0)">
            </g>
            <text x="0px" y="0px" style="font-family:'ArialMT', 'Arial', sans-serif;font-size:22.5px;fill:#4A2412;">1<tspan x="10.844px 23.357px " y="0px 0px ">12</tspan></text>
        </g>
        <g transform="matrix(1.333333,0,0,1.333333,92.003972,360.766579)">
            <g transform="matrix(22.500006,0,0,22.500006,37.540293,0)">
            </g>
            <text x="0px" y="0px" style="font-family:'ArialMT', 'Arial', sans-serif;font-size:22.5px;fill:#4A2412;">143</text>
        </g>
        <g transform="matrix(1.266933,0,0,1.333333,640.954606,722.089477)">
            <text x="0px" y="0px" style="font-family:'ArialMT', 'Arial', sans-serif;font-size:22.5px;fill:#4A2412;">134</text>
        </g>
    </g>
    <g transform="matrix(1.304367,0,0,1.326678,93.821843,-1018.491793)">
        <path d="M1020.342,3211.799L917.357,3211.799L917.357,2435.401L4.267,2435.401L4.267,803.614L1570.737,803.614L1570.737,2435.401L1197.409,2435.401L1197.176,3211.799L1139.979,3211.799" style="fill:none;fill-rule:nonzero;stroke:#4A2412;stroke-width:8px;"/>
    </g>
    <g transform="matrix(1,0,0,0.760779,53.360937,1327.833694)">
        <rect x="46" y="2327.467" width="134.833" height="108.533" style="fill:rgb(177,170,157);"/>
    </g>
    <g transform="matrix(1,0,0,0.760779,53.387577,941.236147)">
        <rect x="46" y="2327.467" width="134.833" height="108.533" style="fill:rgb(255,195,119);"/>
    </g>
    <g transform="matrix(1,0,0,0.760779,53.360937,1070.101996)">
        <rect x="46" y="2327.467" width="134.833" height="108.533" style="fill:rgb(209,123,120);"/>
    </g>
    <g transform="matrix(1,0,0,0.760779,53.360937,1198.967845)">
        <rect x="46" y="2327.467" width="134.833" height="108.533" style="fill:rgb(255,142,0);"/>
    </g>
    <g transform="matrix(1,0,0,0.760779,53.360937,508.948052)">
        <path d="M180.833,2338.321L180.833,2425.147C180.833,2431.137 177.133,2436 172.576,2436L54.257,2436C49.7,2436 46,2431.137 46,2425.147L46,2338.321C46,2332.331 49.7,2327.467 54.257,2327.467L172.576,2327.467C177.133,2327.467 180.833,2332.331 180.833,2338.321Z" style="fill:rgb(255,245,233);stroke:rgb(93,63,36);stroke-width:4.5px;stroke-linecap:round;stroke-linejoin:round;stroke-miterlimit:1.5;"/>
    </g>
    <g transform="matrix(1,0,0,1,31.387577,-225.668235)">
        <g transform="matrix(1,0,0,1,21.973359,381)">
            <rect x="46" y="2327.467" width="134.833" height="108.533" style="fill:none;stroke:#4A2412;stroke-width:2.4px;stroke-linecap:round;stroke-linejoin:round;stroke-miterlimit:1.5;"/>
        </g>
        <g transform="matrix(-0,1,-1.242083,-0,3566.947689,2641.733748)">
            <path d="M85,2708.467L85,2817" style="fill:none;stroke:#4A2412;stroke-width:3.55px;stroke-linecap:round;stroke-linejoin:round;stroke-miterlimit:1.5;"/>
        </g>
        <g transform="matrix(-0,1,-1.242083,-0,3566.947689,2659.602766)">
            <path d="M85,2708.467L85,2817" style="fill:none;stroke:#4A2412;stroke-width:3.55px;stroke-linecap:round;stroke-linejoin:round;stroke-miterlimit:1.5;"/>
        </g>
        <g transform="matrix(-0,1,-1.242083,-0,3566.947689,2677.471785)">
            <path d="M85,2708.467L85,2817" style="fill:none;stroke:#4A2412;stroke-width:3.55px;stroke-linecap:round;stroke-linejoin:round;stroke-miterlimit:1.5;"/>
        </g>
        <g transform="matrix(-0,1,-1.242083,-0,3566.947689,2695.340803)">
            <path d="M85,2708.467L85,2817" style="fill:none;stroke:#4A2412;stroke-width:3.55px;stroke-linecap:round;stroke-linejoin:round;stroke-miterlimit:1.5;"/>
        </g>
        <g transform="matrix(-0,1,-1.242083,-0,3566.947689,2713.209822)">
            <path d="M85,2708.467L85,2817" style="fill:none;stroke:#4A2412;stroke-width:3.55px;stroke-linecap:round;stroke-linejoin:round;stroke-miterlimit:1.5;"/>
        </g>
    </g>
    <g transform="matrix(1,0,0,1,31.387577,-100.49732)">
        <path d="M101.882,2527.9L109.425,2537L68,2523L109.425,2509L101.882,2518.1L202.806,2518.1L202.806,2527.9L101.882,2527.9Z" style="fill:rgb(255,142,0);"/>
    </g>
    <g transform="matrix(0,1,-1,0,3945.200575,2306.043742)">
        <path d="M101.882,2527.9L109.425,2537L68,2523L109.425,2509L101.882,2518.1L202.806,2518.1L202.806,2527.9L101.882,2527.9Z" style="fill:rgb(255,142,0);"/>
    </g>
    <g transform="matrix(1,0,0,1,31.387577,128.628346)">
        <path d="M101.882,2527.9L109.425,2537L68,2523L109.425,2509L101.882,2518.1L202.806,2518.1L202.806,2527.9L101.882,2527.9Z" style="fill:rgb(0,192,255);"/>
    </g>
    <g transform="matrix(1,0,0,1,31.387577,718.388322)">
        <path d="M101.882,2527.9L109.425,2537L68,2523L109.425,2509L101.882,2518.1L202.806,2518.1L202.806,2527.9L101.882,2527.9Z" style="fill:rgb(0,191,78);"/>
    </g>
    <g transform="matrix(0,1,-1,0,4023.352489,3100.964838)">
        <path d="M101.882,2527.9L109.425,2537L68,2523L109.425,2509L101.882,2518.1L202.806,2518.1L202.806,2527.9L101.882,2527.9Z" style="fill:rgb(0,191,78);"/>
    </g>
    <g transform="matrix(-1,0,0,1,1298.129031,-1145.149848)">
        <path d="M101.882,2527.9L109.425,2537L68,2523L109.425,2509L101.882,2518.1L202.806,2518.1L202.806,2527.9L101.882,2527.9Z" style="fill:rgb(0,192,255);"/>
    </g>
    <g transform="matrix(1.333333,0,0,1.333333,266.846711,3146.680525)">
        <g transform="matrix(22.500006,0,0,22.500006,304.727859,0)">
        </g>
        <text x="0px" y="0px" style="font-family:'ArialMT', 'Arial', sans-serif;font-size:22.5px;fill:#4A2412;">С<tspan x="15.502px 30.267px " y="0px 0px ">ЛУ</tspan>ЖЕБНЫЕ ПОМЕЩЕНИЯ</text>
    </g>
    <g transform="matrix(1.333333,0,0,1.333333,266.846711,3246.680525)">
        <g transform="matrix(22.500006,0,0,22.500006,347.970058,0)">
        </g>
        <text x="0px" y="0px" style="font-family:'ArialMT', 'Arial', sans-serif;font-size:22.5px;fill:#4A2412;">В<tspan x="14.019px 28.279px 45.286px 60.524px " y="0px 0px 0px 0px ">ХОД </tspan>В ВЫС<tspan x="138.461px 151.458px 166.465px 180.725px 197.732px 212.728px " y="0px 0px 0px 0px 0px 0px ">ТАВОЧН</tspan>ЫЙ ЦЕНТР</text>
    </g>
    <g transform="matrix(1.333333,0,0,1.333333,266.143586,2433.810635)">
        <g transform="matrix(22.500006,0,0,22.500006,399.79258,0)">
        </g>
        <text x="0px" y="0px" style="font-family:'ArialMT', 'Arial', sans-serif;font-size:22.5px;fill:#4A2412;">В<tspan x="14.019px 28.279px 45.286px 60.524px " y="0px 0px 0px 0px ">ХОД </tspan>В К<tspan x="100.887px 118.389px " y="0px 0px ">ОН</tspan>ФЕРЕНЦ ЗА<tspan x="265.001px 279.767px " y="0px 0px ">Л </tspan>МОР<tspan x="337.017px 353.265px 366.119px 383.621px " y="0px 0px 0px 0px ">СКОЙ</tspan></text>
    </g>
    <g transform="matrix(1.333333,0,0,1.333333,266.143586,2659.483814)">
        <g transform="matrix(22.500006,0,0,22.500006,193.502246,0)">
        </g>
        <text x="0px" y="0px" style="font-family:'ArialMT', 'Arial', sans-serif;font-size:22.5px;fill:#4A2412;">В<tspan x="14.019px 28.279px 45.286px 60.524px " y="0px 0px 0px 0px ">ХОД </tspan>В ТУ<tspan x="114.565px 130.067px 144.833px " y="0px 0px 0px ">АЛЕ</tspan>ТЫ</text>
    </g>
    <g transform="matrix(1.333333,0,0,1.333333,266.143586,2330.156599)">
        <g transform="matrix(22.500006,0,0,22.500006,252.740542,0)">
        </g>
        <text x="0px" y="0px" style="font-family:'ArialMT', 'Arial', sans-serif;font-size:22.5px;fill:#4A2412;">С<tspan x="15.502px 29.246px " y="0px 0px ">ТЕ</tspan>НДЫ УЧА<tspan x="145.712px 161.213px 174.957px " y="0px 0px 0px ">СТН</tspan>ИК<tspan x="220.232px 237.733px " y="0px 0px ">ОВ</tspan></text>
    </g>
    <g transform="matrix(1.333333,0,0,1.333333,266.143586,2762.680525)">
        <g transform="matrix(22.500006,0,0,22.500006,471.500362,0)">
        </g>
        <text x="0px" y="0px" style="font-family:'ArialMT', 'Arial', sans-serif;font-size:22.5px;fill:#4A2412;">СЦЕНА ФЕС<tspan x="133.022px 146.766px 162.938px 177.199px 192.7px 207.466px " y="0px 0px 0px 0px 0px 0px ">ТИВАЛЯ</tspan> &quot;МОРЕ ПИВ<tspan x="357.067px 372.074px " y="0px 0px ">А </tspan>В С<tspan x="415.338px 432.345px 447.341px " y="0px 0px 0px ">ОЧИ</tspan>&quot;</text>
    </g>
    <g transform="matrix(1.333333,0,0,1.333333,266.143586,3018.680525)">
        <g transform="matrix(22.500006,0,0,22.500006,255.871646,0)">
        </g>
        <text x="0px" y="0px" style="font-family:'ArialMT', 'Arial', sans-serif;font-size:22.5px;fill:#4A2412;">ОРГК<tspan x="57.546px 75.048px " y="0px 0px ">ОМ</tspan>ИТЕТ ФОР<tspan x="207.828px 222.122px " y="0px 0px ">УМ</tspan>А</text>
    </g>
    <g transform="matrix(1.333333,0,0,1.333333,266.143586,2885.680525)">
        <g transform="matrix(22.500006,0,0,22.500006,350.738613,0)">
        </g>
        <text x="0px" y="0px" style="font-family:'ArialMT', 'Arial', sans-serif;font-size:22.5px;fill:#4A2412;">ДЕГУС<tspan x="72.224px 85.221px 100.228px " y="0px 0px 0px ">ТАЦ</tspan>ИОННАЯ К<tspan x="233.405px 250.906px " y="0px 0px ">ОМ</tspan>ИССИЯ</text>
    </g>
    <g transform="matrix(1.333333,0,0,1.333333,268.07718,2546.783575)">
        <g transform="matrix(22.500006,0,0,22.500006,379.379978,0)">
        </g>
        <text x="0px" y="0px" style="font-family:'ArialMT', 'Arial', sans-serif;font-size:22.5px;fill:#4A2412;">ЛЕС<tspan x="45.275px 59.019px " y="0px 0px ">ТН</tspan>ИЦА НА 2 ЭТ<tspan x="214.783px 229.79px " y="0px 0px ">АЖ</tspan> УР<tspan x="285.623px 303.124px " y="0px 0px ">ОВ</tspan>НЯ С</text>
    </g>
</svg>
