<?xml version="1.0" encoding="UTF-8"?>
<!DOCTYPE svg PUBLIC "-//W3C//DTD SVG 1.1//EN" "http://www.w3.org/Graphics/SVG/1.1/DTD/svg11.dtd">
<!-- Creator: CorelDRAW 2017 -->
<svg xmlns="http://www.w3.org/2000/svg" xml:space="preserve" width="200px" height="100px" version="1.1" style="shape-rendering:geometricPrecision; text-rendering:geometricPrecision; image-rendering:optimizeQuality; fill-rule:evenodd; clip-rule:evenodd"
viewBox="0 0 20000 10000"
 xmlns:xlink="http://www.w3.org/1999/xlink">
 <defs>
  <style type="text/css">
   <![CDATA[
    .fil0 {fill:none}
    .fil1 {fill:#5B1C17}
    .fil2 {fill:#EEB560}
   ]]>
  </style>
    <clipPath id="id0">
     <path d="M2676 9928l14474 0 0 -9725 -14474 0 0 9725z"/>
    </clipPath>
 </defs>
 <g id="Слой_x0020_1">
  <metadata id="CorelCorpID_0Corel-Layer"/>
  <g id="_2218971271952">
   <rect id="canvas_background" class="fil0" x="-115567" y="-80261" width="902222" height="623184"/>
  </g>
  <g id="_2218971269040">
   <g>
   </g>
   <g style="clip-path:url(#id0)">
    <g id="_2218971271824">
     <path class="fil1" d="M3967 6599l0 527c201,0 462,-13 462,-274 0,-34 -8,-67 -22,-98 -14,-30 -35,-58 -61,-79 -92,-85 -259,-76 -379,-76l0 0 0 0zm-1291 1930l0 -493 134 0c47,5 93,-4 134,-26 14,-15 24,-33 30,-53 6,-20 8,-41 5,-61l0 -1195c0,-61 -12,-100 -35,-116 -41,-21 -88,-29 -134,-25l-134 0 0 -492 1222 0c617,0 1632,-2 1632,830 0,635 -720,766 -1215,766l-348 0 0 232c-4,39 7,78 31,109 41,26 90,38 138,31l313 0 0 493 -1773 0 0 0zm5689 -2461l1055 1339 27 0 0 -710c2,-36 -5,-72 -20,-105 -14,-24 -61,-35 -140,-35l-130 0 0 -489 1140 0 0 489 -130 0c-71,0 -115,10 -133,31 -17,18 -27,42 -28,67l0 1874 -849 0 -1041 -1319 -31 0 0 691 -560 0 0 -1204c2,-36 -5,-72 -20,-105 -14,-23 -61,-35 -140,-35l-130 0 0 -489 1130 0zm2630 2461l3 -493 183 0c82,0 130,-11 144,-35 16,-30 23,-64 21,-98l0 -1259 -169 0c-66,-5 -132,3 -194,25 -29,20 -50,50 -57,84 0,3 -1,5 -2,7 -1,2 -2,5 -2,7l-55 208 -482 0 28 -907 2857 0 24 907 -482 0 -52 -208c-1,-19 -7,-37 -16,-54 -9,-16 -22,-31 -37,-43 -64,-23 -133,-32 -201,-26l-169 0 0 1251c-3,21 -1,42 5,61 6,20 16,38 29,54 42,21 88,31 135,26l179 0 0 492 -1690 1 0 0zm4135 -1178l-241 -647 -34 0 -269 647 544 0zm517 -1283l654 1757c2,7 5,14 7,22 3,7 6,14 10,21 17,51 48,96 88,132l5 3 0 526 -1288 0 0 -493 131 0c25,1 50,-1 74,-5 22,-3 33,-14 33,-33l0 -7c-2,-2 -3,-4 -3,-5l0 -2 -21 -81 -981 0 -18 46c-2,7 -4,13 -7,21 -2,7 -3,14 -3,21 0,5 1,9 3,14 3,5 7,9 11,13 11,7 23,11 36,13 30,4 61,6 91,5l45 0 0 492 -882 0 0 -616c20,-25 37,-52 52,-80 4,-12 10,-23 15,-35 6,-12 11,-24 16,-35l430 -1037c3,-6 5,-12 7,-18 2,-6 6,-12 10,-17l0 -4c7,-14 14,-29 19,-44 6,-13 9,-26 9,-40 0,-8 -2,-15 -6,-21 -5,-6 -11,-11 -18,-13 -22,-6 -46,-9 -69,-8l-172 0 0 -492 1722 0 0 0zm-11009 1968l562 0 0 493 -562 0 0 -493zm5581 0l562 0 0 493 -562 0 0 -493zm-2694 0l561 0 0 493 -561 0 0 -493zm5350 0l562 0 0 493 -562 0 0 -493zm3713 0l562 0 0 493 -562 0 0 -493zm-9987 -4429l211 4289 0 3c-1,34 6,68 21,99 14,26 62,39 145,38l353 0 0 493 -1946 0 0 -493 353 0c46,5 93,-4 134,-26 23,-17 32,-56 35,-114l212 -4298c154,64 326,67 482,9zm107 -1168l751 -969 920 -1185c132,99 258,207 375,323 31,32 61,63 91,96l-448 402c115,124 219,257 309,399l511 -320c35,55 68,110 100,167l-528 292c45,81 87,164 123,250l-124 61c-35,-83 -75,-165 -120,-244l-570 315 -35 20c39,70 74,142 104,217l-125 62c-29,-73 -62,-144 -100,-212l-1010 558c-7,-13 -15,-26 -23,-38l977 -613c-61,-95 -131,-184 -208,-265l-858 771c-34,-33 -72,-62 -112,-87l0 0zm193 917l1072 838 1075 840c-91,118 -189,230 -294,335 -37,38 -76,74 -114,109l-401 -449c-119,108 -246,206 -381,292l318 512c-53,33 -107,65 -161,96l-289 -529c-65,37 -131,70 -197,101l-64 -123c66,-30 130,-63 194,-99l-246 -449 -86 -157c-59,33 -120,63 -182,90l-63 -123c61,-26 121,-56 178,-89l-554 -1011c11,-6 21,-13 31,-20l609 979c88,-57 171,-121 248,-193l-768 -860 1 -1c28,-28 53,-57 75,-89l-1 0zm-900 161l-731 1163 -718 1143c-168,-108 -327,-231 -473,-367l405 -445c-23,-22 -46,-44 -69,-67 -90,-90 -173,-184 -249,-285l-476 369c-38,-49 -74,-99 -109,-150l496 -342c-48,-72 -93,-145 -134,-220l116 -76c40,74 84,146 132,217l388 -268 181 -125c-43,-65 -83,-132 -118,-202l117 -76c34,69 72,136 115,200l949 -656c7,10 13,20 20,30l-912 706c52,68 108,133 168,193 13,13 25,25 38,37l776 -852 2 1c26,26 55,50 86,72l0 0zm-958 881l-57 62 -409 449c-22,-21 -44,-42 -65,-63 -85,-85 -164,-176 -237,-272l449 -348 98 -75c54,73 114,142 179,206 14,14 28,28 42,41l0 0 0 0zm2643 12l38 43 422 472c-112,104 -233,197 -362,279l-320 -515 -45 -73c95,-60 184,-130 267,-206l0 0zm94 -2748c83,88 158,183 223,284l585 -367c-86,-135 -185,-262 -294,-380l-514 463zm-4947 7323l7516 0c-31,25 -59,54 -84,86 -6,9 -14,20 -25,35 -12,18 -23,37 -32,58 -19,39 -34,80 -46,122 -14,54 -21,110 -21,166 -1,70 8,140 28,207 15,48 35,95 61,139 5,9 10,16 14,23 5,6 10,12 14,19 22,28 46,54 73,76l-7655 0 0 -931 157 0z"/>
     <path class="fil2" d="M16295 9907l2 -182 68 0c30,0 48,-4 53,-13 6,-11 9,-24 8,-36l0 -466 -63 0c-24,-2 -49,1 -72,9 -11,8 -18,19 -21,32 0,1 0,1 -1,2 0,1 0,2 0,3l-21 76 -179 0 10 -335 1061 0 9 335 -179 0 -19 -76c-1,-7 -3,-14 -6,-20 -4,-6 -8,-12 -14,-16 -24,-9 -49,-12 -75,-10l-62 0 0 463c-1,8 -1,15 1,23 3,7 6,14 12,19 15,8 32,12 49,10l67 0 0 182 -628 0 0 0zm-1387 0l0 -182 55 0c14,1 28,-2 41,-6 11,-5 17,-20 17,-46l0 -442c0,-26 -6,-41 -17,-45 -13,-5 -27,-7 -41,-7l-55 0 0 -182 939 0 0 308 -181 0 -12 -56c-1,-8 -5,-16 -11,-22 -6,-7 -13,-11 -21,-12 -21,-4 -42,-5 -63,-5l-171 0 0 129 235 0 0 213 -235 0 0 119c-1,13 1,27 7,40 5,9 24,14 55,14l68 0 0 182 -610 0 0 0zm-812 -435l-89 -240 -13 0 -100 240 202 0zm192 -475l243 650c1,2 2,5 2,8 1,2 3,5 4,7 7,19 18,36 33,49 17,11 37,15 57,14l25 0 0 182 -558 0 0 -182 48 0c9,0 19,-1 28,-2 8,-1 12,-5 12,-12l0 -3c-1,-1 -1,-1 -1,-2l0 0 -8 -30 -364 0 -7 17c-1,2 -2,5 -2,7 -1,3 -2,6 -2,8 0,2 1,4 2,5 1,2 2,4 3,6 5,2 9,3 14,4 11,2 22,2 34,2l16 0 0 182 -445 0 0 -182 27 0c26,2 52,-7 71,-24 16,-15 29,-32 39,-51 2,-5 4,-9 6,-13 2,-5 4,-9 6,-13l160 -384c0,-2 1,-4 2,-6 1,-3 2,-5 4,-7l0 -1c3,-5 5,-11 7,-17 2,-4 3,-9 3,-15 0,-2 -1,-5 -2,-7 -2,-2 -4,-4 -7,-5 -8,-2 -17,-3 -26,-3l-63 0 0 -182 639 0 0 0zm-1785 200l0 166 38 0c34,3 67,-3 98,-16 17,-8 31,-21 40,-37 3,-5 5,-10 6,-15 0,-4 1,-9 1,-14 1,-11 -1,-23 -5,-33 -5,-11 -12,-20 -21,-26 -18,-12 -38,-19 -59,-23 -10,-1 -20,-2 -30,-2l-68 0 0 0 0 0zm-478 -200l635 -2c107,-8 214,11 312,56 52,27 95,70 120,124 7,15 12,31 14,48 2,14 3,29 3,44 1,24 -2,47 -11,69 -8,22 -21,43 -37,60 -30,32 -66,57 -107,75l147 209c9,11 19,20 30,28 12,7 24,12 37,15 4,0 8,1 12,1 4,1 8,1 12,1l4 0 0 182 -560 0 0 -182c1,0 3,0 4,-1 2,0 3,0 4,0 11,-1 21,-4 32,-8 4,-2 8,-5 10,-10 2,-4 3,-9 2,-13 0,-7 -2,-14 -5,-20 -6,-14 -15,-28 -24,-40l-51 -74 -105 0 0 132c1,9 5,18 12,24 13,8 28,12 43,10l3 0 0 182 -536 0 0 -182 50 0c30,0 47,-4 52,-13 5,-10 8,-20 8,-31l0 -12c0,-1 0,-3 0,-4 1,-2 1,-3 1,-5l0 -417c0,-2 0,-3 -1,-4 0,-2 0,-3 0,-4l0 -12c0,-11 -3,-22 -8,-31 -5,-9 -22,-13 -52,-13l-50 0 0 -182 0 0zm-5942 -6296c57,-56 130,-95 209,-111 79,-16 160,-8 235,23 74,31 138,83 183,150 44,67 68,145 68,226 0,80 -24,159 -68,226 -45,67 -109,119 -183,150 -75,30 -156,38 -235,23 -79,-16 -152,-55 -209,-111 -38,-38 -68,-83 -88,-132 -21,-50 -31,-103 -31,-156 0,-53 10,-106 31,-156 20,-49 50,-94 88,-132l0 0zm-1668 -1666c86,-87 179,-168 276,-243l-369 -476c51,-39 103,-77 156,-113l343 496c77,-52 156,-100 238,-144l72 118c-80,43 -157,89 -232,140l349 503 45 65c64,-42 130,-81 198,-116l72 118c-66,34 -130,71 -192,112l656 948c-12,8 -24,16 -35,24l-707 -910c-66,50 -128,104 -186,162 -20,20 -40,41 -59,62l853 775c-31,35 -58,72 -81,112l-1055 -662 -1254 -786c109,-176 235,-342 375,-496l446 405c29,-32 59,-63 91,-94l0 0zm361 -133c-93,71 -181,148 -264,230 -29,30 -58,60 -86,91l512 465c20,-23 42,-45 63,-67 63,-62 129,-120 199,-173l-424 -546 0 0zm6534 8641l436 0c-4,55 -21,109 -49,157 -29,47 -68,88 -114,118 -123,80 -268,118 -415,110 -25,0 -50,-1 -75,-3 -26,-2 -52,-5 -78,-10 -57,-9 -112,-26 -164,-49 -52,-23 -99,-56 -138,-97 -4,-6 -9,-11 -14,-16 -5,-5 -9,-11 -14,-18 -25,-35 -46,-74 -61,-114 -20,-54 -29,-111 -28,-169 0,-46 7,-92 21,-135 12,-35 28,-68 46,-100 9,-16 20,-32 33,-47 10,-12 18,-21 24,-28 39,-42 86,-75 137,-100 50,-24 103,-42 158,-54 24,-5 49,-9 74,-11 24,-2 48,-3 71,-3 141,-4 279,33 398,107 48,26 89,63 119,109 29,46 46,99 48,153l-418 0c3,-35 -6,-71 -24,-101 -13,-19 -31,-35 -53,-44 -9,-4 -19,-7 -30,-9 -8,-1 -17,-2 -26,-2l-17 0c-6,0 -12,1 -17,1 -15,3 -28,8 -41,16 -12,8 -23,18 -31,30 -27,53 -38,113 -32,173l0 86c-1,54 7,108 24,159 8,21 24,39 44,50 19,12 42,17 65,14 20,1 40,-2 58,-9 19,-8 35,-20 48,-35 26,-38 38,-83 35,-129l0 0z"/>
    </g>
   </g>
   <polygon class="fil0" points="2676,9928 17150,9928 17150,203 2676,203 "/>
  </g>
 </g>
</svg>
