<?xml version="1.0" encoding="UTF-8"?> <svg xmlns="http://www.w3.org/2000/svg" xmlns:xlink="http://www.w3.org/1999/xlink" xmlns:xodm="http://www.corel.com/coreldraw/odm/2003" xml:space="preserve" width="30.4798mm" height="24.5532mm" version="1.1" style="shape-rendering:geometricPrecision; text-rendering:geometricPrecision; image-rendering:optimizeQuality; fill-rule:evenodd; clip-rule:evenodd" viewBox="0 0 3047.98 2455.32"> <defs> <style type="text/css"> .fil0 {fill:none} .fil1 {fill:#023273} .fil3 {fill:#FDDE96} .fil4 {fill:#FDF3C7} .fil2 {fill:#FEB202} </style> <clipPath id="id0"> <path d="M2690.44 288.02l-2332.9 0 0 1879.28 2332.9 0 0 -1879.28z"></path> </clipPath> </defs> <g id="Слой_x0020_1"> <metadata id="CorelCorpID_0Corel-Layer"></metadata> <rect class="fil0" x="-0.02" y="-0" width="3047.99" height="2455.33"></rect> <g> </g> <g style="clip-path:url(#id0)"> <g id="_2577045048416"> <g> <g id="_1546558767904"> <path class="fil1" d="M2084.96 1006.5c-111.83,-11.97 -144.56,24.21 -162.05,122.9l-45.86 0.03 -12.59 61.74 44.19 0.03c-3.93,33.97 -14.85,74.37 -22.11,108.5 -4.65,21.81 -21.98,90.34 -21.1,108.15l83.53 -0.91 45.87 -215.73 80.83 -0.06c-4.61,49.45 -30.83,113.96 -30.9,160.96 -0.11,81.77 119.61,58.18 127.9,50.06 9.73,-11.32 11.29,-40.33 14.01,-57.52 -18.55,1.6 -41.09,5.53 -50.73,-5.85 -8.75,-18.98 20.34,-118 24.36,-147.36l62.15 -1.03 12.26 -60.71 -60.65 -0.89 18.01 -82.31 -84.02 -0.21 -19.3 83.07 -80.29 0.1c8.85,-68.17 28.25,-60.23 62.6,-60.63l13.89 -62.3 0 -0.03z"></path> <path class="fil1" d="M879.27 1278.58c-23.49,105.25 -159.78,93.78 -132.99,-22.21 22.97,-99.4 159.74,-97.61 132.99,22.21zm-80.29 -154.23c-81.66,14.13 -139.53,69.59 -141.45,159.86 -2.04,96.53 72.7,143.32 172.08,128.55 80.61,-11.99 139.36,-71.06 140.57,-159.57 1.28,-93.94 -73.61,-145.73 -171.22,-128.83l0.02 -0.01z"></path> <path class="fil1" d="M1753.42 1264.44c-6.05,42.76 -27.18,79.49 -68.96,84.9 -52.26,6.76 -74.87,-30.25 -68.48,-80.25 14.04,-110.05 152.63,-111.83 137.44,-4.65zm87.07 8.48c11.42,-98.51 -50.26,-154.15 -147.51,-150.69 -89.72,3.2 -150.19,59.03 -162.08,141.5 -14.36,99.71 51.26,155.27 148.08,151.08 89.21,-3.85 151.84,-58.6 161.5,-141.9l0.01 0.01z"></path> <path class="fil1" d="M1546.16 1128.41l-17.06 -0.18c-64.27,-0.33 -166.52,-9.44 -208.53,23.75 -19.92,15.75 -34.55,48.34 -24.85,85.74 19.67,75.95 128.98,48.49 121.92,99.25 -7.98,16.76 -116.33,9.73 -147.81,10.25l-35.94 61.47c50.14,0.69 100.88,0.18 151.08,0.09 136.37,-0.24 139.2,-108.63 81.7,-149.74 -15.3,-10.93 -33.42,-16.89 -53.12,-23.14 -21.38,-6.79 -40.58,-9.83 -36.18,-35.92 11.03,-9.78 14.05,-8.96 33.02,-8.96l99.67 -0.01 36.08 -62.59 0.02 -0.01z"></path> <path class="fil1" d="M627.44 1190.99c10.09,0 10.45,-6.11 14.62,-13.79 9.08,-16.73 21.4,-33.04 27.71,-48.88l-127.12 -0.1c-66.66,-0.11 -140.35,18.5 -124.22,104.75 5.91,31.64 27.72,48.4 57.08,59.03 15.32,5.56 78.76,18.34 65.86,44.84 -8.34,17.08 -114.04,10.15 -147.8,10.44l-36.03 61.54 156.84 -0.1c126.55,0.07 150.58,-122.59 50.18,-163.44 -14.16,-5.76 -26.77,-8.94 -41.93,-14.63 -16.17,-6.06 -25.14,-9.64 -21.54,-30.75 8.56,-14.73 110.37,-8.93 126.35,-8.93l0 0.02z"></path> <polygon class="fil1" points="1144.96,1006.94 1061.71,1007.66 978.57,1407.81 1061.19,1406.86 "></polygon> <path class="fil1" d="M1202.46 1406.87c12.15,-39.9 21.44,-97.26 29.98,-139.51 5.8,-28.69 28.37,-114.72 27.71,-137.89l-82.2 -0.09 -57.87 278.51 82.38 -1.01 0 -0.01z"></path> <path class="fil1" d="M2340.26 1272.92c-53.94,-13.27 -93.5,7.95 -103.76,60.18 -13.72,69.79 29.61,87.6 87.56,70.08l10.16 -70.15 -32.8 0.16 -6.88 43.67c-31.33,0.63 -28.63,-32.47 -17.9,-54.6 12.3,-25.35 30.62,-18.43 59.89,-18.76l3.73 -30.57 0 -0.01z"></path> <path class="fil1" d="M2638.08 1379.92c-10.76,-10.54 1.8,-51.62 15.53,-38.85 8.4,7.83 1.96,50.63 -15.53,38.85zm-9.46 22.69c65.81,41.16 89.41,-111.19 19.07,-87.94 -2.5,0.83 -2.72,1.4 -5.12,1.53l-3.17 -0.42c-8.22,-1.41 -24.48,-8.6 -29.89,2.98l-20.44 132.26 32.09 -1.82 7.46 -46.61 0 0.02z"></path> <path class="fil1" d="M2564.46 1313.56c-4.67,15.27 -3.72,65.81 -21.08,66.06 -15.3,0.21 0.46,-35.92 1.7,-65.96l-30.99 0.03c-8.53,32.29 -29.1,115.19 28.28,93.22 16.24,-6.22 1.62,-2.3 15.98,0.39 7.1,1.34 14.67,0.74 22.55,0.95l13.36 -94.82 -29.81 0.13 0.01 0z"></path> <path class="fil1" d="M2442.23 1380.33c-4.57,-8.34 -4.14,-16.11 -1.01,-26.43 3.29,-10.81 5.99,-14.33 17.13,-14.89 10.78,13.67 3.56,49.5 -16.13,41.32l0.01 0zm51.58 -11.3c17.39,-72.15 -71.43,-77.51 -85.22,-16.31 -16.25,72.16 70.3,78.22 85.22,16.31z"></path> <polygon class="fil2" points="1188.91,1076.9 1271.89,1077.51 1286.9,1007.84 1204.06,1007.13 "></polygon> <path class="fil1" d="M2409.64 1311.78c-14.02,0.39 -19.83,-0.16 -26.29,9.96l-2.45 -3.67c-0.39,-0.39 -0.95,-1.16 -1.42,-1.56 -0.46,-0.38 -1.09,-0.95 -1.63,-1.28 -4.04,-2.41 -0.45,-1.09 -6.47,-1.97 -3.19,-0.45 -14.77,0.16 -19.58,0.06l-13.92 94.68 30.63 -0.19c8.49,-30.38 -0.91,-61.39 36.51,-63.82l4.64 -32.21 -0.02 0z"></path> <polygon class="fil2" points="2239.35,1190.72 2300.21,1190.92 2311.76,1130.03 2251.37,1129.52 "></polygon> <polygon class="fil3" points="2316.07,1190.72 2376.94,1190.92 2388.49,1130.03 2328.09,1129.52 "></polygon> <polygon class="fil4" points="2392.79,1190.72 2453.66,1190.92 2465.22,1130.03 2404.81,1129.52 "></polygon> </g> </g> </g> </g> <polygon class="fil0" points="2690.44,288.02 357.54,288.02 357.54,2167.3 2690.44,2167.3 "></polygon> </g> </svg> 