<?xml version="1.0" encoding="UTF-8"?>
<!DOCTYPE svg PUBLIC "-//W3C//DTD SVG 1.1//EN" "http://www.w3.org/Graphics/SVG/1.1/DTD/svg11.dtd">
<!-- Creator: CorelDRAW 2017 -->
<svg xmlns="http://www.w3.org/2000/svg" xml:space="preserve" width="200px" height="100px" version="1.1" style="shape-rendering:geometricPrecision; text-rendering:geometricPrecision; image-rendering:optimizeQuality; fill-rule:evenodd; clip-rule:evenodd"
viewBox="0 0 20000 10000"
 xmlns:xlink="http://www.w3.org/1999/xlink">
 <defs>
  <style type="text/css">
   <![CDATA[
    .fil1 {fill:none}
    .fil0 {fill:#077761}
   ]]>
  </style>
 </defs>
 <g id="Слой_x0020_1">
  <metadata id="CorelCorpID_0Corel-Layer"/>
  <g id="_2040618663904">
   <path class="fil0" d="M3615 3077l-673 0c-246,0 -477,108 -636,297 -158,188 -224,435 -181,677l2 13 446 1912 -604 0 0 940 742 0c246,0 478,-109 636,-297 158,-188 224,-435 181,-677l-2 -13 -446 -1913 535 0 0 -939 0 0z"/>
   <path class="fil0" d="M5528 3012c-1093,0 -1981,892 -1981,1988 0,1096 889,1988 1981,1988 1091,0 1980,-892 1980,-1988 0,-1096 -888,-1988 -1980,-1988zm1042 1988c0,577 -467,1046 -1042,1046 -575,0 -1043,-469 -1043,-1046 0,-577 468,-1046 1043,-1046 575,0 1042,469 1042,1046z"/>
   <path class="fil0" d="M15396 3077l0 280c-310,-218 -687,-345 -1098,-345 -1093,0 -1981,892 -1981,1988 0,1096 889,1988 1981,1988 411,0 788,-127 1098,-344l0 279 873 0 0 -3846 -873 0zm-1098 2969c-575,0 -1043,-469 -1043,-1046 0,-577 467,-1046 1043,-1046 575,0 1042,469 1042,1046 0,577 -467,1046 -1042,1046z"/>
   <polygon class="fil0" points="12991,3077 11107,3077 10860,4018 11293,4018 10527,6923 11455,6923 12221,4018 12673,4018 12990,3077 "/>
   <path class="fil0" d="M10026 3077l-162 618c167,68 647,254 647,254l0 2 -715 0 -784 2972 928 0 1015 -3846 -929 0 0 0z"/>
   <polygon class="fil0" points="8754,3077 8322,4962 8314,4962 8314,3077 7441,3077 7441,6924 8622,6924 9637,3077 "/>
   <polygon class="fil0" points="17497,6047 17497,3077 16625,3077 16625,6923 16632,6923 17497,6923 18031,6923 18031,6047 "/>
  </g>
  <rect class="fil1" width="20000" height="10000"/>
 </g>
</svg>
