<?xml version="1.0" encoding="UTF-8"?> <svg xmlns="http://www.w3.org/2000/svg" xmlns:xlink="http://www.w3.org/1999/xlink" xmlns:xodm="http://www.corel.com/coreldraw/odm/2003" xml:space="preserve" width="30.4798mm" height="24.5532mm" version="1.1" style="shape-rendering:geometricPrecision; text-rendering:geometricPrecision; image-rendering:optimizeQuality; fill-rule:evenodd; clip-rule:evenodd" viewBox="0 0 3047.98 2455.32"> <defs> <style type="text/css"> .fil0 {fill:none} .fil2 {fill:#009846} .fil1 {fill:#FED459} </style> <clipPath id="id0"> <path d="M2690.44 288.02l-2332.9 0 0 1879.28 2332.9 0 0 -1879.28z"></path> </clipPath> </defs> <g id="Слой_x0020_1"> <metadata id="CorelCorpID_0Corel-Layer"></metadata> <rect class="fil0" x="-0.02" y="-0" width="3047.99" height="2455.33"></rect> <g> </g> <g style="clip-path:url(#id0)"> <g id="_2577042731072"> <g> <g id="_2603554486256"> <g> <path class="fil1" d="M1416.09 1183.1c68.46,-68.17 142.22,-72.11 213.33,-3.86 -9.44,-16.28 -16.31,-32.64 -21.4,-50.76l-3.31 -15.71c-2.7,-19.47 -2.55,-37.34 1.08,-56.68 2.11,-8.29 4.62,-16 7.81,-23.94 3.88,-7.97 8.05,-15.15 13.05,-22.47 4.09,-5.11 8.21,-9.99 12.84,-14.64 12,-12.31 18.98,-25.06 20.08,-42.49l1.98 -57.94c-12.22,16.47 -28.5,28.63 -45.87,39.13l-21.53 10.01 -23.22 7.13c-12.57,2.56 -24.71,4.25 -37.49,5.29l-26.49 -0.06c-16.73,-1.36 -33.14,-3.3 -49.44,-7.45 -7.65,-2.71 -14.49,-5.78 -21.61,-9.68l-12.85 -8.87c-14.65,-12.32 -27.36,-26.53 -36.89,-43.22l2.35 67.76c1.53,16.53 8.55,28.69 19.95,40.39 6.78,6.8 12.39,13.98 17.79,21.89 4.39,7.58 8,14.97 11.26,23.09l4.65 16.07c3.63,19.34 3.78,37.21 1.08,56.68 -4.71,25.23 -13.32,48.62 -27.15,70.33l0 0zm254.87 -801.65c95.31,19.38 184.02,57.23 262.27,109.6l-0.74 -13.76 14.24 23.03c173.68,121.87 292.84,316.51 312.63,538.99l66.88 -18.01 -26.97 37.76 10.33 -6.24 10.17 25.41c4.22,-1.41 8.36,-3.04 12.51,-4.65l109.33 -42.43 -74.34 97.58c-17.01,20.21 -37.96,37.15 -62.82,46.71 22.36,5.73 45.53,4.64 68.38,3.09 17.08,-1.25 34.04,-3.32 50.97,-5.86l86.8 -13.28 -57.21 68.9c-4.3,5.08 -8.68,10.08 -13.24,14.93l13.3 7.79 -44.48 31.58c-5.71,3.89 -11.52,7.61 -17.52,11.03l0.11 7.7c-9.01,5.76 -17.79,11.86 -27.37,16.61l-0.15 3.77c-8.41,5.81 -16.69,11.76 -25.42,17.07l8.9 6.4 -56.04 24.49c-9.11,3.75 -18.33,6.92 -27.92,9.23l-1.67 4.16 -22.95 9.92c-13.34,5.01 -26.58,8.64 -39.98,10.81 -11.71,26.3 -24.91,51.79 -39.5,76.37 1.14,7.78 2.07,15.73 3.11,23.91l-7.24 2.63c12.74,19.01 16.96,41.6 16.84,64.13l-0.46 24.38 -8.83 3.14c8.6,25.25 7.9,51.24 -1.73,76.07l-7.51 17.86 -21.24 4.68c-13.96,2.47 -28.02,2.74 -41.74,-1.24 -3.88,16.73 -8.92,33.18 -13.58,49.69l-35.64 -8.75c-17.6,-4.87 -34.41,-11.91 -50,-21.47l-3.74 10.84c-15.98,-3.52 -32.05,-6.56 -47.7,-11.37 -0.07,-0.03 -0.15,-0.05 -0.22,-0.08 -102.25,70.04 -222.88,115.03 -352.94,126.08l-4.82 2.72 -4.17 -1.98c-17.79,1.3 -35.75,1.98 -53.86,1.98 -154.05,0 -297.32,-47.63 -415.9,-128.87 -5.48,1.75 -11.05,3.31 -16.7,4.66l-31.14 6.86 -3.74 -10.84c-16.44,10.08 -34.21,17.35 -52.85,22.21l-32.78 8.02c-4.67,-16.52 -9.71,-32.97 -13.59,-49.7 -14.63,4.24 -29.62,3.67 -44.42,0.71l-18.55 -4.15c-3.76,-8.91 -7.76,-17.69 -10.73,-26.9 -6.5,-22.29 -6,-45.03 1.48,-67.03l-8.82 -3.14c-0.28,-14.66 -1.11,-29.14 0.5,-43.71 2.08,-15.91 6.87,-31.38 15.87,-44.8l-7.22 -2.63c1.03,-8.19 1.94,-16.16 3.07,-23.99 -14.51,-24.47 -27.65,-49.83 -39.32,-75.99 -15.92,-2.85 -30.83,-7.31 -45.84,-13.43l-17.25 -7.6 -1.67 -4.16c-10.38,-2.5 -20.34,-6.01 -30.17,-10.19l-53.78 -23.54 8.89 -6.39c-8.73,-5.31 -17.01,-11.27 -25.41,-17.08l-0.15 -3.76c-9.59,-4.75 -18.37,-10.85 -27.37,-16.61l0.1 -7.69c-6.72,-3.83 -13.2,-8.03 -19.54,-12.45l-42.45 -30.18 13.29 -7.78c-5.13,-5.45 -10.02,-11.09 -14.82,-16.83l-55.6 -66.99 89.8 13.73c30.43,4.44 61.32,7.54 92.11,6.28 8.22,-0.55 16.23,-1.93 24.21,-3.97 -26.34,-10.13 -48.21,-28.44 -65.67,-50.28l-71.48 -94.02c36.95,14.34 73.9,28.68 110.85,43.04 3.64,1.4 7.28,2.83 10.98,4.05l10.17 -25.43 10.32 6.24 -26.97 -37.75 66.92 18.02c19.79,-222.48 138.95,-417.09 312.6,-538.97l14.25 -23.01 -0.73 13.73c79.26,-53.06 169.29,-91.17 266,-110.33l0 -31.86c0.86,-20.71 10.55,-36.91 29.28,-46.2 10.62,-4.59 21.35,-6.13 32.85,-6.24l165.79 0.01c12.07,0.39 23.12,2.51 34.01,7.88 17.67,9.86 27.8,25.97 28.29,46.28l0 30.85 0 0zm177.35 130.26c31.33,17.22 61.14,36.85 89.22,58.62l2.38 44.05c2.08,49.58 0.78,98.6 -9.47,147.31 -8.34,35.21 -20.84,67.19 -43.34,95.83l-10.88 12.15c-10.73,14.8 -21.13,29.78 -30.63,45.41 -8.75,-16.49 -20.06,-30.37 -33.65,-43.1 -8.13,-7.2 -16.75,-13.78 -25.26,-20.52l-9.51 3.49 -53.41 -86.28 18.87 -0.7c10.18,-1.15 19.89,-2.77 29.88,-5.06 9.52,-2.82 18.35,-6.05 27.41,-10.09 8.63,-4.6 16.37,-9.48 24.23,-15.3 7.37,-6.37 13.77,-12.82 20.09,-20.24 5.78,-7.94 10.62,-15.75 15.18,-24.45 4.01,-9.18 7.21,-18.11 9.98,-27.74 2.25,-10.15 3.83,-20.02 4.92,-30.36 0.63,-11.67 0.55,-22.99 0.06,-34.67 -1.15,-12.51 -2.85,-24.51 -5.32,-36.82 -2.97,-11.33 -6.41,-21.95 -10.76,-32.83 -3.13,-6.52 -6.39,-12.65 -9.99,-18.7zm240.57 221.94c60.59,91.75 99.43,199.01 109.15,314.34 -0.76,-0.17 -1.51,-0.35 -2.26,-0.55 -30.45,-11.05 -62.61,-17.04 -95.06,-13.99 13.38,-26.83 18.02,-54.45 15.03,-84.19l-4.75 -26.67 -33.31 -20.28c7.03,-16.4 12.57,-33.08 16.72,-50.43 6.54,-30.56 7.5,-60.22 1.45,-90.94l-6.97 -27.29 0 0zm42.64 668.34c-0.67,1.38 -1.36,2.75 -2.05,4.12 -0.66,-0.9 -1.32,-1.81 -1.98,-2.71l-3.74 -0.44 -0.59 -2.97c2.79,0.72 5.57,1.39 8.36,2zm-265.98 286.53c-60.85,35.81 -127.76,62.35 -198.74,77.72l15.38 -19.06c17.2,-21.91 29.27,-46.95 29.55,-75.3l11.23 3.6c11.95,-20.19 24.15,-39.15 30.85,-61.73l29.12 22.64 1.34 -2.62c16.86,16.95 36.21,30.9 57.17,42.33l24.1 12.42 0 0zm-199.15 77.8c-4.67,1.01 -9.36,1.97 -14.06,2.88 0.82,-2.21 1.6,-4.46 2.33,-6.74l11.73 3.86zm-235.15 8.77c-89.67,-12.4 -173.82,-42.46 -248.8,-86.57l21.32 -10.97c22.03,-11.67 42.32,-26.09 59.93,-43.79l1.34 2.62c14.34,-11.14 29.06,-21.9 42.83,-33.76 6.12,14.48 13.07,28.62 19.71,42.87l10.09 -5.32c8.85,27.45 21.3,53.31 37.9,76.92 9.44,12.98 20.01,25.06 30.27,37.4l12.92 -8.44c3.48,10.04 7.65,19.71 12.49,29.04l0 0zm-512.74 -368.99c-0.68,-1.38 -1.37,-2.75 -2.05,-4.13 2.77,-0.6 5.56,-1.26 8.35,-1.99l-0.6 2.98 -3.73 0.44c-0.66,0.91 -1.31,1.8 -1.97,2.7zm-68.54 -358.12c9.69,-115.19 48.47,-222.3 108.91,-313.98l-5.52 21.46c-1.67,7.35 -3,14.66 -4.03,22.13 -4.73,43.37 3.85,84.85 20.95,124.72l-33.3 20.28c-2.56,13.52 -5.05,26.38 -5.8,40.09 -0.22,25.14 4.83,48.22 16.08,70.77 -32.46,-3.05 -64.61,2.94 -95.06,13.99 -0.74,0.2 -1.49,0.38 -2.23,0.54l0 0zm260.56 -477.7c32.05,-24.86 66.39,-46.9 102.64,-65.77 -1.73,2.19 -3.42,4.41 -5.09,6.64 -4.98,7.24 -9.57,14.51 -13.95,22.13 -9.48,18.32 -15.86,36.16 -19.5,56.49l-1.57 17.14c-0.06,15.08 1.6,28.76 5.2,43.41l5.91 17.1c5.26,11.71 11.2,22.23 18.37,32.87 11.04,14.64 22.96,27.27 36.74,39.36l17.37 12.79c9.04,5.46 17.93,10.11 27.6,14.36 11.72,4.25 23.05,7.48 35.41,9.24l-48.87 78.91 -9.51 -3.49 -17.68 14c-16.89,14.13 -30.87,30.1 -41.23,49.62 -9.49,-15.63 -19.9,-30.6 -30.62,-45.41 -5.31,-5.72 -10.33,-11.44 -15.15,-17.57 -46.7,-64.63 -51.26,-149.72 -49.01,-226.68l2.94 -55.13 0 -0.01zm607 198.27c-8.41,-0.31 -16.73,-0.99 -25.09,-2.02 2.6,18.16 1.9,36.16 -0.1,54.31l-5.21 23.82c-5.1,15.08 -11.08,30.42 -20.65,43.32l26.7 22.26c5.05,-12.38 11.28,-24.25 17.19,-36.23l9.16 0.5 -2 -105.96zm-332.44 116.46c-19.01,-33.27 -27.67,-71.46 -22.66,-109.59 -10.22,1.97 -21.75,2.38 -32.12,1.63l-1.87 97.46 9.17 -0.5c5.9,11.98 12.13,23.86 17.19,36.23l30.29 -25.23zm102.36 -183.51c13.13,10.9 21,25.67 30.68,39.4 13.94,18.83 34.01,43.36 60.2,40.89 3.24,-0.51 6.28,-1.25 9.38,-2.31 2.54,-4.12 4.36,-8.37 5.44,-13.08 3.74,-20.18 -9.12,-36.43 -15.63,-54.38l-2.29 -8.98c-3.82,-26.63 7.3,-49.23 33.11,-58.83 16.29,-4.28 30.33,-1.96 45.26,5.51 6.96,4.04 13.43,8.79 20.42,12.8 10.11,5.43 26.35,13.61 38.26,9.96 3.25,-1.3 4.61,-4.31 5.95,-7.37 16.46,-45.93 -25.07,-85.1 -59.92,-107.64 -36.08,-2.61 -61.55,25.62 -87.33,46.4 -24.61,23.17 -45.94,49.11 -65.59,76.56 -5.34,7.53 -11.72,14.27 -17.94,21.07zm-6.51 -174.85l-3 11.37 -6.5 10.39c-4.18,4.14 -7.97,7.08 -13.1,9.95 -15.63,6.55 -30.67,5.41 -46.5,0.39 -9.16,-3.21 -17.55,-7.38 -25.28,-13.29 -10.54,-8.25 -27.65,-20.92 -42.14,-17.93 -2.35,0.65 -4.15,1.71 -6.05,3.22 -32.22,29.03 0.71,70.57 23.46,92.86 12.16,11.27 28.52,25.1 46.36,20.3 13.93,-4.77 24.07,-16.61 32.86,-27.86 38.44,-50.49 81.99,-96.39 131.96,-135.63l-0.23 -22.88 -92.08 0 0.24 69.11z"></path> <g> <path class="fil2" d="M1412.93 350.75c-0.4,-16.38 10.38,-22.39 30.12,-22.39l162.9 0c23.07,-0.2 32.86,9.53 32.86,22.39l0 132.79c107.44,-34 201.52,3.43 203.97,130.05 1.96,101.51 -72.4,145.89 -193.02,110.89 45.97,135.57 -41.82,222.29 -177.96,194.38 -52.5,-10.76 -103.42,-106.2 -65.71,-175.22 19.1,-34.96 52.15,-38.11 75.29,0 37.55,59.61 79.34,85.36 127.31,61.6 22.08,-27.87 23.23,-57.76 2.74,-95.82 -15.12,-28.09 6.69,-46.22 31.49,-28.75 40.16,28.31 91.33,39.79 106.77,-8.21 18.09,-56.24 -19.65,-110.01 -80.77,-146.48 -55.78,-7.67 -85.21,26.38 -119.09,53.39 -29.21,27.28 -52.04,55.85 -72.56,84.87 -74.31,89.19 -166.19,111.89 -238.19,30.12 -60.46,-68.65 -34.29,-147.49 32.85,-205.34 34.6,-29.81 84.45,-27.97 141,-5.48 0,-44.26 0,-88.52 0,-132.78l0 -0.01zm35.37 74.39l156.34 0 0.7 70.8c-55.47,41.4 -100.35,88.63 -138.81,139.51 -38.75,51.27 -80.89,55.19 -126.89,11.22 -48.41,-46.28 -61.36,-94.57 -29.44,-133.2 25.17,-30.47 62.48,-20.6 96.04,6.31 13.2,10.59 42.88,17.31 42.76,1.4l-0.7 -96.04 0 0z"></path> <g> <path class="fil2" d="M1686.94 1406.08c20.17,31.93 46.74,54.3 87.37,55.62 8.2,-32.16 11.09,-63.25 2.27,-92.02 25.12,22.87 56.71,38.26 94.78,46.18 0.62,-34.86 -0.61,-68.9 -14.7,-97.28 20.32,19.87 45.61,33.54 75.77,40.68 7.48,-27.76 8.31,-56.35 -0.55,-86.16l87.55 13.12c-21.41,-33.13 -48.95,-61.49 -82.61,-85.1l-4.76 29.48 -16.71 -7.29 -0.91 15.44 -19.27 -3.47 -4.1 16.08 -16.46 -9.34 -0.02 16.59 -11.47 -7.67 0.49 12.51 -17.22 -3.21 0.87 17.74 -13.78 -5.88 -2.32 18.38 -16.07 -4.1 -2.32 18.37 -16.08 -4.1 -2.95 15.18 -15.18 -2.95 0.24 14.55 -16.08 -4.1 2.28 14.81 -17.11 4.06 -2.95 15.19 -19.78 0.62 -7.06 31.26 -12.11 -10.86 2.66 20.04 -21.71 7.63zm-325.9 0c-20.17,31.93 -46.73,54.3 -87.36,55.62 -8.21,-32.16 -11.09,-63.25 -2.28,-92.02 -25.11,22.87 -56.71,38.26 -94.78,46.17 -0.61,-34.85 0.62,-68.89 14.7,-97.27 -20.32,19.87 -45.6,33.53 -75.77,40.67 -7.47,-27.75 -8.31,-56.34 0.55,-86.15l-87.54 13.11c21.4,-33.12 48.94,-61.48 82.61,-85.09l4.75 29.48 16.72 -7.29 0.91 15.44 19.26 -3.47 4.11 16.08 16.45 -9.34 0.02 16.6 11.48 -7.68 -0.5 12.51 17.23 -3.21 -0.88 17.74 13.78 -5.88 2.32 18.38 16.08 -4.11 2.31 18.38 16.08 -4.1 2.95 15.18 15.19 -2.95 -0.24 14.55 16.08 -4.1 -2.29 14.81 17.11 4.06 2.95 15.19 19.79 0.62 7.05 31.26 12.12 -10.86 -2.66 20.04 21.7 7.63zm-443.49 258.18c-10.01,-22.89 -7.77,-45.45 2.86,-67.78 7.22,4.03 14.98,3.65 22.97,1.25l3.85 14.04 13.29 -1.53c8.66,14.19 10.4,28.4 6.41,42.6 -11.39,12.66 -27.85,16.46 -49.38,11.42zm51.59 -92.59c-17.83,8.25 -38.04,8.92 -61.14,0.45 -0.54,-20.68 3.34,-39.69 16.92,-55.03l25.65 -2.2 0.65 13.4 14.29 -1.8c-1.53,14.52 0.29,29.7 3.63,45.18zm24.27 134.88c25.68,-6.08 47.37,-17.75 66.33,-33.26 -7.4,-24.69 -11.62,-48.92 -10.16,-72.36l-12.51 -0.49 -5.25 -16.97 -43.26 10.64c-10.43,31.86 -7.4,70 4.85,112.44zm87.92 -18.35c-14.35,-40.42 -16.59,-81.72 -1.16,-124.31l47.8 -3.87 -2.99 14.74 17.82 -2.68c2.01,29.4 7.66,56.07 19.79,77.87 -24.06,17.56 -50.28,31.68 -81.26,38.25zm-89.47 -117.32c-8.39,-25.72 -8.31,-50.57 4.13,-74.16l42.06 -3.46 2.69 11.55 13.71 -0.56 5.4 38.35c-12.68,22.79 -35.34,32.22 -67.99,28.28zm-71.32 -88.5c2.39,-19.93 8.28,-36.23 17.69,-48.91l18.24 -2.14 0.02 14.78 8.62 -4.17c10.68,8.36 14.84,22.37 14.52,40.25 -18.92,6.19 -38.4,8.01 -59.09,0.19zm68.52 -131.03c6.85,12.51 8.36,27.1 7.45,42.62l-37.49 -1.19c3.6,-18.78 11.79,-34.01 30.04,-41.43zm75.93 108.66c-18.62,11.66 -39.93,18.28 -65.2,17.56 -7.67,-27.05 -5.99,-51.97 9.37,-73.78l35.19 -8.34 2.08 12.51 13.65 -2.86 4.91 54.91zm89.16 65.51l-3.74 -51.22 -20.48 4.06 1.27 -14.55 -45.39 4.98c-10.27,22.56 -10.59,47.47 -4.09,74.01 23.9,0.37 51.19,-1.6 72.43,-17.28zm32.3 124.53c26.09,-13.23 48.11,-30.53 66.06,-51.89l-16.4 -59.39 -19.72 14.2 5.44 -18.98c-23.04,-4.25 -42.08,-2.02 -52.34,14.48 -6.66,33.19 1.1,67.17 16.96,101.58zm156.92 -178.47l-18.13 12.07 -4.27 -16.97 -60.02 25.66c-7.76,28.98 -2.75,60.5 15.03,94.56 31.07,-23.77 57.5,-55.45 67.39,-115.32zm-168.51 -36.83c-9.12,29.15 -8.53,58.46 1.75,87.93l79.48 -35.95c-8.09,-21.62 -13.73,-44.42 -13.99,-69.8l-67.24 17.82zm-77.8 -124.42c-9.95,15.93 -11.64,31.58 -7.67,47.04 -18.86,20.48 -44.23,28.83 -75.53,26.12 -4.5,-26.48 0.59,-52.15 17.27,-76.86 16.96,1.85 34.01,-1.59 51.12,-8.65l1.76 11.62 13.05 0.73zm58.2 59.47c-23.49,10.07 -45.46,11.69 -65.22,0.97 -7.77,27.61 -8.44,54.7 -4.25,81.43 30.72,1.37 54.82,-11.7 75.91,-31.35 -5.23,-13.77 -7.38,-30.78 -6.44,-51.05zm975.18 294.46c10,-22.89 7.76,-45.45 -2.86,-67.78 -7.23,4.03 -14.98,3.65 -22.98,1.25l-3.84 14.04 -13.29 -1.53c-8.66,14.2 -10.4,28.4 -6.41,42.6 11.39,12.66 27.85,16.46 49.38,11.42zm-51.59 -92.59c17.82,8.25 38.04,8.92 61.13,0.45 0.54,-20.68 -3.33,-39.69 -16.91,-55.03l-25.66 -2.2 -0.65 13.4 -14.29 -1.8c1.53,14.51 -0.29,29.69 -3.62,45.18zm-24.27 134.88c-25.69,-6.08 -47.38,-17.75 -66.34,-33.26 7.4,-24.69 11.62,-48.92 10.17,-72.35l12.5 -0.5 5.26 -16.97 43.25 10.64c10.44,31.86 7.4,70 -4.84,112.44zm-87.92 -18.35c14.34,-40.42 16.59,-81.72 1.15,-124.31l-47.8 -3.87 2.99 14.74 -17.82 -2.68c-2.01,29.4 -7.66,56.07 -19.78,77.87 24.06,17.56 50.28,31.68 81.26,38.25zm89.47 -117.32c8.38,-25.72 8.31,-50.57 -4.13,-74.16l-42.07 -3.46 -2.69 11.55 -13.7 -0.56 -5.41 38.34c12.68,22.8 35.35,32.23 68,28.29zm71.32 -88.5c-2.39,-19.93 -8.29,-36.23 -17.69,-48.91l-18.25 -2.14 -0.02 14.78 -8.62 -4.17c-10.68,8.36 -14.84,22.37 -14.52,40.24 18.93,6.2 38.4,8.01 59.1,0.2zm-68.53 -131.03c-6.84,12.51 -8.36,27.1 -7.45,42.62l37.49 -1.19c-3.6,-18.78 -11.78,-34.01 -30.04,-41.43zm-75.93 108.66c18.62,11.66 39.94,18.28 65.2,17.56 7.67,-27.05 5.99,-51.97 -9.36,-73.78l-35.2 -8.34 -2.08 12.51 -13.64 -2.86 -4.92 54.91zm-89.16 65.51l3.74 -51.22 20.48 4.06 -1.27 -14.55 45.4 4.98c10.27,22.56 10.58,47.47 4.08,74.01 -23.9,0.37 -51.19,-1.59 -72.43,-17.28zm-32.3 124.53c-26.09,-13.23 -48.11,-30.53 -66.06,-51.89l16.41 -59.39 19.72 14.2 -5.45 -18.97c23.04,-4.26 42.08,-2.03 52.34,14.47 6.66,33.19 -1.1,67.17 -16.96,101.58zm-156.92 -178.47l18.13 12.07 4.27 -16.98 60.03 25.67c7.75,28.99 2.74,60.5 -15.04,94.56 -31.06,-23.78 -57.5,-55.45 -67.39,-115.32zm168.52 -36.83c9.11,29.15 8.52,58.46 -1.76,87.93l-79.48 -35.95c8.09,-21.62 13.73,-44.42 13.99,-69.8l67.25 17.82zm77.79 -124.42c9.95,15.93 11.64,31.58 7.68,47.04 18.85,20.48 44.22,28.83 75.53,26.12 4.5,-26.48 -0.6,-52.15 -17.28,-76.86 -16.96,1.85 -34.01,-1.59 -51.11,-8.65l-1.76 11.62 -13.06 0.73zm-58.2 59.48c23.49,10.06 45.47,11.68 65.22,0.96 7.77,27.61 8.44,54.7 4.25,81.43 -30.72,1.37 -54.82,-11.7 -75.9,-31.35 5.23,-13.77 7.37,-30.78 6.43,-51.04z"></path> <path class="fil2" d="M1356.1 1250.47c-4.26,43.97 4.24,83.67 40.84,114.02 30.63,-23.82 55.59,-50.48 68.07,-83.39 6.81,39.15 24.96,76.02 54.46,110.62 25.55,-31.76 48.82,-64.09 56.15,-100.4 4.54,32.91 18.1,63.67 40.85,91.89 26.8,-20.28 48.07,-46.09 61.26,-79.98l71.48 74.88c3.97,-45.95 -1.14,-91.9 -15.32,-137.85l-25.53 23.83 -10.21 -18.72 -11.91 13.61 -15.32 -17.02 -15.31 11.92 -8.51 -20.42 -11.91 15.31 -5.11 -15.31 -8.51 11.91 -13.61 -15.32 -11.91 17.02 -8.51 -15.32 -15.32 15.32 -11.91 -15.32 -15.32 15.32 -11.91 -15.32 -13.61 11.92 -11.92 -13.62 -10.21 13.62 -11.91 -15.32 -8.51 15.32 -18.72 -8.51 -13.61 11.91 -18.72 -13.61 -28.93 23.82 -3.41 -18.72 -11.91 20.42 -25.52 -8.51zm224.63 556.48c25.65,-13.97 39.75,-36.42 45.95,-64.67 -9.57,-1.45 -16.46,-7.37 -22.13,-15.31l-13.61 10.21 -11.18 -10.94c-18.18,6.9 -29.97,18.78 -36.47,34.76 1.45,19.86 13.93,35.18 37.44,45.95zm18.72 -122.53c10.55,20.41 28.74,35.52 56.16,44.25 15.32,-18.72 25.37,-39.06 23.82,-62.96l-22.12 -20.43 -10.21 11.92 -11.91 -11.92c-9,14.51 -21.56,27.23 -35.74,39.14zm-119.13 107.22c-19.37,-24.03 -31.04,-50.37 -37.43,-78.29 24.53,-17.5 45.8,-36.87 61.26,-59.56l11.91 8.51 17.02 -11.91 32.33 40.84c-13.2,36.92 -43.34,69.98 -85.09,100.41zm-68.07 -79.99c42.23,-27.06 73.92,-63.6 90.2,-114.02l-41.39 -37.85 -7.81 15.77 -14.54 -15.25c-22.94,25.72 -47.28,46.31 -74.11,57.75 9.64,33.47 23.74,65.32 47.65,93.6zm166.78 -44.24c26.18,-17.75 43.93,-40.76 49.35,-71.48l-36.39 -33.35 -10.76 8.74 -12.26 -10.35 -32.49 31.56c-4.63,30.15 9.55,55.11 42.55,74.88zm129.33 -30.63c12.08,-20.13 18.32,-39.41 18.72,-57.87l-15.32 -15.05 -10.62 13.63 -4.96 -10.03c-15.87,0.06 -29.75,10.03 -42.28,26.77 13.05,19.29 29.74,34.93 54.46,42.55zm30.63 -170.18c-15.29,6.65 -27.15,19.04 -37.44,34.03l35.49 25.78c10.14,-19.94 13.5,-39.88 1.95,-59.81zm-148.05 45.95c8.84,24.11 23.79,45.52 47.65,62.96 26.48,-19.48 42.79,-43.72 44.25,-74.88l-26.55 -32.93 -10.88 10.06 -10.56 -12.42 -43.91 47.21zm-129.34 -3.41l40.18 -44.63 16.01 18.43 9.26 -14.35 38.36 37.15c-6.67,28.2 -24.25,51.44 -49.27,71.3 -22.35,-16.79 -46.16,-38.18 -54.54,-67.9zm-119.12 91.9c-14.61,-30.93 -22.55,-62.7 -23.82,-95.3l57.73 -43.11 8.04 27.25 8.57 -21.43c24.34,12.59 40.33,28.3 37.97,50.9 -17.63,35.44 -49.16,61.26 -88.49,81.69zm-17.02 -277.39l8.1 24.15 16.11 -12.62 37.06 66.75c-13.62,32.33 -40.85,57.86 -81.69,76.58 -11.65,-44.24 -13.36,-92.45 20.42,-154.86zm182.09 86.79c-12.48,33.47 -34.03,60.13 -64.66,79.98l-47.65 -90.19c22.97,-14.18 44.53,-31.2 62.96,-54.46l49.35 64.67zm161.08 -59.17c-2.24,21.85 -11.9,37.52 -26.64,48.96 2.73,32.44 20.19,58.34 51.06,78.28 23.14,-21.23 36.83,-48.61 39.14,-83.39 -17,-10.45 -30.28,-25.85 -41.02,-44.64l-9.96 9.47 -12.58 -8.68zm-96.41 13.22c14.48,26.14 33.62,43.39 59.56,47.65 -12.62,31.08 -31.42,56.59 -54.45,78.28 -29.37,-20.76 -42.26,-50.12 -47.65,-83.38 14.7,-8.97 28.88,-23.16 42.54,-42.55z"></path> </g> <path class="fil2" d="M1690.21 1200.02c-50.86,-38.19 -79.47,-131.27 -29.14,-181.28 14.29,-14.2 30.1,-34.31 30.76,-67.99 10.62,8.66 13.56,17.31 15.41,25.97 4.45,-24.25 11.57,-47.61 22.59,-69.67 1.35,9.19 3.79,17.28 7.32,24.28 10.32,-14.51 15.18,-33.39 14.57,-56.65 33.14,52.11 38.01,104.15 40.44,156.21 6.06,-46.66 2.27,-94.4 -11.31,-143.26 34.72,26.73 58.31,68.58 38.85,111.68 -24.27,71.01 -27.4,115.12 -27.52,155.39 -35.01,5.88 -69.14,19.76 -101.97,45.32l0 0zm-332.43 0c50.85,-38.19 79.47,-131.27 29.13,-181.28 -14.28,-14.2 -30.09,-34.31 -30.75,-67.99 -10.63,8.66 -13.57,17.31 -15.41,25.97 -4.46,-24.25 -11.58,-47.61 -22.6,-69.67 -1.34,9.19 -3.78,17.28 -7.31,24.28 -10.33,-14.51 -15.18,-33.39 -14.57,-56.65 -33.14,52.11 -38.01,104.15 -40.45,156.21 -6.05,-46.66 -2.27,-94.4 11.31,-143.26 -34.72,26.73 -58.3,68.58 -38.84,111.68 24.26,71.01 27.4,115.12 27.51,155.39 35.02,5.88 69.15,19.76 101.98,45.32l0 0zm-138.95 -50.71c-4.43,-85.21 -91.55,-158.01 -225.07,-223.86 6.06,16.14 11.31,32.27 10.89,48.4l-38.72 -31.46c-11.9,56.37 15.53,111.43 100.44,164.57 5.91,4.62 3.06,13.5 -7.26,9.68 -57.43,-46.83 -121.22,-67.72 -197.25,-38.72 -21.42,6 -41.72,3.04 -61.71,-2.42l16.13 22.58 -37.91 -3.22 6.97 11.56c-11.64,0.27 -22.39,-1.26 -31.17,-6.72l-4.84 12.1c-15.13,3.8 -31.82,-3.26 -48.41,-9.68 24.23,32.66 57.73,52.21 107.7,53.24 21.71,0.45 40.9,-5.99 62.93,-16.94 64.65,-32.14 133.37,-25.95 200.09,-1.69 3.34,1.53 2.79,6.04 -1.64,5.32 -79.03,-26.75 -147.16,-24.86 -203.3,8.47 -68.55,44.66 -115.43,59.98 -148.83,60.91 -34.79,0.98 -68.2,-2.5 -101.65,-7.66 15.88,19.2 32.08,36.67 50.49,42.01l-12.98 7.6c18.79,13.48 39.1,23.9 61.65,29.85l-26.56 0.4c13.81,9.01 30.75,14.25 50.83,15.73l-24.2 4.78c18.74,13.1 38.95,22.64 62.79,24.47l-13.18 9.47c20.57,9.13 41.14,14.33 61.71,10.89l-15.73 9.69c51.63,23.55 106.28,22.18 165.78,-19.37 34.58,-67.12 77.57,-123.56 135.53,-160.93 -48.05,-27.13 -96.46,-25.88 -145.21,1.21 -40.84,29.64 -72.99,64.03 -100.26,101.07 -35.81,41.94 -68.54,51.81 -98.19,29.61l3.63 -6.05c27.4,17.02 55.49,9.5 85.87,-27.83 29.96,-37.81 63.18,-73.66 105.32,-104.06 51.73,-26.97 103.67,-34.71 156.1,2.42l99.22 -25.42 0 0zm-142.28 -548.28c-7.46,124.09 9.58,226.13 70.3,288.86 60.99,82.83 92.94,168.89 95.86,258.18l-15.34 0c-4.29,-86.97 -83.31,-162.45 -213.45,-230.06 -31.96,-58.1 -41.33,-111.35 -28.12,-159.77l11.51 19.18 3.83 -34.51c11.69,32.31 24.6,64.22 46.01,93.3 34.49,38.5 65.95,79.02 90.75,123.98l8.95 -5.12 -95.86 -138.03c-28.36,-42.75 -34.03,-85.99 -20.18,-128.25l9.55 9.98c4.58,-35.84 17.82,-68.44 36.19,-97.74l0 0zm752.6 548.28c4.43,-85.21 91.56,-158.01 225.07,-223.86 -6.06,16.14 -11.31,32.27 -10.89,48.4l38.72 -31.46c11.91,56.37 -15.52,111.43 -100.43,164.57 -5.92,4.62 -3.07,13.5 7.26,9.68 57.43,-46.83 121.21,-67.72 197.24,-38.72 21.42,6 41.72,3.04 61.71,-2.42l-16.13 22.58 37.92 -3.22 -6.98 11.56c11.64,0.27 22.39,-1.26 31.18,-6.72l4.84 12.1c15.13,3.8 31.81,-3.26 48.4,-9.68 -24.23,32.66 -57.72,52.21 -107.7,53.24 -21.71,0.45 -40.9,-5.99 -62.92,-16.94 -64.65,-32.14 -133.38,-25.95 -200.09,-1.69 -3.35,1.53 -2.8,6.04 1.64,5.32 79.03,-26.75 147.15,-24.86 203.29,8.47 68.56,44.66 115.43,59.98 148.84,60.91 34.78,0.98 68.2,-2.5 101.65,-7.66 -15.89,19.2 -32.09,36.67 -50.49,42.01l12.97 7.6c-18.78,13.48 -39.09,23.9 -61.64,29.85l26.55 0.4c-13.8,9.01 -30.74,14.25 -50.82,15.73l24.2 4.78c-18.75,13.1 -38.95,22.64 -62.79,24.47l13.18 9.47c-20.58,9.13 -41.15,14.33 -61.72,10.89l15.73 9.69c-51.63,23.55 -106.28,22.18 -165.78,-19.37 -34.58,-67.12 -77.56,-123.56 -135.52,-160.93 48.04,-27.13 96.45,-25.88 145.21,1.21 40.83,29.64 72.98,64.03 100.25,101.07 35.82,41.94 68.55,51.81 98.2,29.61l-3.63 -6.05c-27.4,17.02 -55.5,9.5 -85.88,-27.83 -29.96,-37.81 -63.18,-73.66 -105.32,-104.06 -51.72,-26.97 -103.66,-34.71 -156.09,2.42l-99.23 -25.42 0 0zm142.29 -548.28c7.45,124.09 -9.59,226.13 -70.3,288.86 -61,82.83 -92.95,168.89 -95.86,258.18l15.34 0c4.29,-86.97 83.3,-162.45 213.44,-230.06 31.96,-58.1 41.34,-111.35 28.12,-159.77l-11.5 19.18 -3.84 -34.51c-11.69,32.31 -24.6,64.22 -46.01,93.3 -34.48,38.5 -65.94,79.02 -90.75,123.98l-8.94 -5.12 95.86 -138.03c28.35,-42.75 34.03,-85.99 20.17,-128.25l-9.55 9.98c-4.57,-35.84 -17.82,-68.44 -36.19,-97.74l0.01 0z"></path> </g> </g> <path class="fil2" d="M1816.08 362.82c3.61,-8.11 7.84,-14.37 12.72,-18.79 3.61,-3.23 7.7,-5.78 12.26,-7.61 4.56,-1.81 9.05,-2.67 13.46,-2.57 5.91,0.1 12.07,1.6 18.55,4.49 11.73,5.21 19.48,13.02 23.28,23.43 3.8,10.39 2.82,22.07 -2.94,35.01 -5.73,12.86 -13.69,21.34 -23.91,25.49 -10.21,4.13 -21.16,3.6 -32.82,-1.59 -11.84,-5.27 -19.64,-13.07 -23.41,-23.38 -3.77,-10.33 -2.82,-21.83 2.81,-34.48zm16.78 6.83c-4.01,9 -4.96,16.76 -2.88,23.26 2.1,6.5 6.34,11.17 12.75,14.02 6.39,2.85 12.67,2.89 18.85,0.09 6.14,-2.79 11.27,-8.78 15.38,-18 4.06,-9.11 5.08,-16.8 3.1,-23.07 -2,-6.27 -6.32,-10.87 -12.93,-13.82 -6.63,-2.95 -12.98,-3.05 -19.05,-0.32 -6.06,2.75 -11.14,8.67 -15.22,17.84zm106.63 3.61l56.93 31.56 -7.09 12.79 -41.56 -23.04 -9.79 17.66 20.57 11.4c5.69,3.16 10.01,6.45 12.98,9.91 2.98,3.46 4.74,7.8 5.33,13.01 0.57,5.21 -0.53,10.32 -3.31,15.34 -2.86,5.16 -6.64,8.84 -11.35,11.03 -4.69,2.19 -9.12,3.03 -13.29,2.48 -4.15,-0.54 -9.38,-2.56 -15.7,-6.06l-35.94 -19.92 42.22 -76.16zm-19.76 71.9l14.97 8.29c4.78,2.66 8.26,4.28 10.45,4.89 2.22,0.6 4.49,0.47 6.84,-0.38 2.36,-0.87 4.22,-2.5 5.56,-4.93 1.96,-3.53 2.13,-6.8 0.5,-9.81 -1.6,-3 -5.45,-6.18 -11.51,-9.54l-15.64 -8.67 -11.17 20.15zm117.1 -11.16l13.47 11.3 -46.57 55.51 19.3 16.19 46.57 -55.5 13.42 11.26 -46.57 55.5 19.92 16.72 46.58 -55.5 13.41 11.26 -46.57 55.5 6.01 5.04 -21.61 25.75 -11.19 -9.39 12.21 -14.56 -74.34 -62.38 55.96 -66.7zm45.75 155.09l65.71 -57.12 42.35 48.71 -11.12 9.67 -30.82 -35.45 -14.56 12.66 28.67 32.99 -11.06 9.61 -28.68 -32.98 -17.88 15.55 31.91 36.7 -11.08 9.63 -43.44 -49.97zm118.13 96.07l5.64 16.95c-9.22,3.47 -17.48,4.1 -24.8,1.9 -7.28,-2.2 -13.69,-7.09 -19.18,-14.65 -6.8,-9.35 -9.19,-19.36 -7.18,-30.02 2.02,-10.66 8.57,-20.03 19.64,-28.08 11.73,-8.52 23.04,-12.1 33.93,-10.76 10.87,1.34 19.9,6.94 27.07,16.81 6.26,8.61 8.81,17.46 7.61,26.55 -0.66,5.39 -3.25,10.93 -7.73,16.64l-13.59 -11.65c3.06,-3.47 4.68,-7.31 4.86,-11.5 0.2,-4.18 -1.08,-8.16 -3.82,-11.93 -3.79,-5.22 -8.75,-8.11 -14.86,-8.62 -6.1,-0.53 -13.35,2.25 -21.75,8.35 -8.9,6.47 -14.1,12.67 -15.53,18.63 -1.47,5.95 -0.33,11.49 3.39,16.6 2.75,3.79 6.31,6.17 10.7,7.14 4.37,0.98 9.58,0.18 15.6,-2.36zm4.42 69.06l62.64 -36.17 -12.91 -22.37 12.76 -7.37 34.6 59.92 -12.77 7.37 -12.88 -22.31 -62.64 36.16 -8.8 -15.23zm110.94 25.19l13.04 32.28c2.58,6.39 4.24,11.27 4.97,14.63 0.74,3.35 0.76,6.6 0.07,9.76 -0.69,3.17 -2.1,6.12 -4.25,8.91 -2.13,2.79 -4.95,4.89 -8.43,6.3 -3.78,1.52 -7.67,1.91 -11.64,1.16 -3.99,-0.77 -7.47,-2.58 -10.46,-5.42 0.55,5.48 -0.35,10.27 -2.73,14.29 -2.39,4.05 -5.92,7 -10.58,8.89 -3.66,1.48 -7.58,2.07 -11.75,1.77 -4.15,-0.31 -7.87,-1.52 -11.13,-3.64 -3.26,-2.11 -6.01,-5.24 -8.25,-9.39 -1.38,-2.59 -4.22,-9.07 -8.49,-19.44l-11.1 -27.48 80.73 -32.62zm-6.85 21.75l-18.67 7.54 4.32 10.68c2.56,6.35 4.25,10.26 5.06,11.72 1.45,2.66 3.29,4.47 5.54,5.42 2.24,0.95 4.67,0.89 7.28,-0.16 2.5,-1.01 4.25,-2.51 5.26,-4.51 1,-2.02 1.11,-4.45 0.34,-7.29 -0.47,-1.69 -2.25,-6.37 -5.35,-14.04l-3.78 -9.36zm-32.1 12.97l-21.58 8.72 6.09 15.07c2.38,5.89 4.03,9.55 5.01,10.99 1.41,2.25 3.3,3.78 5.6,4.62 2.33,0.83 4.93,0.68 7.79,-0.48 2.42,-0.98 4.23,-2.41 5.45,-4.25 1.21,-1.87 1.77,-4.07 1.65,-6.59 -0.13,-2.53 -1.71,-7.52 -4.7,-14.92l-5.31 -13.16zm32.26 71.68c8.53,-2.45 16.05,-3.23 22.57,-2.34 4.8,0.69 9.38,2.18 13.71,4.5 4.32,2.33 7.87,5.21 10.63,8.66 3.72,4.59 6.53,10.28 8.48,17.1 3.54,12.33 2.55,23.29 -2.99,32.89 -5.51,9.6 -15.09,16.35 -28.71,20.25 -13.53,3.88 -25.14,3.23 -34.89,-1.93 -9.73,-5.16 -16.36,-13.89 -19.88,-26.16 -3.57,-12.45 -2.61,-23.44 2.86,-32.96 5.5,-9.53 14.91,-16.19 28.22,-20.01zm5.56 17.24c-9.48,2.71 -16.04,6.98 -19.67,12.75 -3.64,5.78 -4.48,12.04 -2.55,18.78 1.93,6.72 5.93,11.56 12.04,14.49 6.09,2.92 13.98,3 23.69,0.21 9.58,-2.75 16.13,-6.9 19.67,-12.45 3.5,-5.56 4.26,-11.83 2.26,-18.79 -2,-6.97 -6,-11.9 -12,-14.8 -5.99,-2.88 -13.8,-2.96 -23.44,-0.19z"></path> <path class="fil2" d="M774.79 929.12l-4.63 18.56 -21.04 2.59 -8.42 33.78 17.46 11.75 -4.51 18.1 -76.28 -53.98 4.5 -18.04 92.92 -12.76zm-41.26 23.08l-34.25 3.82 28.51 19.23 5.74 -23.05zm-39.13 -60.44l5.72 -16.62 35.04 12.06c0.92,-3.84 0.82,-6.68 -0.26,-8.51 -1.09,-1.83 -4.66,-5.34 -10.72,-10.47 -7.72,-6.52 -12.07,-11.9 -13.04,-16.11 -1,-4.2 -0.16,-10.13 2.48,-17.8 0.13,-0.38 0.39,-1.19 0.78,-2.43l12.28 4.23 -0.87 2.34c-1.16,3.39 -1.6,6.02 -1.3,7.89 0.3,1.86 1.15,3.59 2.54,5.14 1.39,1.57 4.42,4.22 9.13,7.99 2.49,1.99 4.49,3.9 6,5.73 1.49,1.84 2.57,4.55 3.23,8.12 2.33,-3.33 5.49,-5.68 9.51,-6.99 4.01,-1.32 9.42,-2.42 16.2,-3.3l26.45 -3.46 -6.72 19.54 -24.67 2.5c-0.36,0.05 -1.04,0.16 -2.07,0.36 -0.37,0.07 -1.9,0.33 -4.59,0.74 -4.77,0.73 -7.91,1.62 -9.4,2.63 -1.48,1.02 -2.72,2.93 -3.73,5.73l36.06 12.42 -5.72 16.62 -82.33 -28.35zm26.61 -77.43l7.43 -15.93 65.67 30.62 14.41 -30.9 -65.67 -30.62 7.43 -15.93 65.67 30.62 3.06 -6.58 30.47 14.21 -6.18 13.25 -17.22 -8.03 -26.15 56.09 -78.92 -36.8zm41.11 -86.59l8.23 -14.26 50.2 28.98 -32.56 -59.53 8.76 -15.16 75.4 43.53 -8.22 14.24 -49.22 -28.42 31.61 58.93 -8.79 15.22 -75.41 -43.53zm82.37 -56.4c-6.9,-5.59 -11.85,-11.3 -14.86,-17.15 -2.18,-4.33 -3.59,-8.93 -4.17,-13.82 -0.57,-4.87 -0.25,-9.43 0.99,-13.67 1.63,-5.67 4.68,-11.24 9.14,-16.75 8.08,-9.98 17.62,-15.45 28.66,-16.42 11.02,-0.99 22.05,2.99 33.06,11.9 10.94,8.86 17.06,18.75 18.43,29.69 1.35,10.93 -1.99,21.37 -10.03,31.3 -8.15,10.06 -17.71,15.58 -28.64,16.56 -10.96,0.96 -21.82,-2.93 -32.58,-11.64zm10.94 -14.44c7.66,6.2 14.91,9.13 21.72,8.8 6.83,-0.34 12.43,-3.24 16.85,-8.69 4.4,-5.44 6.07,-11.49 4.96,-18.18 -1.1,-6.66 -5.56,-13.16 -13.41,-19.52 -7.75,-6.28 -14.91,-9.26 -21.48,-8.97 -6.57,0.32 -12.14,3.29 -16.69,8.92 -4.57,5.64 -6.3,11.75 -5.24,18.32 1.08,6.56 5.49,13 13.29,19.32zm83.83 -33.77l-62.64 -60.49 12.23 -12.66 24.64 23.8 23.93 -24.77 -24.64 -23.8 12.2 -12.65 62.64 60.49 -12.21 12.64 -27.39 -26.45 -23.92 24.78 27.38 26.45 -12.22 12.66zm59.63 -62.55l-55.97 -66.7 49.45 -41.49 9.47 11.29 -35.98 30.19 12.4 14.79 33.49 -28.1 9.42 11.23 -33.49 28.1 15.24 18.15 37.25 -31.26 9.44 11.24 -50.72 42.56zm62.51 -51.69l-49.94 -71.32 23.1 -16.18c8.75,-6.13 14.72,-9.76 17.88,-10.91 4.83,-1.79 9.89,-1.88 15.16,-0.22 5.27,1.66 9.89,5.33 13.86,10.99 3.07,4.38 4.85,8.63 5.34,12.72 0.5,4.1 0.13,7.85 -1.13,11.28 -1.26,3.41 -2.96,6.28 -5.1,8.59 -2.96,3.09 -7.7,6.93 -14.22,11.5l-9.39 6.57 18.84 26.9 -14.4 10.08zm-27.09 -69.33l14.17 20.23 7.87 -5.51c5.68,-3.98 9.22,-7.01 10.61,-9.09 1.39,-2.09 2.07,-4.3 2.05,-6.66 -0.04,-2.35 -0.78,-4.58 -2.26,-6.69 -1.81,-2.59 -4.08,-4.19 -6.79,-4.82 -2.69,-0.62 -5.37,-0.32 -7.99,0.89 -1.96,0.88 -5.52,3.15 -10.7,6.78l-6.96 4.87zm93.46 22.93l-39.53 -77.58 15.68 -7.98 15.55 30.52 30.69 -15.64 -15.55 -30.52 15.66 -7.98 39.53 77.58 -15.66 7.98 -17.29 -33.92 -30.68 15.63 17.28 33.93 -15.68 7.98zm57.66 -78.13c-3.19,-8.29 -4.62,-15.71 -4.3,-22.28 0.27,-4.84 1.36,-9.53 3.29,-14.06 1.94,-4.5 4.51,-8.28 7.7,-11.33 4.24,-4.11 9.67,-7.41 16.29,-9.95 11.98,-4.6 22.98,-4.56 33.03,0.11 10.04,4.66 17.6,13.62 22.68,26.85 5.04,13.13 5.4,24.76 1.11,34.92 -4.29,10.14 -12.4,17.51 -24.33,22.09 -12.09,4.64 -23.12,4.64 -33.08,0.01 -9.97,-4.64 -17.43,-13.44 -22.39,-26.36zm16.69 -7.04c3.53,9.2 8.35,15.36 14.41,18.49 6.08,3.11 12.38,3.41 18.93,0.89 6.53,-2.5 11.01,-6.91 13.39,-13.26 2.37,-6.32 1.77,-14.18 -1.85,-23.61 -3.58,-9.31 -8.29,-15.47 -14.12,-18.51 -5.85,-3.01 -12.16,-3.21 -18.92,-0.62 -6.77,2.6 -11.33,7.02 -13.69,13.25 -2.35,6.22 -1.75,14 1.85,23.37zm90.02 11.51l-22.53 -84.1 62.35 -16.71 3.81 14.24 -45.37 12.15 4.99 18.64 42.22 -11.31 3.8 14.16 -42.22 11.31 6.13 22.89 46.98 -12.58 3.8 14.17 -63.96 17.14z"></path> <path class="fil2" d="M737.55 1663.96l9.09 37.82c-16.81,6.95 -31.7,7.72 -44.71,2.3 -12.97,-5.41 -24.19,-16.7 -33.59,-33.8 -11.62,-21.15 -15.29,-43.43 -11.02,-66.78 4.31,-23.38 16.68,-43.55 37.09,-60.44 21.62,-17.89 42.17,-24.92 61.68,-21.14 19.47,3.81 35.35,16.85 47.62,39.18 10.71,19.48 14.73,39.2 12.02,59.16 -1.54,11.85 -6.54,23.87 -14.94,36.12l-23.72 -26.74c5.72,-7.44 8.88,-15.78 9.48,-25.02 0.61,-9.2 -1.45,-18.07 -6.14,-26.61 -6.49,-11.79 -15.22,-18.55 -26.18,-20.17 -10.93,-1.64 -24.14,3.95 -39.62,16.76 -16.42,13.59 -26.15,26.88 -29.1,39.9 -3.01,13.02 -1.31,25.32 5.05,36.9 4.72,8.57 10.96,14.09 18.79,16.57 7.8,2.51 17.22,1.14 28.2,-4.01zm93.23 -38.13l24.23 24.94 -40.26 58.87 32.41 33.37c8.53,8.77 14.88,17.71 19.09,26.89 4.2,9.17 5.82,19.54 4.88,31.08 -0.91,11.57 -4.62,22.07 -11.13,31.6 -6.83,9.97 -14.81,16.36 -24.01,19.16 -9.17,2.82 -17.15,2.73 -23.97,-0.32 -6.82,-2.99 -15.24,-9.67 -25.3,-20.03l-56.64 -58.31 100.7 -147.25zm-59.57 147.47l23.67 24.37c7.52,7.73 13.07,12.7 16.67,14.88 3.6,2.13 7.66,2.8 12.16,2 4.52,-0.83 8.34,-3.56 11.5,-8.19 4.51,-6.58 5.99,-13.41 4.44,-20.62 -1.55,-7.2 -7.27,-15.83 -17.16,-26.01l-24.64 -25.38 -26.64 38.95zm173.68 -29.99l24.23 24.95 -100.7 147.25 -24.22 -24.95 100.69 -147.25zm33.23 31.34l27.11 19.98 -34.34 70.13c6.42,3.74 11.46,4.84 15.09,3.34 3.62,-1.5 11.13,-7.61 22.42,-18.34 14.37,-13.69 25.45,-20.61 33.24,-20.77 7.77,-0.22 17.88,4.31 30.39,13.53 0.63,0.46 1.96,1.39 4,2.79l-12.05 24.59 -3.78 -2.95c-5.54,-4.08 -10.02,-6.23 -13.41,-6.43 -3.39,-0.2 -6.74,0.82 -9.99,3.12 -3.29,2.28 -9.09,7.61 -17.48,16.04 -4.44,4.46 -8.55,7.9 -12.33,10.33 -3.8,2.37 -8.97,3.47 -15.51,3.25 5.01,6.55 7.94,14.46 8.76,23.73 0.82,9.28 0.72,21.47 -0.26,36.52l-3.81 58.69 -31.86 -23.48 4.82 -54.41c0.05,-0.8 0.11,-2.32 0.14,-4.64 0.02,-0.83 0.12,-4.25 0.42,-10.24 0.49,-10.66 0.1,-17.84 -1.13,-21.51 -1.22,-3.67 -4.12,-7.22 -8.68,-10.68l-35.34 72.16 -27.1 -19.99 80.68 -164.76 0 0zm80.39 272.88l50.85 -146.99 -42.78 -22.28 10.36 -29.95 114.59 59.69 -10.36 29.95 -42.67 -22.23 -50.85 146.99 -29.14 -15.18zm127.22 -137.38l30.81 8.73 -14.09 74.88 41.23 11.67c10.84,3.08 19.81,7.5 26.95,13.34 7.14,5.83 12.42,14.17 15.85,24.97 3.47,10.81 4.05,22.23 1.77,34.35 -2.38,12.69 -7.14,22.83 -14.3,30.45 -7.12,7.63 -14.27,11.99 -21.47,13.07 -7.18,1.14 -17.16,-0.13 -29.96,-3.76l-72.03 -20.4 35.24 -187.29 0 -0.01zm1.48 164.58l30.11 8.53c9.56,2.71 16.34,4.03 20.36,3.98 3.99,-0.11 7.86,-1.77 11.57,-4.99 3.72,-3.26 6.11,-7.82 7.22,-13.71 1.58,-8.37 0.37,-15.28 -3.68,-20.84 -4.04,-5.55 -12.33,-10.06 -24.91,-13.62l-31.35 -8.88 -9.32 49.53zm143.66 -123.46l30.81 8.73 -35.24 187.29 -30.81 -8.73 35.24 -187.29zm45.44 8.82l62.29 8.04c12.33,1.59 21.49,3.4 27.44,5.47 5.95,2.03 11.13,5.35 15.57,9.97 4.45,4.63 7.95,10.43 10.57,17.52 2.62,7.05 3.58,14.73 2.87,22.96 -0.76,8.95 -3.43,16.93 -7.99,23.9 -4.59,6.97 -10.4,11.89 -17.43,14.76 9.17,4.61 16.01,11.34 20.39,20.14 4.41,8.85 6.13,18.79 5.18,29.83 -0.74,8.68 -3.1,16.92 -7.11,24.73 -4,7.77 -9.06,13.77 -15.18,17.94 -6.11,4.16 -13.41,6.28 -21.89,6.35 -5.28,0 -17.98,-1.19 -38.05,-3.6l-53.03 -6.84 16.37 -191.17 0 0zm28.76 35.89l-3.78 44.2 20.6 2.65c12.26,1.58 19.9,2.34 22.91,2.28 5.43,-0.06 9.87,-1.78 13.28,-5.17 3.41,-3.39 5.36,-8.17 5.89,-14.36 0.51,-5.92 -0.39,-10.9 -2.72,-14.93 -2.37,-4.04 -6.13,-6.78 -11.29,-8.21 -3.08,-0.85 -12.02,-2.22 -26.82,-4.13l-18.07 -2.33zm-6.51 76.02l-4.38 51.1 29.1 3.75c11.35,1.46 18.56,2.03 21.68,1.62 4.77,-0.42 8.8,-2.51 12.08,-6.13 3.28,-3.68 5.23,-8.91 5.81,-15.68 0.5,-5.74 -0.25,-10.74 -2.16,-15.04 -1.94,-4.3 -4.95,-7.66 -9.07,-10.03 -4.13,-2.38 -13.37,-4.47 -27.67,-6.32l-25.39 -3.27zm112.28 -96.8l31.61 -1.36 2.32 81.76c7.05,-1.15 11.76,-3.59 14.14,-7.28 2.38,-3.68 5.96,-13.82 10.67,-30.37 5.97,-21.08 12.2,-34.28 18.65,-39.62 6.42,-5.38 16.92,-8.34 31.5,-8.96 0.73,-0.03 2.26,-0.14 4.59,-0.33l0.81 28.67 -4.48 0.05c-6.46,0.28 -11.17,1.47 -14.1,3.56 -2.93,2.1 -5.29,5.2 -7,9.3 -1.74,4.11 -4.24,12.46 -7.53,25.14 -1.75,6.7 -3.66,12.33 -5.76,16.9 -2.14,4.53 -5.99,8.9 -11.56,13.08 7.1,2.16 13.07,6.83 17.88,14.06 4.8,7.22 10.13,17.52 15.98,30.79l22.87 51.78 -37.15 1.59 -20.11 -48.85c-0.31,-0.7 -0.94,-2.02 -1.94,-3.99 -0.35,-0.7 -1.78,-3.64 -4.2,-8.87 -4.31,-9.26 -7.83,-15.02 -10.49,-17.28 -2.65,-2.26 -6.66,-3.3 -12.02,-3.16l2.39 84.14 -31.6 1.35 -5.47 -192.1 0 0zm277.87 157.26l-34.01 6.61 -19.08 -40.52 -61.85 12.02 -7.19 45.62 -33.14 6.44 35.76 -201.56 33.04 -6.42 86.47 177.81zm-67.23 -63.92l-30.42 -66.32 -11.8 74.52 42.22 -8.2zm85.25 58.84l-45.81 -183.82 48.52 -18.2c18.39,-6.9 30.62,-10.46 36.66,-10.71 9.26,-0.48 17.97,2.8 26.07,9.87 8.09,7.07 13.96,17.93 17.6,32.52 2.82,11.3 3.51,21.43 2.07,30.35 -1.43,8.96 -4.15,16.58 -8.21,22.92 -4.04,6.29 -8.55,11.17 -13.5,14.57 -6.78,4.46 -17.02,9.28 -30.73,14.43l-19.71 7.39 17.28 69.33 -30.24 11.35 0 0zm-7.81 -164.05l12.99 52.13 16.53 -6.21c11.93,-4.47 19.68,-8.41 23.21,-11.84 3.54,-3.43 5.93,-7.6 7.21,-12.58 1.24,-4.96 1.21,-10.14 -0.15,-15.57 -1.66,-6.68 -4.64,-11.6 -8.94,-14.76 -4.25,-3.13 -9.01,-4.34 -14.16,-3.58 -3.84,0.5 -11.19,2.84 -22.08,6.92l-14.61 5.49zm77.6 -53.57l111.01 -69.41 71.13 171.27 -28.18 17.62 -59.18 -142.52 -54.67 34.17 59.18 142.52 -28.17 17.62 -71.12 -171.27zm126.94 -77.69l24.84 -19.79 56.79 107.31 -3.57 -149.72 26.43 -21.06 85.33 161.21 -24.81 19.77 -55.71 -105.25 2.54 147.61 -26.52 21.13 -85.32 -161.21zm107.55 -81.83l45.05 -53.38c8.92,-10.57 15.94,-18.01 21.06,-22.27 5.09,-4.29 10.49,-7.02 16.24,-8.23 5.74,-1.21 11.62,-0.76 17.72,1.33 6.09,2.06 11.5,6.1 16.19,12.06 5.09,6.47 8.36,14.1 9.78,22.87 1.4,8.79 0.74,17.42 -1.99,25.88 8.77,-5.67 17.37,-7.77 25.68,-6.23 8.36,1.54 15.67,6.32 21.95,14.31 4.94,6.27 8.58,13.79 10.88,22.57 2.27,8.76 2.77,17.38 1.44,25.8 -1.34,8.42 -4.7,16.64 -10.11,24.66 -3.39,4.96 -12.3,16.13 -26.71,33.45l-38.36 45.45 -108.82 -138.27zm40.89 -3.96l25.16 31.96 14.9 -17.65c8.87,-10.51 14.26,-17.2 16.15,-20.07 3.46,-5.15 5.23,-10.43 5.31,-15.81 0.08,-5.38 -1.66,-10.29 -5.18,-14.77 -3.37,-4.28 -7.05,-6.64 -11.07,-7.04 -4.04,-0.37 -8.17,1.41 -12.38,5.34 -2.51,2.35 -9.12,9.87 -19.82,22.55l-13.07 15.49zm43.28 54.98l29.08 36.96 21.05 -24.93c8.21,-9.73 13.2,-16.15 14.95,-19.34 2.8,-4.75 4.09,-9.88 3.93,-15.29 -0.18,-5.45 -2.19,-10.66 -6.05,-15.55 -3.26,-4.15 -6.86,-6.67 -10.77,-7.64 -3.94,-0.93 -7.97,-0.26 -12.1,2.09 -4.14,2.35 -11.39,9.69 -21.73,21.94l-18.36 21.76zm71.55 -90.55c-12.92,-11.52 -22.36,-23.53 -28.32,-36.08 -4.33,-9.29 -7.29,-19.29 -8.8,-29.98 -1.48,-10.67 -1.32,-20.76 0.51,-30.25 2.38,-12.7 7.33,-25.33 14.83,-38 13.57,-22.92 30.21,-36.09 49.95,-39.51 19.72,-3.44 39.9,4.04 60.53,22.43 20.48,18.26 32.42,39.36 35.9,63.32 3.46,23.93 -1.56,47.34 -15.07,70.15 -13.7,23.14 -30.35,36.4 -49.91,39.82 -19.59,3.39 -39.47,-3.93 -59.62,-21.9zm18.29 -33.09c14.34,12.78 27.65,18.4 39.86,16.89 12.23,-1.55 22.03,-8.58 29.45,-21.1 7.4,-12.5 9.83,-26.04 7.21,-40.65 -2.61,-14.56 -11.24,-28.39 -25.93,-41.49 -14.52,-12.94 -27.67,-18.68 -39.45,-17.29 -11.77,1.45 -21.49,8.66 -29.15,21.59 -7.67,12.96 -10.22,26.62 -7.68,41 2.55,14.34 11.08,28.02 25.69,41.05z"></path> <path class="fil2" d="M656.92 1410.7c11.56,0 20.98,9.43 20.98,20.98 0,11.55 -9.42,20.97 -20.98,20.97 -11.55,0 -20.97,-9.42 -20.97,-20.97 0,-11.55 9.42,-20.98 20.97,-20.98z"></path> <path class="fil2" d="M2371.6 1410.7c11.55,0 20.97,9.43 20.97,20.98 0,11.55 -9.42,20.97 -20.97,20.97 -11.55,0 -20.98,-9.42 -20.98,-20.97 0,-11.55 9.43,-20.98 20.98,-20.98z"></path> </g> </g> </g> </g> <polygon class="fil0" points="2690.44,288.02 357.54,288.02 357.54,2167.3 2690.44,2167.3 "></polygon> </g> </svg> 